<?xml version="1.0" encoding="UTF-8"?>
<svg width="1311px" height="920px" viewBox="0 0 1311 920" version="1.1" xmlns="http://www.w3.org/2000/svg" xmlns:xlink="http://www.w3.org/1999/xlink">
    <!-- Generator: Sketch 58 (84663) - https://sketch.com -->
    <title>Group 27</title>
    <desc>Created with Sketch.</desc>
    <defs>
        <filter x="-39.3%" y="-46.8%" width="178.7%" height="193.7%" filterUnits="objectBoundingBox" id="filter-1">
            <feOffset dx="0" dy="5" in="SourceAlpha" result="shadowOffsetOuter1"></feOffset>
            <feGaussianBlur stdDeviation="5" in="shadowOffsetOuter1" result="shadowBlurOuter1"></feGaussianBlur>
            <feColorMatrix values="0 0 0 0 0.184313725   0 0 0 0 0.329411765   0 0 0 0 0.921568627  0 0 0 0.3 0" type="matrix" in="shadowBlurOuter1" result="shadowMatrixOuter1"></feColorMatrix>
            <feMerge>
                <feMergeNode in="shadowMatrixOuter1"></feMergeNode>
                <feMergeNode in="SourceGraphic"></feMergeNode>
            </feMerge>
        </filter>
    </defs>
    <g id="Page-1" stroke="none" stroke-width="1" fill="none" fill-rule="evenodd">
        <g id="-Ant-Design-门户" transform="translate(-78.000000, -1661.000000)">
            <g id="解决方案" transform="translate(-1564.000000, 1472.000000)">
                <g id="Group-27" transform="translate(1644.000000, 191.000000)">
                    <g id="Group-11">
                        <path d="M1209,389 C1210.10457,389 1211,389.895431 1211,391 C1211,392.104569 1210.10457,393 1209,393 C1207.89543,393 1207,392.104569 1207,391 C1207,389.895431 1207.89543,389 1209,389 Z M1223,389 C1224.10457,389 1225,389.895431 1225,391 C1225,392.104569 1224.10457,393 1223,393 C1221.89543,393 1221,392.104569 1221,391 C1221,389.895431 1221.89543,389 1223,389 Z M1237,389 C1238.10457,389 1239,389.895431 1239,391 C1239,392.104569 1238.10457,393 1237,393 C1235.89543,393 1235,392.104569 1235,391 C1235,389.895431 1235.89543,389 1237,389 Z M1251,389 C1252.10457,389 1253,389.895431 1253,391 C1253,392.104569 1252.10457,393 1251,393 C1249.89543,393 1249,392.104569 1249,391 C1249,389.895431 1249.89543,389 1251,389 Z M1265,389 C1266.10457,389 1267,389.895431 1267,391 C1267,392.104569 1266.10457,393 1265,393 C1263.89543,393 1263,392.104569 1263,391 C1263,389.895431 1263.89543,389 1265,389 Z M1279,389 C1280.10457,389 1281,389.895431 1281,391 C1281,392.104569 1280.10457,393 1279,393 C1277.89543,393 1277,392.104569 1277,391 C1277,389.895431 1277.89543,389 1279,389 Z M1293,389 C1294.10457,389 1295,389.895431 1295,391 C1295,392.104569 1294.10457,393 1293,393 C1291.89543,393 1291,392.104569 1291,391 C1291,389.895431 1291.89543,389 1293,389 Z M1307,389 C1308.10457,389 1309,389.895431 1309,391 C1309,392.104569 1308.10457,393 1307,393 C1305.89543,393 1305,392.104569 1305,391 C1305,389.895431 1305.89543,389 1307,389 Z M1209,375 C1210.10457,375 1211,375.895431 1211,377 C1211,378.104569 1210.10457,379 1209,379 C1207.89543,379 1207,378.104569 1207,377 C1207,375.895431 1207.89543,375 1209,375 Z M1223,375 C1224.10457,375 1225,375.895431 1225,377 C1225,378.104569 1224.10457,379 1223,379 C1221.89543,379 1221,378.104569 1221,377 C1221,375.895431 1221.89543,375 1223,375 Z M1237,375 C1238.10457,375 1239,375.895431 1239,377 C1239,378.104569 1238.10457,379 1237,379 C1235.89543,379 1235,378.104569 1235,377 C1235,375.895431 1235.89543,375 1237,375 Z M1251,375 C1252.10457,375 1253,375.895431 1253,377 C1253,378.104569 1252.10457,379 1251,379 C1249.89543,379 1249,378.104569 1249,377 C1249,375.895431 1249.89543,375 1251,375 Z M1265,375 C1266.10457,375 1267,375.895431 1267,377 C1267,378.104569 1266.10457,379 1265,379 C1263.89543,379 1263,378.104569 1263,377 C1263,375.895431 1263.89543,375 1265,375 Z M1279,375 C1280.10457,375 1281,375.895431 1281,377 C1281,378.104569 1280.10457,379 1279,379 C1277.89543,379 1277,378.104569 1277,377 C1277,375.895431 1277.89543,375 1279,375 Z M1293,375 C1294.10457,375 1295,375.895431 1295,377 C1295,378.104569 1294.10457,379 1293,379 C1291.89543,379 1291,378.104569 1291,377 C1291,375.895431 1291.89543,375 1293,375 Z M1307,375 C1308.10457,375 1309,375.895431 1309,377 C1309,378.104569 1308.10457,379 1307,379 C1305.89543,379 1305,378.104569 1305,377 C1305,375.895431 1305.89543,375 1307,375 Z M1209,361 C1210.10457,361 1211,361.895431 1211,363 C1211,364.104569 1210.10457,365 1209,365 C1207.89543,365 1207,364.104569 1207,363 C1207,361.895431 1207.89543,361 1209,361 Z M1223,361 C1224.10457,361 1225,361.895431 1225,363 C1225,364.104569 1224.10457,365 1223,365 C1221.89543,365 1221,364.104569 1221,363 C1221,361.895431 1221.89543,361 1223,361 Z M1237,361 C1238.10457,361 1239,361.895431 1239,363 C1239,364.104569 1238.10457,365 1237,365 C1235.89543,365 1235,364.104569 1235,363 C1235,361.895431 1235.89543,361 1237,361 Z M1251,361 C1252.10457,361 1253,361.895431 1253,363 C1253,364.104569 1252.10457,365 1251,365 C1249.89543,365 1249,364.104569 1249,363 C1249,361.895431 1249.89543,361 1251,361 Z M1265,361 C1266.10457,361 1267,361.895431 1267,363 C1267,364.104569 1266.10457,365 1265,365 C1263.89543,365 1263,364.104569 1263,363 C1263,361.895431 1263.89543,361 1265,361 Z M1279,361 C1280.10457,361 1281,361.895431 1281,363 C1281,364.104569 1280.10457,365 1279,365 C1277.89543,365 1277,364.104569 1277,363 C1277,361.895431 1277.89543,361 1279,361 Z M1293,361 C1294.10457,361 1295,361.895431 1295,363 C1295,364.104569 1294.10457,365 1293,365 C1291.89543,365 1291,364.104569 1291,363 C1291,361.895431 1291.89543,361 1293,361 Z M1307,361 C1308.10457,361 1309,361.895431 1309,363 C1309,364.104569 1308.10457,365 1307,365 C1305.89543,365 1305,364.104569 1305,363 C1305,361.895431 1305.89543,361 1307,361 Z M1209,347 C1210.10457,347 1211,347.895431 1211,349 C1211,350.104569 1210.10457,351 1209,351 C1207.89543,351 1207,350.104569 1207,349 C1207,347.895431 1207.89543,347 1209,347 Z M1223,347 C1224.10457,347 1225,347.895431 1225,349 C1225,350.104569 1224.10457,351 1223,351 C1221.89543,351 1221,350.104569 1221,349 C1221,347.895431 1221.89543,347 1223,347 Z M1237,347 C1238.10457,347 1239,347.895431 1239,349 C1239,350.104569 1238.10457,351 1237,351 C1235.89543,351 1235,350.104569 1235,349 C1235,347.895431 1235.89543,347 1237,347 Z M1279,347 C1280.10457,347 1281,347.895431 1281,349 C1281,350.104569 1280.10457,351 1279,351 C1277.89543,351 1277,350.104569 1277,349 C1277,347.895431 1277.89543,347 1279,347 Z M1293,347 C1294.10457,347 1295,347.895431 1295,349 C1295,350.104569 1294.10457,351 1293,351 C1291.89543,351 1291,350.104569 1291,349 C1291,347.895431 1291.89543,347 1293,347 Z M1251,347 C1252.10457,347 1253,347.895431 1253,349 C1253,350.104569 1252.10457,351 1251,351 C1249.89543,351 1249,350.104569 1249,349 C1249,347.895431 1249.89543,347 1251,347 Z M1265,347 C1266.10457,347 1267,347.895431 1267,349 C1267,350.104569 1266.10457,351 1265,351 C1263.89543,351 1263,350.104569 1263,349 C1263,347.895431 1263.89543,347 1265,347 Z M1307,347 C1308.10457,347 1309,347.895431 1309,349 C1309,350.104569 1308.10457,351 1307,351 C1305.89543,351 1305,350.104569 1305,349 C1305,347.895431 1305.89543,347 1307,347 Z M1265,333 C1266.10457,333 1267,333.895431 1267,335 C1267,336.104569 1266.10457,337 1265,337 C1263.89543,337 1263,336.104569 1263,335 C1263,333.895431 1263.89543,333 1265,333 Z M1251,333 C1252.10457,333 1253,333.895431 1253,335 C1253,336.104569 1252.10457,337 1251,337 C1249.89543,337 1249,336.104569 1249,335 C1249,333.895431 1249.89543,333 1251,333 Z M1279,333 C1280.10457,333 1281,333.895431 1281,335 C1281,336.104569 1280.10457,337 1279,337 C1277.89543,337 1277,336.104569 1277,335 C1277,333.895431 1277.89543,333 1279,333 Z M1293,333 C1294.10457,333 1295,333.895431 1295,335 C1295,336.104569 1294.10457,337 1293,337 C1291.89543,337 1291,336.104569 1291,335 C1291,333.895431 1291.89543,333 1293,333 Z M1307,333 C1308.10457,333 1309,333.895431 1309,335 C1309,336.104569 1308.10457,337 1307,337 C1305.89543,337 1305,336.104569 1305,335 C1305,333.895431 1305.89543,333 1307,333 Z M1223,333 C1224.10457,333 1225,333.895431 1225,335 C1225,336.104569 1224.10457,337 1223,337 C1221.89543,337 1221,336.104569 1221,335 C1221,333.895431 1221.89543,333 1223,333 Z M1237,333 C1238.10457,333 1239,333.895431 1239,335 C1239,336.104569 1238.10457,337 1237,337 C1235.89543,337 1235,336.104569 1235,335 C1235,333.895431 1235.89543,333 1237,333 Z M1209,333 C1210.10457,333 1211,333.895431 1211,335 C1211,336.104569 1210.10457,337 1209,337 C1207.89543,337 1207,336.104569 1207,335 C1207,333.895431 1207.89543,333 1209,333 Z M1209,319 C1210.10457,319 1211,319.895431 1211,321 C1211,322.104569 1210.10457,323 1209,323 C1207.89543,323 1207,322.104569 1207,321 C1207,319.895431 1207.89543,319 1209,319 Z M1223,319 C1224.10457,319 1225,319.895431 1225,321 C1225,322.104569 1224.10457,323 1223,323 C1221.89543,323 1221,322.104569 1221,321 C1221,319.895431 1221.89543,319 1223,319 Z M1237,319 C1238.10457,319 1239,319.895431 1239,321 C1239,322.104569 1238.10457,323 1237,323 C1235.89543,323 1235,322.104569 1235,321 C1235,319.895431 1235.89543,319 1237,319 Z M1251,319 C1252.10457,319 1253,319.895431 1253,321 C1253,322.104569 1252.10457,323 1251,323 C1249.89543,323 1249,322.104569 1249,321 C1249,319.895431 1249.89543,319 1251,319 Z M1265,319 C1266.10457,319 1267,319.895431 1267,321 C1267,322.104569 1266.10457,323 1265,323 C1263.89543,323 1263,322.104569 1263,321 C1263,319.895431 1263.89543,319 1265,319 Z M1279,319 C1280.10457,319 1281,319.895431 1281,321 C1281,322.104569 1280.10457,323 1279,323 C1277.89543,323 1277,322.104569 1277,321 C1277,319.895431 1277.89543,319 1279,319 Z M1293,319 C1294.10457,319 1295,319.895431 1295,321 C1295,322.104569 1294.10457,323 1293,323 C1291.89543,323 1291,322.104569 1291,321 C1291,319.895431 1291.89543,319 1293,319 Z M1307,319 C1308.10457,319 1309,319.895431 1309,321 C1309,322.104569 1308.10457,323 1307,323 C1305.89543,323 1305,322.104569 1305,321 C1305,319.895431 1305.89543,319 1307,319 Z" id="Combined-Shape" fill="#13C2C2"></path>
                        <circle id="Oval-8" stroke="#13C2C2" stroke-width="4" cx="11" cy="667" r="11"></circle>
                        <circle id="Oval-8" stroke="#13C2C2" stroke-width="4" opacity="0.95" cx="1096" cy="11" r="11"></circle>
                        <g id="Group-29" transform="translate(283.000000, 844.000000)" fill="#2F54EB">
                            <path d="M2,70 C3.1045695,70 4,70.8954305 4,72 C4,73.1045695 3.1045695,74 2,74 C0.8954305,74 0,73.1045695 0,72 C0,70.8954305 0.8954305,70 2,70 Z M16,70 C17.1045695,70 18,70.8954305 18,72 C18,73.1045695 17.1045695,74 16,74 C14.8954305,74 14,73.1045695 14,72 C14,70.8954305 14.8954305,70 16,70 Z M30,70 C31.1045695,70 32,70.8954305 32,72 C32,73.1045695 31.1045695,74 30,74 C28.8954305,74 28,73.1045695 28,72 C28,70.8954305 28.8954305,70 30,70 Z M44,70 C45.1045695,70 46,70.8954305 46,72 C46,73.1045695 45.1045695,74 44,74 C42.8954305,74 42,73.1045695 42,72 C42,70.8954305 42.8954305,70 44,70 Z M2,56 C3.1045695,56 4,56.8954305 4,58 C4,59.1045695 3.1045695,60 2,60 C0.8954305,60 0,59.1045695 0,58 C0,56.8954305 0.8954305,56 2,56 Z M16,56 C17.1045695,56 18,56.8954305 18,58 C18,59.1045695 17.1045695,60 16,60 C14.8954305,60 14,59.1045695 14,58 C14,56.8954305 14.8954305,56 16,56 Z M30,56 C31.1045695,56 32,56.8954305 32,58 C32,59.1045695 31.1045695,60 30,60 C28.8954305,60 28,59.1045695 28,58 C28,56.8954305 28.8954305,56 30,56 Z M44,56 C45.1045695,56 46,56.8954305 46,58 C46,59.1045695 45.1045695,60 44,60 C42.8954305,60 42,59.1045695 42,58 C42,56.8954305 42.8954305,56 44,56 Z M2,42 C3.1045695,42 4,42.8954305 4,44 C4,45.1045695 3.1045695,46 2,46 C0.8954305,46 0,45.1045695 0,44 C0,42.8954305 0.8954305,42 2,42 Z M16,42 C17.1045695,42 18,42.8954305 18,44 C18,45.1045695 17.1045695,46 16,46 C14.8954305,46 14,45.1045695 14,44 C14,42.8954305 14.8954305,42 16,42 Z M30,42 C31.1045695,42 32,42.8954305 32,44 C32,45.1045695 31.1045695,46 30,46 C28.8954305,46 28,45.1045695 28,44 C28,42.8954305 28.8954305,42 30,42 Z M44,42 C45.1045695,42 46,42.8954305 46,44 C46,45.1045695 45.1045695,46 44,46 C42.8954305,46 42,45.1045695 42,44 C42,42.8954305 42.8954305,42 44,42 Z M2,28 C3.1045695,28 4,28.8954305 4,30 C4,31.1045695 3.1045695,32 2,32 C0.8954305,32 0,31.1045695 0,30 C0,28.8954305 0.8954305,28 2,28 Z M16,28 C17.1045695,28 18,28.8954305 18,30 C18,31.1045695 17.1045695,32 16,32 C14.8954305,32 14,31.1045695 14,30 C14,28.8954305 14.8954305,28 16,28 Z M30,28 C31.1045695,28 32,28.8954305 32,30 C32,31.1045695 31.1045695,32 30,32 C28.8954305,32 28,31.1045695 28,30 C28,28.8954305 28.8954305,28 30,28 Z M44,28 C45.1045695,28 46,28.8954305 46,30 C46,31.1045695 45.1045695,32 44,32 C42.8954305,32 42,31.1045695 42,30 C42,28.8954305 42.8954305,28 44,28 Z M2,14 C3.1045695,14 4,14.8954305 4,16 C4,17.1045695 3.1045695,18 2,18 C0.8954305,18 0,17.1045695 0,16 C0,14.8954305 0.8954305,14 2,14 Z M16,14 C17.1045695,14 18,14.8954305 18,16 C18,17.1045695 17.1045695,18 16,18 C14.8954305,18 14,17.1045695 14,16 C14,14.8954305 14.8954305,14 16,14 Z M30,14 C31.1045695,14 32,14.8954305 32,16 C32,17.1045695 31.1045695,18 30,18 C28.8954305,18 28,17.1045695 28,16 C28,14.8954305 28.8954305,14 30,14 Z M44,14 C45.1045695,14 46,14.8954305 46,16 C46,17.1045695 45.1045695,18 44,18 C42.8954305,18 42,17.1045695 42,16 C42,14.8954305 42.8954305,14 44,14 Z M2,0 C3.1045695,0 4,0.8954305 4,2 C4,3.1045695 3.1045695,4 2,4 C0.8954305,4 0,3.1045695 0,2 C0,0.8954305 0.8954305,0 2,0 Z M16,0 C17.1045695,0 18,0.8954305 18,2 C18,3.1045695 17.1045695,4 16,4 C14.8954305,4 14,3.1045695 14,2 C14,0.8954305 14.8954305,0 16,0 Z M30,0 C31.1045695,0 32,0.8954305 32,2 C32,3.1045695 31.1045695,4 30,4 C28.8954305,4 28,3.1045695 28,2 C28,0.8954305 28.8954305,0 30,0 Z M44,0 C45.1045695,0 46,0.8954305 46,2 C46,3.1045695 45.1045695,4 44,4 C42.8954305,4 42,3.1045695 42,2 C42,0.8954305 42.8954305,0 44,0 Z" id="Combined-Shape"></path>
                        </g>
                    </g>
                    <g id="Group-28" transform="translate(884.000000, 711.000000)" fill="#2F54EB">
                        <g id="Group-4" filter="url(#filter-1)" transform="translate(31.500000, 37.500000) rotate(90.000000) translate(-31.500000, -37.500000) translate(-6.000000, 6.000000)">
                            <rect id="Rectangle-20" transform="translate(19.041708, 32.400000) rotate(-30.000000) translate(-19.041708, -32.400000) " x="17.8481594" y="-1.8" width="2.38709677" height="68.4" rx="0.6"></rect>
                            <rect id="Rectangle-20" transform="translate(24.412675, 28.682309) rotate(-30.000000) translate(-24.412675, -28.682309) " x="23.2191271" y="-1.91769145" width="2.38709677" height="61.2" rx="0.6"></rect>
                            <rect id="Rectangle-20" transform="translate(30.380417, 25.564617) rotate(-30.000000) translate(-30.380417, -25.564617) " x="29.186869" y="-1.43538291" width="2.38709677" height="54" rx="0.6"></rect>
                            <rect id="Rectangle-20" transform="translate(36.944934, 22.446926) rotate(-30.000000) translate(-36.944934, -22.446926) " x="35.7513852" y="-0.953074361" width="2.38709677" height="46.8" rx="0.6"></rect>
                            <path d="M42.9159013,-0.353074361 L44.1029981,-0.353074361 C44.4343689,-0.353074361 44.7029981,-0.0844452108 44.7029981,0.246925639 L44.7029981,38.6469256 C44.7029981,38.9782965 44.4343689,39.2469256 44.1029981,39.2469256 L42.9159013,39.2469256 C42.5845304,39.2469256 42.3159013,38.9782965 42.3159013,38.6469256 L42.3159013,0.246925639 C42.3159013,-0.0844452108 42.5845304,-0.353074361 42.9159013,-0.353074361 Z" id="Rectangle-20" transform="translate(43.509450, 19.446926) rotate(-30.000000) translate(-43.509450, -19.446926) "></path>
                            <rect id="Rectangle-20" transform="translate(49.477192, 15.846926) rotate(-30.000000) translate(-49.477192, -15.846926) " x="48.2836432" y="-0.353074361" width="2.38709677" height="32.4" rx="0.6"></rect>
                            <rect id="Rectangle-20" transform="translate(55.444934, 12.246926) rotate(-30.000000) translate(-55.444934, -12.246926) " x="54.2513852" y="-0.353074361" width="2.38709677" height="25.2" rx="0.6"></rect>
                            <rect id="Rectangle-20" transform="translate(61.412675, 8.646926) rotate(-30.000000) translate(-61.412675, -8.646926) " x="60.2191271" y="-0.353074361" width="2.38709677" height="18" rx="0.6"></rect>
                            <rect id="Rectangle-20" transform="translate(67.380417, 5.646926) rotate(-30.000000) translate(-67.380417, -5.646926) " x="66.186869" y="0.246925639" width="2.38709677" height="10.8" rx="0.6"></rect>
                            <rect id="Rectangle-20" transform="translate(72.751385, 2.646926) rotate(-30.000000) translate(-72.751385, -2.646926) " x="71.5578368" y="0.846925639" width="2.38709677" height="3.6" rx="0.6"></rect>
                        </g>
                    </g>
                </g>
            </g>
        </g>
    </g>
</svg>