<?xml version="1.0" encoding="UTF-8" ?>
<svg width="40px" height="40px" viewBox="0 0 128 128" version="1.1" xmlns="http://www.w3.org/2000/svg" xmlns:xlink="http://www.w3.org/1999/xlink">
    <!-- Generator: Sketch 58 (84663) - https://sketch.com -->
    <title>ball</title>
    <desc>Created with Sketch.</desc>
    <g id="Page-1" stroke="none" stroke-width="1" fill="none" fill-rule="evenodd">
        <g id="70-Computer-Game-Element-Icons" transform="translate(-1085.000000, -186.000000)">
            <g id="ball" transform="translate(1085.000000, 186.000000)">
                <path d="M125.866211,64 C125.866211,65.4296875 125.824219,66.8583985 125.696289,68.2666015 C123.478516,100.704102 96.5126953,125.879883 64,125.866217 C62.9335938,125.866217 61.8876953,125.845703 60.821289,125.78125 L60.6083985,125.78125 C44.3642578,124.90625 29.1220703,117.65332 18.1972655,105.599609 L18.133789,105.536133 C13.633789,100.568359 9.966797,94.90625 7.274414,88.767578 C6.93359375,87.9785155 6.591797,87.1679687 6.29296875,86.357422 C6.080078,85.8242187 5.866211,85.2695312 5.696289,84.7148437 C5.5253905,84.288086 5.3759765,83.8828125 5.248047,83.4560547 C5.12011725,83.029297 4.94921875,82.5810547 4.8427735,82.133789 C4.69921875,81.727539 4.578125,81.314453 4.48046875,80.8964845 C4.288086,80.2558595 4.1171875,79.616211 3.9677735,78.975586 C3.9228515,78.8291015 3.88671875,78.6796875 3.861328,78.5283202 C3.66894525,77.78125 3.4990235,77.0341797 3.3496095,76.2666015 C3.178711,75.413086 3.029297,74.5595702 2.87988275,73.7070312 C2.73046875,72.6611327 2.58105475,71.5947265 2.4746095,70.5283203 C2.3896485,69.78125 2.32519525,69.0341798 2.2822265,68.288086 L2.2822265,68.2236328 C2.21875,67.5410155 2.1972655,66.836914 2.17578125,66.133789 C2.154297,65.4296875 2.133789,64.725586 2.133789,64 L125.866211,64 Z" id="Path" fill="#728F9C"></path>
                <path d="M125.866211,64 L2.133789,64 C2.133789,62.5703125 2.17578125,61.1416015 2.303711,59.7333985 C4.43359375,28.5185547 29.553711,3.8203125 60.7998047,2.21875 C61.866211,2.154297 62.9335938,2.13378343 64,2.13378343 C96.5126953,2.12011725 123.478515,27.2958985 125.696289,59.7333985 C125.824219,61.1416015 125.866211,62.5703125 125.866211,64 Z" id="Path" fill="#D13D34"></path>
                <path d="M119.466797,64 C119.466797,65.4296875 119.423828,66.8583985 119.295898,68.2666015 C117.162109,99.470703 92.0566405,124.164062 60.821289,125.78125 L60.6083985,125.78125 C44.3642577,124.90625 29.1220702,117.65332 18.1972655,105.599609 L18.133789,105.536133 C13.633789,100.568359 9.966797,94.90625 7.274414,88.767578 C6.93359375,87.9785155 6.591797,87.1679687 6.29296875,86.357422 C6.080078,85.8242187 5.866211,85.2695312 5.696289,84.7148437 C5.5253905,84.288086 5.3759765,83.8828125 5.248047,83.4560547 C5.12011725,83.029297 4.94921875,82.5810547 4.8427735,82.133789 C4.69921875,81.727539 4.578125,81.314453 4.48046875,80.8964845 C4.288086,80.2558595 4.1171875,79.616211 3.9677735,78.975586 C3.9228515,78.8291015 3.88671875,78.6796875 3.861328,78.5283202 C3.66894525,77.78125 3.4990235,77.0341797 3.3496095,76.2666015 C3.178711,75.413086 3.029297,74.5595702 2.87988275,73.7070312 C2.73046875,72.6611327 2.58105475,71.5947265 2.4746095,70.5283203 C2.3896485,69.78125 2.32519525,69.0341798 2.2822265,68.288086 L2.2822265,68.2236328 C2.21875,67.5410155 2.1972655,66.836914 2.17578125,66.133789 C2.154297,65.4296875 2.133789,64.725586 2.133789,64 L119.466797,64 Z" id="Path" fill="#D7DEE2"></path>
                <path d="M119.466797,64 L2.133789,64 C2.133789,62.5703125 2.17578125,61.1416015 2.303711,59.7333985 C4.43359375,28.5185547 29.553711,3.8203125 60.7998047,2.21875 C92.0458985,3.8203125 117.166015,28.5185547 119.295898,59.7333985 C119.423828,61.1416015 119.466797,62.5703125 119.466797,64 Z" id="Path" fill="#F85B44"></path>
                <path d="M89.5996095,64 C89.5996095,78.138672 78.138672,89.5996095 64,89.5996095 C49.861328,89.5996095 38.4003905,78.138672 38.4003905,64 C38.4003905,49.861328 49.861328,38.4003905 64,38.4003905 C78.138672,38.4003905 89.5996095,49.861328 89.5996095,64 Z" id="Path" fill="#728F9C"></path>
                <path d="M81.0664063,64 C81.0664063,73.4257813 73.4257813,81.0664063 64,81.0664063 C54.5742188,81.0664063 46.9335938,73.4257813 46.9335938,64 C46.9335938,54.5742188 54.5742188,46.9335938 64,46.9335938 C73.4257813,46.9335938 81.0664063,54.5742188 81.0664063,64 Z" id="Path" fill="#D7DEE2"></path>
                <path d="M64,128 C28.6533203,128 0,99.3466797 0,64 C0,28.6533203 28.6533203,0 64,0 C99.3466797,0 128,28.6533203 128,64 C127.959961,99.330078 99.330078,127.959961 64,128 Z M64,4.2666015 C31.0097655,4.2666015 4.2666015,31.0097655 4.2666015,64 C4.2666015,96.9902345 31.0097655,123.733398 64,123.733398 C96.9902345,123.733398 123.733398,96.9902345 123.733398,64 C123.695312,31.0253905 96.9746095,4.3046875 64,4.2666015 Z" id="Shape" fill="#000000" fill-rule="nonzero"></path>
                <path d="M96,108.79981 C95.0820313,108.79981 94.2666015,108.212891 93.9765625,107.34082 C93.685547,106.469727 93.9853515,105.510742 94.7197265,104.959961 C99.928711,101.049805 104.345703,96.1826173 107.733399,90.6201173 C108.352539,89.626953 109.65625,89.3183595 110.654297,89.9277345 C111.65332,90.538086 111.974609,91.8378905 111.375,92.8427735 C107.708008,98.8691405 102.923828,104.140625 97.2802735,108.373047 C96.9111328,108.651367 96.461914,108.800781 96,108.79981 L96,108.79981 Z" id="Path" fill="#000000"></path>
                <path d="M36.2666015,20.5693619 C35.3095703,20.571289 34.46875,19.935547 34.209961,19.0146485 C33.9501953,18.09375 34.3359375,17.1123047 35.1533203,16.6142578 C39.3007812,14.0859375 43.763672,12.1152345 48.4267578,10.751953 C49.158203,10.538086 49.9482422,10.7314453 50.4990235,11.2578125 C51.0507812,11.7841797 51.2783203,12.5654297 51.0976562,13.305664 C50.9169923,14.0458985 50.3554688,14.633789 49.623047,14.8476562 C45.3232423,16.1035155 41.2080078,17.921875 37.3847655,20.2558595 C37.048828,20.4628905 36.6611328,20.571289 36.2666015,20.5693619 Z" id="Path" fill="#000000"></path>
                <path d="M18.4345703,38.4003905 C17.663086,38.399414 16.9521485,37.982422 16.5742188,37.310547 C16.1972655,36.6376952 16.2128905,35.8134765 16.6142578,35.1552735 C18.7373047,31.6767577 21.2353515,28.4423827 24.064453,25.5078125 C24.8876952,24.696289 26.2089845,24.6884765 27.0419922,25.4902345 C27.875,26.2929687 27.9169922,27.6132812 27.1357422,28.466797 C24.5234375,31.1767577 22.216797,34.165039 20.2558595,37.3779297 C19.868164,38.0126952 19.1777345,38.4003905 18.4345703,38.4003905 Z" id="Path" fill="#000000"></path>
                <path d="M64,91.7333985 C48.6835938,91.7333985 36.2666015,79.3164062 36.2666015,64 C36.2666015,48.6835937 48.6835938,36.2666015 64,36.2666015 C79.3164063,36.2666015 91.7333985,48.6835937 91.7333985,64 C91.7158203,79.3095703 79.3095703,91.7158203 64,91.7333985 L64,91.7333985 Z M64,40.533203 C51.040039,40.533203 40.533203,51.040039 40.533203,64 C40.533203,76.959961 51.040039,87.466797 64,87.466797 C76.959961,87.466797 87.466797,76.959961 87.466797,64 C87.451172,51.0458985 76.9541015,40.548828 64,40.533203 Z" id="Shape" fill="#000000" fill-rule="nonzero"></path>
                <path d="M64,83.2001952 C53.3964845,83.2001952 44.7998047,74.6035155 44.7998047,64 C44.7998047,53.3964845 53.3964845,44.7998047 64,44.7998047 C74.6035155,44.7998047 83.2001953,53.3964845 83.2001953,64 C83.1884765,74.5986327 74.5986328,83.1884765 64,83.2001952 Z M64,49.0664062 C55.7529297,49.0664062 49.0664062,55.7529297 49.0664062,64 C49.0664062,72.2470703 55.7529297,78.9335938 64,78.9335938 C72.2470703,78.9335938 78.9335938,72.2470703 78.9335938,64 C78.923828,55.756836 72.243164,49.076172 64,49.0664062 L64,49.0664062 Z" id="Shape" fill="#000000" fill-rule="nonzero"></path>
                <path d="M64,70.4003905 C60.4658203,70.4003905 57.5996095,67.5341798 57.5996095,64 C57.5996095,60.4658202 60.4658203,57.5996095 64,57.5996095 C67.5341797,57.5996095 70.4003905,60.4658203 70.4003905,64 C70.4003905,67.5341797 67.5341798,70.4003905 64,70.4003905 Z M64,61.866211 C62.8222655,61.866211 61.866211,62.8222655 61.866211,64 C61.866211,65.1777345 62.8222655,66.133789 64,66.133789 C65.1777345,66.133789 66.133789,65.1777345 66.133789,64 C66.133789,62.8222655 65.1777345,61.866211 64,61.866211 Z" id="Shape" fill="#000000" fill-rule="nonzero"></path>
                <path d="M125.866211,66.133789 L89.5996095,66.133789 C88.421875,66.133789 87.466797,65.1777345 87.466797,64 C87.466797,62.8222655 88.421875,61.866211 89.5996095,61.866211 L125.866211,61.866211 C127.044922,61.866211 128,62.8222655 128,64 C128,65.1777345 127.044922,66.133789 125.866211,66.133789 L125.866211,66.133789 Z" id="Path" fill="#000000"></path>
                <path d="M38.4003905,66.133789 L2.133789,66.133789 C0.955078,66.133789 0,65.1777345 0,64 C0,62.8222655 0.955078,61.866211 2.133789,61.866211 L38.4003905,61.866211 C39.578125,61.866211 40.533203,62.8222655 40.533203,64 C40.533203,65.1777345 39.578125,66.133789 38.4003905,66.133789 Z" id="Path" fill="#000000"></path>
            </g>
        </g>
    </g>
</svg>