<?xml version="1.0" encoding="UTF-8"?>
<svg width="110px" height="55px" viewBox="0 0 110 55" version="1.1" xmlns="http://www.w3.org/2000/svg" xmlns:xlink="http://www.w3.org/1999/xlink">
    <!-- Generator: Sketch 58 (84663) - https://sketch.com -->
    <title>路径</title>
    <desc>Created with Sketch.</desc>
    <g id="页面1" stroke="none" stroke-width="1" fill="none" fill-rule="evenodd" opacity="0.800000012">
        <g id="登录页-密码重置备份" transform="translate(-951.000000, -163.000000)" fill="#FFFFFF" fill-rule="nonzero">
            <g id="编组-7" transform="translate(146.000000, 162.000000)">
                <g id="data_center" transform="translate(303.450056, 0.871087)">
                    <path d="M611.549944,42.6984826 C611.546383,49.5615556 605.158699,55.1244009 597.277995,55.1275022 L567.762843,55.1275022 C567.114951,55.1289133 566.46783,55.0885113 565.826788,55.0066684 C565.053743,55.0880106 564.275736,55.128363 563.497069,55.1275022 L521.91707,55.1275022 C514.671479,55.2074313 507.936655,51.8868971 504.287106,46.4352338 C500.637557,40.9835706 500.637557,34.243686 504.287106,28.7920228 C507.936655,23.3403595 514.671479,20.0198253 521.91707,20.0997544 L530.106581,20.0997544 C531.722244,8.99951826 542.332654,0.552277963 555.172238,0.144291605 C568.011823,-0.263694753 579.300913,7.48767438 581.841186,18.4558529 L584.383871,18.4558529 C591.662446,18.4543005 597.56484,23.5907475 597.568403,29.9294425 C597.568403,30.0474662 597.568403,30.1626798 597.568403,30.2722732 C605.336425,30.4084562 611.551518,35.9321713 611.549944,42.6984826 L611.549944,42.6984826 Z" id="路径"></path>
                </g>
            </g>
        </g>
    </g>
</svg>