<?xml version="1.0" encoding="UTF-8"?>
<svg width="1370px" height="888px" viewBox="0 0 1370 888" version="1.1" xmlns="http://www.w3.org/2000/svg" xmlns:xlink="http://www.w3.org/1999/xlink">
    <!-- Generator: Sketch 58 (84663) - https://sketch.com -->
    <title>Hero Image</title>
    <desc>Created with Sketch.</desc>
    <g id="Samples" stroke="none" stroke-width="1" fill="none" fill-rule="evenodd">
        <g id="Intro" transform="translate(-70.000000, 0.000000)">
            <g id="Hero-Image" transform="translate(837.386451, 400.053889) rotate(-9.000000) translate(-837.386451, -400.053889) translate(30.886451, -213.946111)">
                <g id="Head/Front/Airy" transform="translate(196.379664, 715.485453)">
                    <g id="Head" stroke-width="1" transform="translate(51.220588, 29.211538)" fill="#B28B67">
                        <path d="M36.1800812,8.60697525 C41.6766296,18.7849554 41.0234967,44.6022461 33.9196976,46.421335 C31.0867887,47.1467656 25.0519365,45.3698185 18.909783,41.6920471 L22.7647059,68.7884615 L0,68.7884615 L7.83665718,32.4999006 C3.46611297,27.4032683 0.508078649,21.1573306 1.00238343,14.1586008 C2.42665146,-6.00723093 30.6835327,-1.57100489 36.1800812,8.60697525 Z"></path>
                    </g>
                    <path d="M74.4253644,26.0880304 C71.425042,25.5992376 63.3465419,25.2631789 61.8567221,25.2633959 C60.904657,25.2633959 59.8729084,25.4794801 59.309028,24.6110212 C58.8472558,23.8998526 59.0164199,22.6970707 58.8786067,21.8717853 C58.7185866,20.9130745 58.4912927,19.9667298 58.2613863,19.0227717 C57.6071545,16.3366891 56.6178602,13.7812115 55.2336319,11.3819394 C52.636299,6.88061937 48.8313042,3.35471554 44.0276533,1.30300052 C38.7230416,-0.96241222 32.7204375,-1.48114444 27.0145782,-1.02164011 C20.9085597,-0.530026892 15.3812262,1.47244003 9.61614852,3.35688506 C4.122343,5.15259673 -1.63184896,5.85942633 -7.37776777,4.98250636 C-13.1670117,4.09907784 -17.5413297,0.981911565 -22.4244463,-1.9766628 C-27.423387,-5.00552961 -33.1362132,-6.98651828 -39.0458533,-6.53113604 C-44.5623011,-6.10591013 -49.6465858,-3.84310082 -54.2081382,-0.820308663 C-58.4759938,2.00787755 -61.9975245,5.41055265 -63.9856925,10.199551 C-66.1245189,15.3510761 -66.1225595,21.005713 -62.6053831,25.5584506 C-57.5073824,32.1576964 -48.0431191,33.8642408 -40.1692596,33.6945843 C-35.6148918,33.596739 -31.1419492,32.7708027 -26.8420895,31.2684102 C-21.1077096,29.2646415 -16.1523118,25.868475 -10.7876109,23.1129677 C-8.26996144,21.8199338 -5.66762105,20.7579538 -2.93987716,19.992981 C-0.292905313,19.2503544 2.31422479,18.9097397 4.71082506,20.4982622 C7.24610941,22.1787724 9.51795932,23.8295601 12.4183507,24.8815604 C15.2007409,25.890821 18.147941,26.4553301 21.1123404,26.4325502 C26.8800307,26.388292 32.5656426,24.602994 38.1674345,23.4071546 C42.7355183,22.4321723 47.6232069,21.4604443 52.2803359,22.397677 C54.2236548,22.7888414 57.0622153,23.5963367 57.7641266,25.6027088 C45.9507248,27.7297062 41.3110237,42.2437947 44.6414011,52.8985241 C46.4388513,58.6492707 57.2435714,65.3718326 61.4445887,62.3485783 C64.1060541,60.4332597 62.4902711,57.9187933 61.4445887,56.2588936 C59.4420516,53.0801129 58.7569043,48.9968594 62.4624036,46.7837321 C65.6586689,44.8749885 69.0193217,49.4077481 69.0828943,49.4027582 C69.961372,49.3339844 77.5521823,45.0692065 82.7821125,38.8458139 C87.941458,39.1496483 88.7242054,35.7700231 87.4922547,33.0061248 C86.260304,30.2422266 78.5708645,26.7638359 74.4253644,26.0880304 Z" id="hair" fill="#191847"></path>
                </g>
                <g id="Bottom/Standing/Sprint" transform="translate(120.273968, 888.325707)">
                    <path d="M196.323231,-9.18462833 C178.239776,5.5613362 185.190265,134.936204 183.983583,136.564352 C183.447281,137.287973 154.780309,143.432663 97.9826683,154.998421 L100.439808,165.0127 C166.883985,161.748682 202.04111,157.650738 205.911183,152.718867 C211.452018,145.65784 218.283999,106.155241 226.407125,34.2110706 L196.323231,-9.18462833 Z" id="Leg" fill="#B28B67" transform="translate(162.194897, 77.914036) rotate(-55.000000) translate(-162.194897, -77.914036) "></path>
                    <path d="M107.564662,144.46441 L111.89185,160.593325 C161.425175,166.308908 194.073593,159.283629 205.560895,148.352771 C213.219096,141.065533 220.068781,101.670313 226.109948,30.1671127 L193.927681,-15.7939271 C150.87982,16.6856033 176.605514,123.097553 175.506258,125.531499 C174.407001,127.965445 148.286992,129.876737 107.564662,144.46441 Z" id="Pant" fill="#2F3676" transform="translate(166.837305, 73.417987) rotate(-55.000000) translate(-166.837305, -73.417987) "></path>
                    <g id="Accessories/Shoe/Flat-Sneaker" transform="translate(211.470106, 177.092391) rotate(20.000000) translate(-211.470106, -177.092391) translate(182.596773, 158.180257)" fill="#E4E4E4">
                        <path d="M2.50800092,24.2346094 C1.46988009,27.0203119 0.950819672,29.1089045 0.950819672,30.5003873 C0.950819672,32.2135092 1.23645941,34.7133801 1.80773888,38 C3.79679521,38 21.6727794,38 55.4356915,38 C56.8292918,33.3967819 56.0248249,30.9116526 53.0222906,30.544612 C50.0197563,30.1775714 47.5255,29.8461632 45.5395218,29.5503873 L20.6595211,18.4683207 C20.1550199,18.2436054 19.5638731,18.4704167 19.3391578,18.974918 C19.3353983,18.9833584 19.3317559,18.9918505 19.3282318,19.0003919 L17.7453502,22.8367603 L17.7453502,22.8367603 C14.9657887,24.1325195 12.7071064,24.7803992 10.9693034,24.7803992 C9.5745413,24.7803992 7.65482233,24.2244261 5.21014647,23.11248 L5.21014351,23.1124865 C4.20469716,22.6551653 3.01888975,23.0995085 2.56156853,24.1049549 C2.54220197,24.1475333 2.52433511,24.1907781 2.50800092,24.2346094 Z" id="shoe"></path>
                    </g>
                    <polygon id="Leg" fill="#997659" points="123.066667 0 74.080489 117.469797 25.9347007 216.780609 37.2938504 216.780609 161.571091 0"></polygon>
                    <g id="Accessories/Shoe/Flat-Sneaker" transform="translate(22.720000, 188.175732)" fill="#E4E4E4">
                        <path d="M2.50800092,24.2346094 C1.46988009,27.0203119 0.950819672,29.1089045 0.950819672,30.5003873 C0.950819672,32.2135092 1.23645941,34.7133801 1.80773888,38 C3.79679521,38 21.6727794,38 55.4356915,38 C56.8292918,33.3967819 56.0248249,30.9116526 53.0222906,30.544612 C50.0197563,30.1775714 47.5255,29.8461632 45.5395218,29.5503873 L20.6595211,18.4683207 C20.1550199,18.2436054 19.5638731,18.4704167 19.3391578,18.974918 C19.3353983,18.9833584 19.3317559,18.9918505 19.3282318,19.0003919 L17.7453502,22.8367603 L17.7453502,22.8367603 C14.9657887,24.1325195 12.7071064,24.7803992 10.9693034,24.7803992 C9.5745413,24.7803992 7.65482233,24.2244261 5.21014647,23.11248 L5.21014351,23.1124865 C4.20469716,22.6551653 3.01888975,23.0995085 2.56156853,24.1049549 C2.54220197,24.1475333 2.52433511,24.1907781 2.50800092,24.2346094 Z" id="shoe"></path>
                    </g>
                    <path d="M30.2824929,196.149929 L55.5226493,200.877962 C75.0382675,172.218501 156.711926,54.7050863 165.666667,2.84217094e-14 L109.476389,2.84217094e-14 C79.5719536,39.5462384 48.8849074,167.016385 30.2824929,196.149929 Z" id="Pant" fill="#5C63AB"></path>
                </g>
                <g id="Body/Jacket-2" transform="translate(139.374347, 791.147272)">
                    <path d="M48.6914236,77.6149733 L68.0625,81.463393 C48.5815779,117.814852 38.1343093,137.081147 36.7206942,139.262277 C33.5400603,144.169819 36.5076561,153.16391 37.6038736,157.90026 C30.7268198,159.503143 33.4389186,149.139069 24.7361399,151.302993 C16.7926471,153.278123 10.057523,158.34701 2.6505413,151.510807 C1.73989643,150.670336 1.07326132,148.043262 4.17811099,146.695848 C11.9134238,143.338949 23.341697,137.053223 25.1947925,134.612851 C27.7218192,131.284967 35.5540296,112.285675 48.6914236,77.6149733 Z M240.287252,48.5142503 C237.241519,52.9685638 234.237935,57.7909866 235.45493,59.3520719 C236.671925,60.9131573 240.197294,59.1901441 241.59006,61.7287751 C242.518571,63.4211957 236.576067,65.4456842 223.762551,67.8022407 L198.109084,87.4960094 L187.171875,73.4664412 L221.424864,58.4044855 C227.425189,52.417577 233.219358,47.8672497 238.807371,44.7535036 C240.478293,44.2208559 243.332986,44.0599367 240.287252,48.5142503 Z" id="Skin" fill="#B28B67"></path>
                    <path d="M116.533027,9.34358663 L124.553801,7.23264299 C143.797506,22.9081854 154.656438,63.6631023 166.955854,68.1073875 C178.584453,72.3092794 193.987956,65.9110389 212.226597,57.4957332 L219.122101,69.8923531 C203.634072,89.9233151 168.55413,108.770694 152.997377,101.124212 C128.125363,88.8990776 118.206213,38.3300591 116.533027,9.34358663 Z" id="Coat-Back" fill="#DB2721" transform="translate(167.827564, 55.048617) rotate(5.000000) translate(-167.827564, -55.048617) "></path>
                    <path d="M85.078125,107.903743 C117.853769,107.903743 141.962846,107.903743 157.405356,107.903743 C160.710341,107.903743 160.08758,103.125346 159.609824,100.714141 C154.095946,72.8859178 132.571858,42.8884398 132.571858,3.27566451 L111.70928,0 C94.4532475,27.7884385 88.4858124,62.0016328 85.078125,107.903743 Z" id="Shirt" fill="#DDE3E9"></path>
                    <path d="M114.128961,-9.9475983e-14 L118.623861,0 C137.352888,63.9253463 142.516149,106.518929 134.113645,127.780749 L134.113645,127.780749 L69.0078125,127.780749 C70.0378619,112.223003 73.3406206,95.7701095 77.8643509,79.7282357 C63.1198587,106.358799 50.7263769,125.531262 40.6838349,137.245989 L25.5234375,134.272787 C35.2890759,73.6307432 63.5690615,28.8731476 110.363394,-9.9475983e-14 L114.128961,-9.9475983e-14 Z" id="Coat-Front" fill="#FF4133"></path>
                </g>
                <g transform="translate(793.100451, 237.509302) rotate(-160.000000) translate(-793.100451, -237.509302) translate(650.600451, 37.009302)">
                    <g id="Head/Front/Wavy" transform="translate(69.486009, 0.269915)">
                        <g id="Head" stroke-width="1" transform="translate(51.220588, 29.211538)" fill="#B28B67">
                            <path d="M36.1800812,8.60697525 C41.6766296,18.7849554 41.0234967,44.6022461 33.9196976,46.421335 C31.0867887,47.1467656 25.0519365,45.3698185 18.909783,41.6920471 L22.7647059,68.7884615 L0,68.7884615 L7.83665718,32.4999006 C3.46611297,27.4032683 0.508078649,21.1573306 1.00238343,14.1586008 C2.42665146,-6.00723093 30.6835327,-1.57100489 36.1800812,8.60697525 Z"></path>
                        </g>
                        <path d="M89.5498044,42.3884232 C89.3243089,41.0691455 88.7732122,39.604102 88.3285422,38.3559414 C87.7552487,36.7468979 86.8876645,35.296142 85.9329102,33.9288643 C84.1354146,31.3546836 81.9790959,29.030135 79.5983108,27.1008239 C75.2495119,23.5767569 69.7137015,21.5440612 64.269912,22.2041816 C61.521337,22.5374525 58.8531701,23.5790044 56.5821928,25.3126232 C54.53039,26.8789644 52.5567903,29.1847304 49.8999423,29.3504026 C47.0090729,29.530523 44.3591339,26.9956734 42.0406761,25.4301349 C39.4266046,23.6652118 36.64569,22.3791649 33.5904765,21.8792585 C28.4722883,21.0420678 23.6641196,22.7599542 20.1367475,26.9316199 C16.3831449,31.3708977 13.6545617,37.8810785 16.1195769,43.7630855 C16.5777707,44.8564902 17.167234,45.7782829 18.0132095,46.5422695 C18.7890667,47.2428448 19.9740203,47.9882094 20.2885968,49.1076208 C20.622724,50.2975071 19.6246053,51.832544 19.2375586,52.9062029 C18.6830809,54.4444504 18.227827,56.0591127 18.3896722,57.731086 C18.6555922,60.4768788 20.3925246,63.0980962 22.2266229,64.9028321 C24.0930608,66.7393539 26.3902038,67.7924643 28.8437531,68.2779225 C30.4820496,68.6020429 32.1563607,68.7808791 33.8214109,68.6591935 C34.6479826,68.5988322 35.3773883,68.3707118 36.1782353,68.1893071 C36.9570325,68.012879 37.3922946,68.218364 38.0530521,68.6426583 C41.1225244,70.6140297 44.4229311,71.376732 47.9672081,71.0835949 C50.9584773,70.8360497 54.4061764,70.1158892 56.8463488,68.0798222 C59.5562632,65.8185244 59.5023148,62.7002902 58.864636,59.3687048 C59.5402404,59.7013336 61.4093243,59.9073001 60.2924309,58.5814405 C59.8499659,58.0563302 59.0139863,57.8426579 58.4462787,57.5337883 C57.7852272,57.1741897 57.1140328,56.7094405 56.6007146,56.1228451 C54.528038,53.7543099 56.6214413,48.9340823 59.2265459,48.1397545 C63.0970122,46.9596608 63.9635674,52.3974671 66.7265482,53.8040758 C68.3151593,54.6128518 69.9769755,53.5074069 71.167221,52.3786845 C72.761565,50.8666041 73.8481768,48.8634469 74.7863202,46.8249719 C75.5590904,45.1462561 76.2782063,43.4439416 77.0658234,41.7735737 C77.4336133,40.9935335 78.7069129,38.788423 78.0674701,37.9064431 C80.8397118,37.3572524 83.9274119,38.5017073 86.3149589,40.0025502 C87.3017588,40.6230184 88.0540963,41.3070586 88.5804973,42.4023897 C88.6932451,42.6370921 88.9387323,43.3347777 89.2469878,43.363353 C89.8208693,43.4166507 89.6063988,42.7199282 89.5498044,42.3884232" id="hair" fill="#191847"></path>
                    </g>
                    <g id="Bottom/Standing/Skinny-Jeans-Walk" transform="translate(0.273968, 174.325707)">
                        <polygon id="Leg" fill="#1F28CF" points="121.173333 0 166.690619 120.306617 198.594885 208.979079 216.786667 208.979079 172.931091 9.28053543e-14"></polygon>
                        <path d="M109.923741,0 C109.428966,41.2796932 109.786668,96.8560999 108.633854,99.4292659 C107.86531,101.14471 83.9606926,120.689962 36.92,158.065021 L46.2967147,173.991632 C102.144842,138.016779 131.496544,117.632848 134.351821,112.83984 C138.634736,105.650329 160.151765,39.4915019 171.346667,0 L109.923741,0 Z" id="Leg" fill="#2B44FF"></path>
                        <g id="Accessories/Shoe/Flat-Pointy" transform="translate(53.486667, 178.719665) rotate(50.000000) translate(-53.486667, -178.719665) translate(24.613333, 159.807531)" fill="#191847">
                            <path d="M0,38 L0.950819672,18.05 L20.9180328,18.05 C30.3859179,24.7 42.7465736,30.0833333 58,34.2 L58,38 L21.8688525,38 L9.50819672,36.1 L9.50819672,38 L0,38 Z" id="Shoe"></path>
                        </g>
                        <g id="Accessories/Shoe/Flat-Pointy" transform="translate(196.906667, 188.175732)" fill="#191847">
                            <path d="M0,38 L0.950819672,18.05 L20.9180328,18.05 C30.3859179,24.7 42.7465736,30.0833333 58,34.2 L58,38 L21.8688525,38 L9.50819672,36.1 L9.50819672,38 L0,38 Z" id="Shoe"></path>
                        </g>
                    </g>
                    <g id="Body/Trench-Coat" transform="translate(19.374347, 77.147272)">
                        <path d="M51.4011852,66.6752717 L67.798464,70.8489785 C45.8486635,107.797736 34.110682,127.324734 32.5845193,129.429973 C29.1506534,134.16676 31.6446869,143.30902 32.492025,148.098942 C25.5385413,149.340023 28.7897401,139.126626 19.9831541,140.832587 C11.9449107,142.389708 4.95193996,147.101386 -2.08955689,139.882536 C-2.95526756,138.99502 -3.48379566,136.33516 -0.311818988,135.151605 C7.59073166,132.202936 19.3354414,126.521426 21.3141695,124.180195 C24.0125187,120.987508 34.041524,101.8192 51.4011852,66.6752717 L51.4011852,66.6752717 Z M186.881641,85.4183436 L215.417431,109.641457 C223.42191,112.416938 230.046479,115.636645 235.291136,119.300578 C236.501748,120.57082 237.897611,123.069347 232.564064,122.280994 C227.230516,121.492641 221.585014,120.903588 220.717212,122.683153 C219.849409,124.462718 222.941481,126.88004 221.273244,129.246317 C220.161085,130.823835 215.738794,126.36338 208.00637,115.864953 L179.082646,101.411399 L186.881641,85.4183436 Z" id="Skin" fill="#B28B67" transform="translate(116.827627, 107.439565) rotate(-4.000000) translate(-116.827627, -107.439565) "></path>
                        <path d="M130.702841,1.93227613 C144.796181,31.1015257 163.86952,59.0858641 192.202531,82.9902275 C196.082219,82.7105454 200.301768,83.3541102 204.825657,84.8803328 C207.052043,85.6314479 208.248766,88.0475032 207.498613,90.2767432 C207.063079,91.5710248 206.067031,92.5177739 204.872415,92.9372514 C205.737229,93.5703018 206.610493,94.1991083 207.491517,94.8243622 L199.884421,110.373815 C167.873368,94.3926128 137.78604,82.3436565 124.075911,55.9599772 C119.474438,47.1049323 121.031906,17.0263209 120.592697,6.08384841 L130.702841,1.93227613 Z" id="Back-Arm" fill="#69A1AC"></path>
                        <path d="M85.078125,107.818315 C114.797168,111.0873 138.189314,111.0873 155.254565,107.818315 C157.368835,107.41331 157.275987,98.2874384 156.295497,95.795077 C141.026713,56.9825227 130.982785,28.5699131 130.982785,1.61158721 C128.181156,3.07689412 123.27804,3.29648867 116.273437,2.27037088 C97.448675,30.0517925 88.7956021,61.9277952 85.078125,107.818315 Z" id="Shirt" fill="#191847"></path>
                        <path d="M119.438745,-1.0658141e-14 C116.273438,41.9127864 159.993802,133.417205 144.812983,211.565272 C116.753521,217.839474 76.6950091,198.31834 37.7017216,213.914439 C39.1526797,182.443007 68.2174016,145.47117 79.5565571,112.405955 C78.5462231,111.45758 78.0201572,110.034091 78.2784477,108.567375 L78.7726801,105.760852 C79.1059208,103.868527 80.6426547,102.490379 82.4572133,102.274869 L82.6608236,101.33762 C82.893004,100.233801 83.0980864,99.1358766 83.2742203,98.0442295 C85.1825352,86.2168238 81.922287,74.6196594 82.0751345,63.2311778 C67.1070086,76.0167359 53.655561,97.9548084 41.7211481,129.043729 L41.1664203,130.498258 L23.3125049,125.23789 C23.993885,122.703243 24.6996803,120.199733 25.4298909,117.727361 C23.3698251,116.559346 20.9603519,111.184585 22.6937429,110.28535 C24.4833939,109.356929 26.3793096,108.703454 28.3759062,108.318803 C44.5828421,59.4426412 70.9827565,23.5659881 107.575938,0.68925517 L108.687942,-4.36983782e-13 L119.438745,-1.0658141e-14 Z" id="Coat-Front" fill="#89C5CC"></path>
                        <polygon id="Shade-Lapel" fill-opacity="0.1" fill="#000000" points="112.592163 0.946524064 107.715149 15.9635497 117.536372 27.2211268 108.660461 36.0677789 130.133847 72.8823529 103.874328 36.1413289 112.592163 27.2211268 103.874328 17.2726049"></polygon>
                        <path d="M129.507812,123.048128 C131.596139,123.048128 133.289062,124.743221 133.289062,126.834225 C133.289062,128.925228 131.596139,130.620321 129.507812,130.620321 C127.419486,130.620321 125.726562,128.925228 125.726562,126.834225 C125.726562,124.743221 127.419486,123.048128 129.507812,123.048128 Z M128.5625,101.278075 C130.650827,101.278075 132.34375,102.973168 132.34375,105.064171 C132.34375,107.155174 130.650827,108.850267 128.5625,108.850267 C126.474173,108.850267 124.78125,107.155174 124.78125,105.064171 C124.78125,102.973168 126.474173,101.278075 128.5625,101.278075 Z M123.835938,79.5080214 C125.924264,79.5080214 127.617188,81.2031144 127.617188,83.2941176 C127.617188,85.3851209 125.924264,87.0802139 123.835938,87.0802139 C121.747611,87.0802139 120.054688,85.3851209 120.054688,83.2941176 C120.054688,81.2031144 121.747611,79.5080214 123.835938,79.5080214 Z" id="Buttons" fill-opacity="0.4" fill="#000000"></path>
                    </g>
                </g>
                <g transform="translate(818.971646, 153.368165)">
                    <g id="Head/Front/Rad" transform="translate(541.543529, 199.708682) rotate(32.000000) translate(-541.543529, -199.708682) translate(372.467176, 70.430904)">
                        <g id="Head" stroke-width="1" transform="translate(134.205882, 77.201923)" fill="#915B3C">
                            <path d="M94.797422,22.747006 C109.199231,49.6459535 107.487922,117.877365 88.8748667,122.684957 C81.4521034,124.602193 65.6395208,119.905819 49.5458962,110.185722 L59.6470588,181.798077 L0,181.798077 L20.532858,85.8921253 C9.08157341,72.42254 1.33125987,55.9155876 2.62640001,37.4191592 C6.35820305,-15.8762532 80.3956129,-4.15194148 94.797422,22.747006 Z"></path>
                        </g>
                        <path d="M237.113507,96.8801978 C239.040052,94.9671248 240.090936,92.2365353 240.999995,89.6437267 C241.944052,86.9503082 242.861345,84.2291354 243.488125,81.4256904 C244.740539,75.8242524 244.752434,69.3824995 240.764609,65.0329843 C237.566435,61.5450954 232.767686,59.9806874 228.338829,59.6406957 C225.388163,59.4139519 222.357663,59.8280381 219.529151,60.7597938 C216.722828,61.6841154 214.303781,63.5263154 211.58324,64.6696987 C211.479386,58.6333587 210.447488,52.3172441 207.391369,47.1630984 C204.450539,42.2039771 199.76182,39.4211002 194.422074,38.6848644 C188.941417,37.9292997 183.529386,39.2144288 178.622895,41.8731542 C177.3945,42.5390126 176.177542,43.2365904 175.012968,44.0261047 C174.0378,44.6872548 173.023974,45.48346 171.879759,45.752331 C170.604241,46.0524257 169.971972,45.3142075 169.142976,44.3817083 C168.171011,43.2883822 167.075978,42.3254027 165.917123,41.4717062 C160.793089,37.6975998 154.070083,36.14583 148.133753,38.4080636 C145.398572,39.4503414 142.738878,41.2204296 140.883246,43.6595976 C139.229144,45.8338596 138.049244,49.2828427 135.766304,50.7976893 C134.797542,51.4407494 134.113346,50.5887876 133.23128,49.9591091 C131.906352,49.0129805 130.642728,47.968968 129.301787,47.0486114 C127.418247,45.7555525 125.378928,44.7883602 123.195037,44.2820898 C119.998007,43.5408979 115.5799,43.7146109 114.665809,47.9104855 C114.322682,49.4865404 114.585746,51.1721262 114.696691,52.7600759 C114.848811,54.9405331 115.007564,57.1202468 115.196513,59.2974825 C115.33994,60.9506055 115.52134,62.5472285 115.832671,64.1706146 C115.998744,65.035958 116.518468,66.6491841 116.148119,67.5157665 C115.685355,68.5989325 113.549502,67.9831312 112.637012,68.0207979 C110.834679,68.0953879 109.024798,68.4120858 107.358343,69.183758 C106.066812,69.781965 104.708943,70.6616812 104.163829,72.1450562 C103.828708,73.0562439 103.917006,73.9922124 104.075302,74.9296677 C104.265166,76.0547132 104.04808,76.6514334 103.906254,77.786639 C101.485606,76.5922075 93.0972892,73.9384382 92.0418298,78.2854753 C91.6904675,79.7329182 92.4906402,81.3684469 93.1011779,82.5891461 C94.1719636,84.7302019 95.5758115,86.6871368 97.0109984,88.5533742 C100.004669,92.446676 103.578682,95.8047138 107.423995,98.6765535 C102.918734,100.683546 101.742723,106.603416 105.643393,110.130459 C107.365663,111.68768 109.681314,112.034363 111.853767,111.934744 C112.648908,111.898316 113.795181,111.592026 114.420817,111.730799 C114.757539,111.805389 115.118051,112.091358 115.584475,112.123326 C118.650432,112.333714 122.111442,111.593513 125.108544,110.911795 C130.448976,109.697043 135.504841,107.161726 139.633577,103.300391 C140.692696,102.309905 141.567671,101.739701 142.99325,101.754321 C144.242462,101.766959 145.468112,102.110173 146.71618,102.141892 C150.018437,102.226394 152.995866,100.608708 156.06228,99.5319846 C156.250085,103.683006 157.429756,108.254804 159.124347,111.989262 C160.506235,115.034567 163.391935,115.477151 166.227538,115.744287 C175.295247,116.599222 184.394982,115.645164 193.474128,115.657802 C184.685267,117.648439 175.603376,118.468929 166.892519,120.811452 C162.95502,121.870085 165.961729,124.529306 167.64534,126.372746 C170.417579,129.408386 172.478859,133.169606 173.908556,137.132046 C178.20794,131.516236 185.807293,127.815976 192.539907,129.541211 C199.978905,131.447097 205.217086,141.527654 200.460199,148.774781 C197.698482,152.981807 192.711242,154.605936 188.561461,156.413443 C191.798752,159.786102 192.581769,164.767278 194.530274,168.963153 C195.491259,171.032344 196.840206,173.371894 198.989326,174.093013 C199.784467,174.359902 200.716858,174.3827 201.344094,175.032203 C202.121163,175.836338 202.306223,176.735383 203.298547,177.426518 C207.258235,180.18511 213.443447,179.972491 216.953181,176.372593 C220.127108,173.1169 219.301315,167.964984 216.650543,164.66419 C220.870092,162.901784 228.557515,160.63509 226.880538,154.047874 C236.023735,153.439507 258.223152,138.580481 245.951549,127.722552 C252.686222,123.908549 258.873492,114.587522 254.547573,106.370973 C251.216494,100.043955 243.469596,97.215729 237.113507,96.8801978" id="hair" fill="#191847" transform="translate(173.970588, 108.331731) scale(-1, 1) translate(-173.970588, -108.331731) "></path>
                    </g>
                    <g id="Bottom/Standing/Skirt" transform="translate(0.000000, 480.000000)">
                        <path d="M242.220792,243.783749 C301.874304,260.460113 353.341551,268.798295 396.622534,268.798295 C439.903516,268.798295 480.104894,255.957643 517.226667,230.276337 C458.850279,213.159567 410.774723,204.601182 373,204.601182 C335.225277,204.601182 291.632207,217.662038 242.220792,243.783749 Z" id="Skirt-Shadow" fill="#1F28CF"></path>
                        <path d="M448.263531,292.835357 C447.688329,291.971094 447.202569,291.03095 446.817275,290.012551 C438.843543,268.936578 311.123987,41.5688994 298.4,0 L442.194204,0 C451.868431,31.6054212 495.411184,229.944507 501.539083,269.516078 C520.873732,331.935946 560.68184,534.09111 565.763672,548.095802 C571.109674,562.8285 541.029498,578.176162 533.013839,560.064137 C520.259572,531.244846 489.869973,451.502387 476.338743,402.812197 C463.653244,357.165249 453.323861,316.098718 448.263531,292.835357 Z" id="Leg" fill="#784931"></path>
                        <path d="M330.619894,320.594961 C272.228613,335.345245 58.6456181,362.011148 43.9886176,366.193627 C28.9111369,370.496093 15.6910714,339.434413 34.3276518,332.705926 C63.9815979,321.999768 145.691642,297.262732 195.232737,287.168036 C235.080593,279.048474 271.442252,272.422922 295.854511,268.543072 C293.786361,200.005119 284.332319,35.5245441 290.528923,1.42108547e-14 L417.76,1.42108547e-14 C411.817874,34.0656491 361.586479,282.628963 352.250258,307.509448 C349.287399,316.391948 340.446845,320.317357 330.619894,320.594961 L330.619894,320.594961 Z" id="Leg" fill="#915B3C"></path>
                        <g id="Accessories/Shoe/Flat-Sneaker" transform="translate(60.923333, 390.200837) rotate(80.000000) translate(-60.923333, -390.200837) translate(-14.920000, 340.493724)" fill="#E4E4E4">
                            <path d="M7.85853682,59.8245418 C4.28071446,68.7586119 2.49180328,75.3042763 2.49180328,79.4615353 C2.49180328,83.9246687 3.24037638,90.4374902 4.73752258,99 C9.95022193,99 56.7976288,99 145.279743,99 C148.931937,87.0074054 146.823679,80.5329896 138.954968,79.5767523 C131.086258,78.6205151 124.549586,77.7571094 119.344954,76.9865353 L52.61701,47.4394862 C52.1120179,47.2158764 51.5213693,47.4439818 51.2977594,47.9489739 C51.2945954,47.9561192 51.2915154,47.9633014 51.2885198,47.9705189 L46.5050556,59.4957702 L46.5050556,59.4957702 C39.2206876,62.8715641 33.3013824,64.559461 28.7471399,64.559461 C24.5286422,64.559461 18.4777312,62.6302065 10.5944069,58.7716975 L10.5943979,58.771716 C9.60230069,58.286132 8.40440345,58.6967421 7.91881948,59.6888393 C7.89705239,59.7333117 7.87694431,59.778577 7.85853682,59.8245418 Z" id="shoe"></path>
                        </g>
                        <g id="Accessories/Shoe/Flat-Sneaker" transform="translate(517.226667, 494.585774)" fill="#E4E4E4">
                            <path d="M7.85853682,59.8245418 C4.28071446,68.7586119 2.49180328,75.3042763 2.49180328,79.4615353 C2.49180328,83.9246687 3.24037638,90.4374902 4.73752258,99 C9.95022193,99 56.7976288,99 145.279743,99 C148.931937,87.0074054 146.823679,80.5329896 138.954968,79.5767523 C131.086258,78.6205151 124.549586,77.7571094 119.344954,76.9865353 L52.61701,47.4394862 C52.1120179,47.2158764 51.5213693,47.4439818 51.2977594,47.9489739 C51.2945954,47.9561192 51.2915154,47.9633014 51.2885198,47.9705189 L46.5050556,59.4957702 L46.5050556,59.4957702 C39.2206876,62.8715641 33.3013824,64.559461 28.7471399,64.559461 C24.5286422,64.559461 18.4777312,62.6302065 10.5944069,58.7716975 L10.5943979,58.771716 C9.60230069,58.286132 8.40440345,58.6967421 7.91881948,59.6888393 C7.89705239,59.7333117 7.87694431,59.778577 7.85853682,59.8245418 Z" id="shoe"></path>
                        </g>
                        <path d="M290.94,1.0658141e-14 C347.006474,-16.0323808 400.055363,-16.0323808 450.086667,1.0658141e-14 C467.493333,79.375967 509.788897,110.88035 517.226667,232.576912 C432.68,274.564009 328.24,202.632182 241.206667,243.578053 C216.34,186.305011 251.153333,48.37625 290.94,1.0658141e-14 Z" id="Skirt" fill="#2B44FF"></path>
                    </g>
                    <g id="Body/Jacket" transform="translate(413.194812, 484.141179) rotate(21.000000) translate(-413.194812, -484.141179) translate(95.423914, 251.997212)">
                        <path d="M169.702509,230.808715 L221.619466,231.012626 C189.563141,334.367181 172.257488,389.206461 169.702509,395.530465 C163.953805,409.759474 176.118835,431.430008 181.321084,443.075591 C164.377531,450.647892 166.182885,422.604572 144.809049,432.536066 C125.300002,441.601074 110.459519,458.02626 87.9196344,444.135767 C85.148488,442.428012 82.1117631,435.998008 89.4488744,430.9733 C107.728294,418.454919 134.070046,396.545497 137.629232,389.333842 C142.482817,379.499461 153.173909,326.657752 169.702509,230.808715 L169.702509,230.808715 Z M482.07908,221.13821 L552.456217,289.708535 C572.93337,298.432258 589.71148,308.06501 602.790547,318.606791 C605.731833,322.150242 608.933902,328.939678 595.095296,325.901503 C581.25669,322.863327 566.563745,320.289222 563.962805,324.784038 C561.361865,329.278854 569.025748,336.166509 564.218888,342.049066 C561.014314,345.970771 550.23708,333.496596 531.887187,304.626539 L458.704272,261.533393 L482.07908,221.13821 Z" id="Skin" fill="#915B3C"></path>
                        <path d="M303.158759,22.9188684 L324.23896,17.3803717 C369.127143,106.085161 440.763313,183.985738 539.147468,251.082102 L477.135253,341.333752 C375.97578,242.391913 309.733878,136.975377 303.158759,22.9188684 Z" id="Coat-Back" fill="#191847" transform="translate(421.153113, 179.357062) rotate(5.000000) translate(-421.153113, -179.357062) "></path>
                        <path d="M223.59375,282.86631 L414.890625,282.86631 C370.571535,175.241006 348.41199,83.8145868 348.41199,8.58705272 L290.707173,0 C245.356609,72.8465282 232.54949,162.535354 223.59375,282.86631 Z" id="Shirt" fill="#DDE3E9"></path>
                        <path d="M293.274884,-4.26325641e-14 C297.782107,0.155013556 304.647185,0.434301255 313.87012,0.837863099 L313.87012,0.837863099 L327.813674,40.635681 C329.288593,89.1585252 337.901895,186.945149 353.653581,333.995552 L353.653581,333.995552 L228.254603,333.994409 C228.583332,344.150948 229.125371,354.402366 229.880721,364.748663 L229.880721,364.748663 L136.640625,364.748663 C150.587699,207.594005 201.520668,86.0111175 289.439532,1.42108547e-14 L289.439532,1.42108547e-14 L289.484625,0.041 L289.508151,-4.26325641e-14 Z" id="Coat-Front" fill="#2F3676"></path>
                        <path d="M263.34375,334.973262 L228.286891,334.971952 C226.752304,289.426085 229.502204,245.785933 236.53659,204.051494 C240.107729,267.357828 249.042813,310.997579 263.34375,334.973262 Z" id="Shade" fill-opacity="0.1" fill="#000000"></path>
                        <polygon id="Light" fill-opacity="0.2" fill="#FFFFFF" points="256.16614 258.053476 318 229.34322 318 258.053476"></polygon>
                    </g>
                </g>
                <g transform="translate(230.542587, 303.453611) rotate(-17.000000) translate(-230.542587, -303.453611) translate(59.542587, 76.453611)">
                    <g id="Head/Front/Short-2" transform="translate(118.428492, 76.051940) scale(-1, 1) rotate(17.000000) translate(-118.428492, -76.051940) translate(44.928492, 19.551940)">
                        <g id="Head" stroke-width="1" transform="translate(58.367647, 33.682692)" fill="#B28B67">
                            <path d="M41.2284646,9.92436942 C47.4919732,21.6602037 46.7477056,51.4291205 38.6526787,53.5266414 C35.4243635,54.3631375 28.5470588,52.3140305 21.547599,48.0730234 L25.9411765,79.3173077 L0,79.3173077 L8.92989547,37.4740816 C3.9496444,31.5974062 0.578982723,24.3955632 1.14225089,16.3257336 C2.76525399,-6.92670505 34.9649559,-1.81146482 41.2284646,9.92436942 Z"></path>
                        </g>
                        <path d="M65.3048995,76.3918247 C62.0490265,61.8310561 52.7735758,51.9054682 54.1901596,45.3974273 C55.1345488,41.0587334 57.6516292,38.360652 61.7414007,37.3031831 C63.8565918,28.7014577 70.6785172,25.0428086 82.2071767,26.3272358 C99.500166,28.2538767 110.054844,35.4730455 105.4968,51.3583673 C101.306886,51.3583673 96.2487643,49.8351586 89.2544331,52.4449058 C87.03516,53.272968 85.4478709,55.8408618 84.4925657,60.1485869 L81.331855,60.1485869 C78.2642522,55.0364948 75.2395762,53.1579405 72.257827,54.5129239 C69.2760777,55.8679073 68.5982776,59.1591674 70.2244267,64.3867043 L68.6674572,76.3918247 L65.3048995,76.3918247 Z" id="Hair" fill="#191847"></path>
                    </g>
                    <g id="Bottom/Standing/Jogging" transform="translate(179.500000, 324.500000) scale(-1, 1) translate(-179.500000, -324.500000) translate(17.000000, 195.000000)">
                        <polygon id="Leg" fill="#997659" points="140.833333 0 221.331947 134.622466 281.682748 248.434414 294.681775 248.434414 193.563162 5.51635214e-13"></polygon>
                        <g id="Accessories/Shoe/Flat-Sneaker" transform="translate(270.833333, 215.652720)" fill="#E4E4E4">
                            <path d="M2.96094256,27.1399147 C1.70829233,30.4342817 1.08196721,32.8921755 1.08196721,34.5135961 C1.08196721,36.4521288 1.40700553,39.2809301 2.05708217,43 C4.3204911,43 24.6621283,43 63.0819937,43 C64.6678149,37.7910953 63.7523869,34.9789753 60.33571,34.5636399 C56.919033,34.1483045 54.0807414,33.7732899 51.8208352,33.4385961 L23.3766332,20.8396842 C22.8716664,20.6160171 22.2809919,20.8440556 22.0573248,21.3490224 C22.0541301,21.3562349 22.0510209,21.363485 22.0479978,21.3707711 L20.1929847,25.8415972 L20.1929847,25.8415972 C17.0300354,27.3078511 14.4598108,28.040978 12.4823107,28.040978 C10.8456283,28.040978 8.57370805,27.3719638 5.66655006,26.0339355 L5.66654949,26.0339367 C4.66315575,25.5721217 3.47536936,26.011158 3.01355433,27.0145517 C2.99460141,27.0557311 2.97705402,27.0975429 2.96094256,27.1399147 Z" id="shoe"></path>
                        </g>
                        <path d="M264.921645,230.2097 L289.990039,222.623926 C279.006892,189.779676 265.545487,153.635783 249.605822,114.192247 C233.666157,74.7487113 216.54755,36.6846289 198.25,2.84217094e-14 L127.447746,2.84217094e-14 C147.790686,46.4043711 169.356931,88.568699 192.146481,126.492984 C214.93603,164.417268 239.194418,198.989507 264.921645,230.2097 Z" id="Pant" fill="#DB2721"></path>
                        <path d="M135.543014,2.84217094e-14 C127.945456,47.307259 113.291849,107.747759 111.908943,109.612971 C110.987006,110.856445 77.797039,121.98163 12.3390414,142.988525 L15.1469881,154.454962 C93.2054966,143.188829 134.335674,134.448098 138.537519,128.232772 C144.840287,118.909783 176.310859,45.2579602 188.5,2.84217094e-14 L135.543014,2.84217094e-14 Z" id="Leg" fill="#B28B67"></path>
                        <path d="M35.3486334,133.076668 L40.2945258,151.544193 C98.6777422,156.666413 134.450428,152.965288 147.612584,140.440817 C160.77474,127.916347 175.775713,81.1027409 192.615502,-1.13686838e-13 L125.101325,-1.13686838e-13 C114.432031,66.4122319 108.467201,101.012304 107.206836,103.800216 C105.94647,106.588128 81.993736,116.346945 35.3486334,133.076668 Z" id="Pant" fill="#FF4133"></path>
                        <g id="Accessories/Shoe/Flat-Sneaker" transform="translate(26.541667, 166.887029) rotate(80.000000) translate(-26.541667, -166.887029) translate(-6.500000, 145.213389)" fill="#E4E4E4">
                            <path d="M2.96094256,27.1399147 C1.70829233,30.4342817 1.08196721,32.8921755 1.08196721,34.5135961 C1.08196721,36.4521288 1.40700553,39.2809301 2.05708217,43 C4.3204911,43 24.6621283,43 63.0819937,43 C64.6678149,37.7910953 63.7523869,34.9789753 60.33571,34.5636399 C56.919033,34.1483045 54.0807414,33.7732899 51.8208352,33.4385961 L23.3766332,20.8396842 C22.8716664,20.6160171 22.2809919,20.8440556 22.0573248,21.3490224 C22.0541301,21.3562349 22.0510209,21.363485 22.0479978,21.3707711 L20.1929847,25.8415972 L20.1929847,25.8415972 C17.0300354,27.3078511 14.4598108,28.040978 12.4823107,28.040978 C10.8456283,28.040978 8.57370805,27.3719638 5.66655006,26.0339355 L5.66654949,26.0339367 C4.66315575,25.5721217 3.47536936,26.011158 3.01355433,27.0145517 C2.99460141,27.0557311 2.97705402,27.0975429 2.96094256,27.1399147 Z" id="shoe"></path>
                        </g>
                    </g>
                    <g id="Body/Long-Sleeve" transform="translate(165.500000, 198.000000) scale(-1, 1) rotate(21.000000) translate(-165.500000, -198.000000) translate(27.000000, 97.000000)">
                        <path d="M73.5454389,80.4215832 L97.2391011,80.5103548 C71.2583574,138.878424 57.7115946,169.43902 56.5988128,172.192142 C54.0950536,178.386668 59.3933447,187.820823 61.6591043,192.890667 C54.2796009,196.187229 55.0658948,183.978715 45.7568498,188.302339 C37.2599851,192.248743 30.7964414,199.399363 20.979542,193.352209 C19.7726119,192.608747 18.4500132,189.809478 21.6455789,187.621997 C29.6068987,182.172185 41.0796427,172.634031 42.6297911,169.494474 C44.7436954,165.213127 55.0489113,135.522164 73.5454389,80.4215832 L73.5454389,80.4215832 Z M274.50392,59.7522447 L273.981707,60.1884096 C269.371279,64.0537298 264.890944,68.2206618 265.71282,70.2695285 C266.56571,72.395711 271.017515,71.6046287 271.755003,74.8748782 C272.246662,77.0550445 265.021653,77.4092997 250.079977,75.937644 L215.414973,89.657754 L207.75,70.5496233 L250.471706,64.7319962 C259.01778,59.9864671 266.879754,56.7738268 274.057627,55.0940755 C276.077555,55.0351986 279.290873,55.7682611 274.50392,59.7522447 Z" id="Skin" fill="#997659"></path>
                        <path d="M133.61068,10.453014 L152.19898,10.0652387 C160.346943,50.7754924 187.410233,74.5722556 242.147937,60.9255942 L254.153813,113.218947 C202.85992,124.451375 155.547295,107.696508 141.310912,52.3705319 C137.625562,38.0483846 134.396338,23.09038 133.61068,10.453014 Z" id="Clothes-Back" fill="#AFB9C5" transform="translate(193.882247, 63.292104) rotate(5.000000) translate(-193.882247, -63.292104) "></path>
                        <path d="M129.278015,0 L129.292895,0.017 L157.400494,6.44377469 C157.400494,54.2241812 172.493959,84.8818269 180.460027,119.920807 L180.699219,120.983957 L104.787968,120.982719 C103.71856,133.244507 103.061853,145.847416 102.719651,158.791444 L102.719651,158.791444 L45.8798949,158.791444 C58.7601023,90.3749764 85.9458626,37.4444951 127.437176,0 L127.437176,0 L129.216895,0 L129.278015,0 Z" id="Clothes" fill="#C5CFD6"></path>
                        <path d="M116.764569,52.131516 C114.808376,82.2054617 115.958959,105.156275 120.216318,120.983957 L120.216318,120.983957 L104.787881,120.983719 C106.859695,97.2278437 110.480559,74.7523527 116.36454,53.5572463 Z" id="Shade" fill-opacity="0.1" fill="#000000"></path>
                    </g>
                </g>
            </g>
        </g>
    </g>
</svg>