<?xml version="1.0" encoding="UTF-8"?>
<svg width="1440px" height="900px" viewBox="0 0 1440 900" version="1.1" xmlns="http://www.w3.org/2000/svg" xmlns:xlink="http://www.w3.org/1999/xlink">
    <!-- Generator: Sketch 58 (84663) - https://sketch.com -->
    <title>登录页 密码重置备份</title>
    <desc>Created with Sketch.</desc>
    <defs>
        <linearGradient x1="111.535355%" y1="110.503287%" x2="-1.29412281%" y2="-2.14838055%" id="linearGradient-1">
            <stop stop-color="#434EAD" offset="0%"></stop>
            <stop stop-color="#8C8DFF" offset="100%"></stop>
        </linearGradient>
        <linearGradient x1="109.595889%" y1="94.7985912%" x2="-25.0511337%" y2="7.67698193%" id="linearGradient-2">
            <stop stop-color="#1B3BD8" offset="0%"></stop>
            <stop stop-color="#176CE0" offset="31.4739301%"></stop>
            <stop stop-color="#0B92E7" offset="49.1836977%"></stop>
            <stop stop-color="#0BB6EB" offset="71.3239784%"></stop>
            <stop stop-color="#00E0F2" offset="100%"></stop>
        </linearGradient>
        <linearGradient x1="-11.3193645%" y1="-27.3946712%" x2="100%" y2="106.923773%" id="linearGradient-3">
            <stop stop-color="#1B3BD8" offset="0%"></stop>
            <stop stop-color="#176CE0" offset="31.4739301%"></stop>
            <stop stop-color="#0B92E7" offset="49.1836977%"></stop>
            <stop stop-color="#0BB6EB" offset="71.3239784%"></stop>
            <stop stop-color="#00E0F2" offset="100%"></stop>
        </linearGradient>
        <linearGradient x1="0%" y1="50.0135382%" x2="99.4670074%" y2="50.0135382%" id="linearGradient-4">
            <stop stop-color="#4268CB" offset="0%"></stop>
            <stop stop-color="#4B7CE0" offset="19%"></stop>
            <stop stop-color="#57BEE8" offset="50.59%"></stop>
            <stop stop-color="#57BEE8" offset="90.64%"></stop>
            <stop stop-color="#67D9D4" offset="100%"></stop>
        </linearGradient>
        <linearGradient x1="19.9398791%" y1="-10.8616581%" x2="123.121397%" y2="138.706417%" id="linearGradient-5">
            <stop stop-color="#1B3BD8" offset="0%"></stop>
            <stop stop-color="#176CE0" offset="31.4739301%"></stop>
            <stop stop-color="#0B92E7" offset="49.1836977%"></stop>
            <stop stop-color="#0BB6EB" offset="71.3239784%"></stop>
            <stop stop-color="#00E0F2" offset="100%"></stop>
        </linearGradient>
        <linearGradient x1="-8.37721463%" y1="50.0135362%" x2="99.4670074%" y2="50.0135382%" id="linearGradient-6">
            <stop stop-color="#54AAF6" offset="0%"></stop>
            <stop stop-color="#529EFB" offset="24.2891921%"></stop>
            <stop stop-color="#4976DB" offset="58.2087751%"></stop>
            <stop stop-color="#3969D3" offset="92.4223266%"></stop>
            <stop stop-color="#456DD0" offset="100%"></stop>
        </linearGradient>
    </defs>
    <g id="登录页-密码重置备份" stroke="none" stroke-width="1" fill="none" fill-rule="evenodd">
        <rect id="矩形" fill="#FFFFFF" x="1" y="0" width="1440" height="900"></rect>
        <path d="M1440,-1.42108547e-14 L1440,900 L990,900 L910.659,741.317 L770.590672,778.848863 C765.256011,780.278282 759.772642,777.112457 758.343224,771.777796 C756.913806,766.443135 760.07963,760.959765 765.414291,759.530347 L901.529,723.058 L897.695,715.389 L873.590672,721.848863 C868.256011,723.278282 862.772642,720.112457 861.343224,714.777796 C859.913806,709.443135 863.07963,703.959765 868.414291,702.530347 L888.565,697.131 L540,-1.42108547e-14 L1440,-1.42108547e-14 Z" id="形状结合" fill="url(#linearGradient-1)"></path>
        <g id="background" opacity="0.600000024" transform="translate(-190.000000, -425.000000)">
            <g id="Mask" transform="translate(264.000000, 1093.000000)"></g>
            <path d="M1854,1037.5 C1854,1169.58306 1746.58306,1277 1614.5,1277 C1482.41694,1277 1375,1169.9809 1375,1037.5 C1375,905.416944 1482.41694,798 1614.5,798 C1746.9809,798 1854,905.416944 1854,1037.5 Z" id="Shape备份-2" fill="url(#linearGradient-2)" fill-rule="nonzero" opacity="0.100000001" transform="translate(1614.500000, 1037.500000) scale(-1, 1) rotate(-28.000000) translate(-1614.500000, -1037.500000) "></path>
            <path d="M365,952.5 C365,996.895349 328.895349,1033 284.5,1033 C240.104651,1033 204,997.02907 204,952.5 C204,908.104651 240.104651,872 284.5,872 C329.02907,872 365,908.104651 365,952.5 Z" id="Shape-Copy" fill="url(#linearGradient-3)" fill-rule="nonzero" opacity="0.0914855072"></path>
            <path d="M508,254 C508,394.079734 394.079734,508 254,508 C113.920266,508 0,394.501661 0,254 C0,113.920266 113.920266,0 254,0 C394.501661,0 508,113.920266 508,254 Z" id="Shape" fill="url(#linearGradient-2)" fill-rule="nonzero" opacity="0.100000001" transform="translate(254.000000, 254.000000) rotate(-360.000000) translate(-254.000000, -254.000000) "></path>
            <path d="M872,1202.5 C872,1246.89535 835.895349,1283 791.5,1283 C747.104651,1283 711,1247.02907 711,1202.5 C711,1158.10465 747.104651,1122 791.5,1122 C836.02907,1122 872,1158.10465 872,1202.5 Z" id="Shape-Copy备份" fill="url(#linearGradient-3)" fill-rule="nonzero" opacity="0.0914855072"></path>
            <path d="M1207,1303.5 C1207,1347.89535 1170.89535,1384 1126.5,1384 C1082.10465,1384 1046,1348.02907 1046,1303.5 C1046,1259.10465 1082.10465,1223 1126.5,1223 C1171.02907,1223 1207,1259.10465 1207,1303.5 Z" id="Shape-Copy备份-2" fill="url(#linearGradient-3)" fill-rule="nonzero" opacity="0.0914855072"></path>
            <g id="oval" opacity="0.228091033" transform="translate(1475.000000, 528.000000)" fill="url(#linearGradient-5)" fill-rule="nonzero">
                <path d="M80,40 C80,62.0598007 62.0598007,80 40,80 C17.9401993,80 0,62.1262458 0,40 C0,17.9401993 17.9401993,0 40,0 C62.1262458,0 80,17.9401993 80,40 Z" id="Shape" opacity="0.200000003"></path>
            </g>
            <g id="oval" opacity="0.258152174" transform="translate(960.500000, 513.500000) scale(-1, 1) translate(-960.500000, -513.500000) translate(906.000000, 459.000000)" fill="url(#linearGradient-6)" fill-rule="nonzero">
                <path d="M109,54.5 C109,84.5564784 84.5564784,109 54.5,109 C24.4435216,109 0,84.64701 0,54.5 C0,24.4435216 24.4435216,0 54.5,0 C84.64701,0 109,24.4435216 109,54.5 Z" id="Shape" opacity="0.100000001"></path>
            </g>
        </g>
        <path d="M1037.66793,798.414291 C1039.09734,803.748953 1035.93152,809.232322 1030.59686,810.66174 L791.047253,874.848863 C789.684699,875.213959 788.312444,875.279274 787.000515,875.08524 L877.348,831.019 L1025.42048,791.343224 C1030.75514,789.913806 1036.23851,793.07963 1037.66793,798.414291 Z M1110.66793,731.414291 C1112.09734,736.748953 1108.93152,742.232322 1103.59686,743.66174 L926.785,791.037 L917.854,772.725 L1098.42048,724.343224 C1103.75514,722.913806 1109.23851,726.07963 1110.66793,731.414291 Z" id="形状结合" fill="#FFFFFF"></path>
    </g>
</svg>