<?xml version="1.0" encoding="UTF-8"?>
<svg width="40px" height="40px" viewBox="0 0 40 40" version="1.1" xmlns="http://www.w3.org/2000/svg" xmlns:xlink="http://www.w3.org/1999/xlink">
    <!-- Generator: Sketch 58 (84663) - https://sketch.com -->
    <title>virtual-reality</title>
    <desc>Created with Sketch.</desc>
    <g id="Page-1" stroke="none" stroke-width="1" fill="none" fill-rule="evenodd">
        <g id="70-Technology-of-the-Future-Element-Icons" transform="translate(-1380.000000, -3994.000000)" fill-rule="nonzero">
            <g id="virtual-reality" transform="translate(1380.000000, 3994.000000)">
                <path d="M27.1591667,2.40296875 L27.1591667,0.99515625 C27.1591667,0.828984375 27.3028333,0.694296875 27.4800833,0.694296875 L28.9815833,0.694296875 C29.1588333,0.694296875 29.3025,0.828984375 29.3025,0.99515625 L29.3025,2.4028125 C29.3025,2.56898438 29.1588333,2.70367201 28.9815833,2.70367201 L27.4800833,2.70367201 C27.3029167,2.70382813 27.1591667,2.5690625 27.1591667,2.40296875 Z" id="Shape" fill="#25D887"></path>
                <path d="M35.81875,8.89304687 C38.1116667,8.89304687 39.9770833,7.14421875 39.9770833,4.99460937 C39.9770833,2.845 38.1116667,1.09617188 35.81875,1.09617188 L32.5178333,1.09617188 L32.5178333,8.89296875 L35.81875,8.89296875 L35.81875,8.89304687 Z" id="Shape" fill="#2CC7CE"></path>
                <path d="M35.81875,8.89304687 L22.3845,8.81265625 L17.6155,8.81265625 L4.18125,8.89304687 C1.88833333,8.89304687 0.0229166667,7.14421875 0.0229166667,4.99460937 L0.0229166667,32.2835156 C0.0229166667,34.433125 1.88833333,36.1819531 4.18125,36.1819531 L17.6155,36.1819531 L22.3845,36.1819531 L35.81875,36.1819531 C38.1116667,36.1819531 39.9770833,34.433125 39.9770833,32.2835156 L39.9770833,4.99460937 C39.9770833,7.14421875 38.1116667,8.89304687 35.81875,8.89304687 Z" id="Shape" fill="#7FE4F4"></path>
                <path d="M39.9770833,4.99460937 L39.9770833,32.3203125 C39.9770833,30.1707031 38.1116667,28.421875 35.81875,28.421875 L32.5178333,28.421875 L32.5178333,8.89304687 L35.81875,8.89304687 C38.1116667,8.89304687 39.9770833,7.14421875 39.9770833,4.99460937 Z" id="Shape" fill="#1EBABA"></path>
                <path d="M4.18133333,8.89304687 C1.88841667,8.89304687 0.023,7.14421875 0.023,4.99460937 C0.023,2.845 1.88841667,1.09617188 4.18133333,1.09617188 L7.48225,1.09617188 L7.48225,8.89296875 L4.18133333,8.89296875 L4.18133333,8.89304687 Z" id="Shape" fill="#2CC7CE"></path>
                <path d="M0.023,4.99460937 L0.023,32.3203125 C0.023,30.1707031 1.88841667,28.421875 4.18133333,28.421875 L7.48225,28.421875 L7.48225,8.89304687 L4.18133333,8.89304687 C1.88841667,8.89304687 0.023,7.14421875 0.023,4.99460937 Z" id="Shape" fill="#1EBABA"></path>
                <path d="M11.2118333,28.8867188 C10.5735833,28.8867188 10.0543333,28.3999219 10.0543333,27.8015625 C10.0543333,27.2032031 10.5735833,26.7164063 11.2118333,26.7164063 C11.8500833,26.7164063 12.3693333,27.2032031 12.3693333,27.8015625 C12.3693333,28.3999219 11.8500833,28.8867188 11.2118333,28.8867188 Z" id="Shape" fill="#1EBABA"></path>
                <path d="M13.6199167,1.70859375 L13.6199167,0.300859375 C13.6199167,0.1346875 13.7635833,0 13.9408333,0 L15.4423333,0 C15.6195833,0 15.76325,0.1346875 15.76325,0.300859375 L15.76325,1.70851563 C15.76325,1.8746875 15.6195833,2.00937514 15.4423333,2.00937514 L13.9408333,2.00937514 C13.7635833,2.00953125 13.6199167,1.87476562 13.6199167,1.70859375 Z" id="Shape" fill="#25D887"></path>
                <path d="M26.81625,28.6071875 L26.81625,27.1984375 C26.81625,27.0325 26.9596667,26.8980469 27.1366667,26.8980469 L28.6393333,26.8980469 C28.8163333,26.8980469 28.95975,27.0325 28.95975,27.1984375 L28.95975,28.6071875 C28.95975,28.773125 28.8163333,28.9075781 28.6393333,28.9075781 L27.1366667,28.9075781 C26.9596667,28.9075781 26.81625,28.773125 26.81625,28.6071875 Z" id="Shape" fill="#1EBABA"></path>
                <path d="M23.5581667,10.1284375 L23.5581667,8.70273438 C23.5581667,8.54148438 23.6975833,8.41085938 23.8695,8.41085938 L25.39025,8.41085938 C25.56225,8.41085938 25.7015833,8.5415625 25.7015833,8.70273438 L25.7015833,10.1284375 C25.7015833,10.2896875 25.5621667,10.4203125 25.39025,10.4203125 L23.8695,10.4203125 C23.6975833,10.4202344 23.5581667,10.2895312 23.5581667,10.1284375 Z" id="Shape" fill="#25D887"></path>
                <path d="M25.65875,7.848125 L23.601,7.848125 C23.24575,7.848125 22.958,8.11804688 22.958,8.4509375 L22.958,10.3800781 C22.958,10.7130469 23.2458333,10.9828906 23.601,10.9828906 L25.65875,10.9828906 C26.014,10.9828906 26.30175,10.7129688 26.30175,10.3800781 L26.30175,8.4509375 C26.3018333,8.11804688 26.014,7.848125 25.65875,7.848125 Z M25.01575,9.77726563 L24.2440833,9.77726563 L24.2440833,9.05382813 L25.01575,9.05382813 L25.01575,9.77726563 Z" id="Shape" fill="#000000"></path>
                <path d="M25.4076667,30.3544531 L22.9984167,30.3544531 L16.8453333,30.4294531 L13.6193333,30.4294531 L13.5450833,30.4450781 C11.746,30.8238281 10.44025,32.3552344 10.44025,34.0863281 L10.44025,39.1952344 C10.44025,39.6389062 10.8253333,39.9999219 11.2985833,39.9999219 L28.5300833,39.9999219 C29.0033333,39.9999219 29.3884167,39.6389062 29.3884167,39.1952344 L29.3884167,34.0863281 C29.3884167,32.0285937 27.6026667,30.3544531 25.4076667,30.3544531 Z" id="Shape" fill="#086987"></path>
                <path d="M19.19825,30.4007031 L16.8454167,30.429375 L13.6194167,30.429375 L13.5451667,30.445 C11.7460833,30.82375 10.4403333,32.3551563 10.4403333,34.08625 L10.4403333,39.1951563 C10.4403333,39.6388281 10.8254167,39.9998438 11.2986667,39.9998438 L16.524,39.9998438 C16.05075,39.9998438 15.6656667,39.6388281 15.6656667,39.1951563 L15.6656667,34.08625 C15.6656667,32.355 16.9715,30.82375 18.7705,30.445 L18.84475,30.429375 L19.1978333,30.429375 C19.1975833,30.4198438 19.198,30.4103125 19.19825,30.4007031 Z" id="Shape" fill="#066075"></path>
                <path d="M25.4076667,30.3544531 L22.9984167,30.3544531 L16.84525,30.4294531 L13.6193333,30.4294531 L13.5450833,30.4450781 C11.746,30.82375 10.4401667,32.3552344 10.4401667,34.0863281 L10.4401667,36.181875 L29.3883333,36.181875 L29.3883333,34.0863281 C29.3883333,32.0285938 27.6026667,30.3544531 25.4076667,30.3544531 Z" id="Shape" fill="#184B56"></path>
                <path d="M15.6655,34.0864062 C15.6655,32.3551562 16.9713333,30.8239062 18.7703333,30.4451562 L18.8445833,30.4295312 L19.1976667,30.4295312 C19.1975833,30.42 19.1979167,30.4103906 19.1980833,30.4008594 L17.9520833,30.4160156 L16.84525,30.4295312 L16.84525,30.4295312 L13.6193333,30.4295312 L13.5450833,30.4451562 C11.8584167,30.8001562 10.60525,32.1683594 10.45525,33.7644531 C10.44525,33.8708594 10.4401667,33.9782813 10.4401667,34.0864844 L10.4401667,36.1820313 L15.6655,36.1820313 L15.6655,34.0864062 L15.6655,34.0864062 Z" id="Shape" fill="#104149"></path>
                <path d="M26.1754167,39.9598437 L26.1754167,35.1370312 C26.1754167,34.8040625 25.8875833,34.5342188 25.5324167,34.5342188 C25.17725,34.5342188 24.8894167,34.8041406 24.8894167,35.1370312 L24.8894167,39.9598437 C24.8894167,39.9734375 24.8905833,39.9867188 24.8915833,40 L26.1733333,40 C26.17425,39.9866406 26.1754167,39.9733594 26.1754167,39.9598437 Z" id="Shape" fill="#066075"></path>
                <path d="M16.82775,30.1902344 L16.82775,27.4240625 L23.0866667,27.4240625 L23.0866667,30.1902344 C23.0866667,31.8105469 21.6855,33.1240625 19.95725,33.1240625 L19.95725,33.1240625 C18.2288333,33.1240625 16.82775,31.8105469 16.82775,30.1902344 Z" id="Shape" fill="#B79480"></path>
                <path d="M19.7428333,30.1902344 L19.7428333,27.4240625 L16.82775,27.4240625 L16.82775,30.1902344 C16.82775,31.8105469 18.2289167,33.1240625 19.9571667,33.1240625 L19.9571667,33.1240625 C20.4835833,33.1240625 20.9793333,33.0016406 21.41475,32.7864062 C20.42075,32.2948438 19.7428333,31.3169531 19.7428333,30.1902344 Z" id="Shape" fill="#B28772"></path>
                <path d="M27.5811667,8.4009375 L27.079,8.4009375 L27.079,7.60484375 C27.079,6.05484375 25.7339167,4.78859375 24.0806667,4.78203125 L21.5004167,4.771875 L18.3280833,4.77226563 L16.8576667,4.77226563 C15.7229167,4.77226563 14.684,5.13828125 13.93225,5.80289062 C13.1795,6.4684375 12.7605,7.38984375 12.7496667,8.4009375 L12.2473333,8.4009375 C11.073,8.4009375 10.1175,9.29671875 10.1175,10.3976563 L10.1175,17.7717188 L29.7108333,17.7717188 L29.7108333,10.3976563 C29.7108333,9.29671875 28.7555833,8.4009375 27.5811667,8.4009375 Z" id="Shape" fill="#F79548"></path>
                <path d="M16.963,8.4009375 L17.4653333,8.4009375 C17.4761667,7.38984375 17.8951667,6.4684375 18.6479167,5.80289062 C19.3996667,5.13820313 20.4385833,4.77226563 21.5733333,4.77226563 L21.6000833,4.77226563 L21.5004167,4.771875 L18.3280833,4.77226563 L16.8576667,4.77226563 C15.7229167,4.77226563 14.684,5.13828125 13.93225,5.80289062 C13.1795,6.4684375 12.7605,7.38984375 12.7496667,8.4009375 L12.2473333,8.4009375 C11.073,8.4009375 10.1175,9.29671875 10.1175,10.3976563 L10.1175,17.7717188 L14.8330833,17.7717188 L14.8330833,10.3976563 C14.8331667,9.29671875 15.7886667,8.4009375 16.963,8.4009375 Z" id="Shape" fill="#F27927"></path>
                <path d="M29.1081667,9.00773438 L28.9061667,8.81265625 L21.5005,8.81265625 L18.3281667,8.81265625 L10.9225,8.81265625 L10.7205,9.00773438 C10.33175,9.38304688 10.1176667,9.87671875 10.1176667,10.3976563 L10.1176667,17.7717188 L29.711,17.7717188 L29.711,10.3976563 C29.711,9.87664063 29.4969167,9.38304688 29.1081667,9.00773438 Z" id="Shape" fill="#875736"></path>
                <path d="M15.6698333,8.81265625 L10.95425,8.81265625 C10.8815833,8.86492188 10.81225,8.92125 10.7473333,8.98179688 L10.7209167,9.00734375 C10.7206667,9.00757813 10.7204167,9.0078125 10.7201667,9.00804688 C10.6963333,9.03101563 10.67325,9.05453125 10.65075,9.07835938 C10.6495833,9.07960938 10.6484167,9.08085938 10.64725,9.08210938 C10.62625,9.10445313 10.6059167,9.12726563 10.586,9.15039063 C10.5828333,9.15414063 10.5796667,9.15796875 10.5765,9.16171875 C10.5590833,9.18226563 10.5420833,9.20320313 10.5256667,9.22429688 C10.5204167,9.23101563 10.5153333,9.23796875 10.5101667,9.24476563 C10.4961667,9.26320313 10.4825,9.28171875 10.4691667,9.30054688 C10.46225,9.31039063 10.4555833,9.32023438 10.4488333,9.33023438 C10.43775,9.3465625 10.4268333,9.36289063 10.41625,9.37945313 C10.40825,9.39210938 10.4005833,9.40484375 10.3928333,9.41765625 C10.3840833,9.43203125 10.3754167,9.44640625 10.3670833,9.46109375 C10.3585833,9.47601563 10.3504167,9.49125 10.3423333,9.50640625 C10.3354167,9.519375 10.3283333,9.53234375 10.32175,9.54546875 C10.31325,9.5621875 10.3051667,9.57921875 10.29725,9.59617188 C10.2915833,9.60828125 10.28575,9.62039063 10.2803333,9.63257813 C10.2723333,9.65046875 10.2649167,9.66859375 10.2575,9.68671875 C10.2526667,9.69851563 10.24775,9.7103125 10.2430833,9.72234375 C10.236,9.7409375 10.2293333,9.7596875 10.22275,9.77851563 C10.2185833,9.79039063 10.21425,9.80234375 10.2104167,9.81429688 C10.20425,9.833125 10.1986667,9.8521875 10.1930833,9.87117188 C10.1895,9.88351563 10.18575,9.89585938 10.1823333,9.90820313 C10.17725,9.92710938 10.17275,9.94617188 10.16825,9.96523438 C10.16525,9.978125 10.1619167,9.99078125 10.1591667,10.00375 C10.1550833,10.0228125 10.1515833,10.0421094 10.1481667,10.0614063 C10.14575,10.0745313 10.1430833,10.0875 10.1410833,10.100625 C10.1379167,10.1202344 10.1355,10.1400781 10.133,10.1599219 C10.1313333,10.1728906 10.1294167,10.1857031 10.128,10.19875 C10.1256667,10.2203906 10.12425,10.2422656 10.1226667,10.2639844 C10.1219167,10.2752344 10.1206667,10.2864844 10.1200833,10.2977344 C10.1183333,10.3308594 10.1173333,10.3642188 10.1173333,10.3978125 L10.1173333,17.771875 L14.8329167,17.771875 L14.8329167,10.3978125 C14.8331667,9.75242188 15.16175,9.17789063 15.6698333,8.81265625 Z" id="Shape" fill="#7C4E2E"></path>
                <path d="M11.2888333,20.6990625 C10.1126667,20.6990625 9.15583333,19.8020312 9.15583333,18.6994531 C9.15583333,17.5967969 10.1126667,16.6997656 11.2888333,16.6997656 L13.9945833,16.6997656 L13.9945833,20.6990625 L11.2888333,20.6990625 Z" id="Shape" fill="#B79480"></path>
                <polygon id="Rectangle-path" fill="#AD806D" points="11.5755 16.6996875 13.4823333 16.6996875 13.4823333 20.6989844 11.5755 20.6989844"></polygon>
                <path d="M28.7113333,20.6990625 C29.8875,20.6990625 30.8443333,19.8020312 30.8443333,18.6994531 C30.8443333,17.5967969 29.8875,16.6997656 28.7113333,16.6997656 L26.0055833,16.6997656 L26.0055833,20.6990625 L28.7113333,20.6990625 Z" id="Shape" fill="#B79480"></path>
                <polygon id="Rectangle-path" fill="#AD806D" points="26.2813333 16.6996875 28.1881667 16.6996875 28.1881667 20.6989844 26.2813333 20.6989844"></polygon>
                <path d="M19.9143333,28.5808594 C15.9636667,28.5808594 12.7495833,25.5676562 12.7495833,21.8639844 L12.7495833,18.7797656 L27.0789167,18.7797656 L27.0789167,21.8639844 C27.0789167,25.5676563 23.8648333,28.5808594 19.9143333,28.5808594 Z" id="Shape" fill="#B79480"></path>
                <path d="M16.3934167,21.8639844 L16.3934167,18.7797656 L12.7495,18.7797656 L12.7495,21.8639844 C12.7495,25.5677344 15.9635833,28.5808594 19.91425,28.5808594 C20.54375,28.5808594 21.1540833,28.5036719 21.7361667,28.3600781 C18.66525,27.6025 16.3934167,24.9775781 16.3934167,21.8639844 Z" id="Shape" fill="#B28772"></path>
                <path d="M20.0000833,26.6569531 C19.1255,26.6569531 18.4139167,25.9898438 18.4139167,25.1699219 L18.4139167,24.8484375 C18.4139167,24.0285156 19.1254167,23.3614063 20.0000833,23.3614063 C20.87475,23.3614063 21.58625,24.0285156 21.58625,24.8484375 L21.58625,25.1699219 C21.5861667,25.9899219 20.8746667,26.6569531 20.0000833,26.6569531 Z" id="Shape" fill="#6D1326"></path>
                <path d="M20.0000833,23.3614063 C19.2259167,23.3614063 18.5806667,23.8842969 18.4423333,24.5728906 C18.7301667,24.2989063 19.1298333,24.1284375 19.5715833,24.1284375 C20.4461667,24.1284375 21.15775,24.7955469 21.15775,25.6154688 L21.15775,25.9369531 C21.15775,26.0311719 21.14725,26.1230469 21.1293333,26.2125 C21.4115,25.9439063 21.58625,25.5757813 21.58625,25.1699219 L21.58625,24.8484375 C21.5861667,24.0284375 20.8746667,23.3614063 20.0000833,23.3614063 Z" id="Shape" fill="#630F23"></path>
                <path d="M18.2424167,12.5905469 L18.2424167,4.39109375 C18.2424167,3.99257813 18.5881667,3.6684375 19.01325,3.6684375 L20.8153333,3.6684375 C21.2404167,3.6684375 21.5861667,3.99257813 21.5861667,4.39109375 L21.5861667,12.5905469 L18.2424167,12.5905469 Z" id="Shape" fill="#4B4B5B"></path>
                <rect id="Rectangle-path" fill="#2A2A3D" x="18.2425" y="8.8128125" width="3.34383333" height="3.7778125"></rect>
                <path d="M12.3018333,18.8601562 C11.1335,18.8601562 10.183,17.9690625 10.183,16.87375 L10.183,14.4967188 C10.183,13.4014063 11.1335,12.5103125 12.3018333,12.5103125 L27.5266667,12.5103125 C28.5695833,12.5103125 29.4484167,13.21125 29.61625,14.176875 L29.6251667,14.2282031 L29.6251667,17.0016406 L29.63425,17.0820312 L29.6218333,17.15875 C29.4720833,18.12875 28.57125,18.8602344 27.5265833,18.8602344 L12.3018333,18.8602344 L12.3018333,18.8601562 Z" id="Shape" fill="#2A2A3D"></path>
                <path d="M18.5051667,16.87375 L18.5051667,14.4967188 C18.5051667,13.4014063 19.4556667,12.5103125 20.624,12.5103125 L12.3018333,12.5103125 C11.1335,12.5103125 10.183,13.4014063 10.183,14.4967188 L10.183,16.87375 C10.183,17.9690625 11.1335,18.8601562 12.3018333,18.8601562 L20.624,18.8601562 C19.45575,18.8601562 18.5051667,17.9690625 18.5051667,16.87375 Z" id="Shape" fill="#222233"></path>
                <path d="M13.5268333,16.850625 C12.8649167,16.850625 12.3265,16.3458594 12.3265,15.7253125 C12.3265,15.1047656 12.8649167,14.6 13.5268333,14.6 L26.3018333,14.6 C26.96375,14.6 27.5021667,15.1047656 27.5021667,15.7253125 C27.5021667,16.3458594 26.96375,16.850625 26.3018333,16.850625 L13.5268333,16.850625 Z" id="Shape" fill="#749654"></path>
                <path d="M26.3018333,14.6 L13.5268333,14.6 C13.0233333,14.6 12.5919167,14.8925 12.414,15.3054688 L24.8014167,15.3054688 C25.4633333,15.3054688 26.00175,15.8102344 26.00175,16.4307813 C26.00175,16.5792188 25.9701667,16.7207031 25.91425,16.850625 L26.3018333,16.850625 C26.96375,16.850625 27.5021667,16.3458594 27.5021667,15.7253125 C27.5021667,15.1047656 26.96375,14.6 26.3018333,14.6 Z" id="Shape" fill="#5F7F3D"></path>
                <path d="M15.1106667,39.9598437 L15.1106667,35.1370312 C15.1106667,34.8040625 14.82275,34.5342188 14.4676667,34.5342188 C14.1125,34.5342188 13.8246667,34.8041406 13.8246667,35.1370312 L13.8246667,39.9598437 C13.8246667,39.9734375 13.8258333,39.9867188 13.8268333,40 L15.1085833,40 C15.1094167,39.9866406 15.1106667,39.9733594 15.1106667,39.9598437 Z" id="Shape" fill="#055866"></path>
                <path d="M15.1106667,36.1819531 L15.1106667,35.1370312 C15.1106667,34.8040625 14.82275,34.5342188 14.4676667,34.5342188 C14.1125,34.5342188 13.8246667,34.8041406 13.8246667,35.1370312 L13.8246667,36.1819531 L15.1106667,36.1819531 Z" id="Shape" fill="#0A3A3F"></path>
                <path d="M26.1754167,36.1819531 L26.1754167,35.1370312 C26.1754167,34.8040625 25.8875833,34.5342188 25.5324167,34.5342188 C25.17725,34.5342188 24.8894167,34.8041406 24.8894167,35.1370312 L24.8894167,36.1819531 L26.1754167,36.1819531 Z" id="Shape" fill="#104149"></path>
            </g>
        </g>
    </g>
</svg>