<?xml version="1.0" encoding="UTF-8"?>
<svg width="2306px" height="748px" viewBox="0 0 2306 748" version="1.1" xmlns="http://www.w3.org/2000/svg" xmlns:xlink="http://www.w3.org/1999/xlink">
    <!-- Generator: Sketch 58 (84663) - https://sketch.com -->
    <title>Variations</title>
    <desc>Created with Sketch.</desc>
    <g id="页面-1" stroke="none" stroke-width="1" fill="none" fill-rule="evenodd">
        <g id="Variations">
            <rect id="Rectangle" fill="#F2F2F2" fill-rule="nonzero" x="0" y="0" width="2306" height="468"></rect>
            <g id="A-Human/Standing" transform="translate(891.000000, 244.000000)" fill-rule="nonzero">
                <g id="Head/Front/Afro" transform="translate(55.000000, 0.000000)">
                    <path d="M32,64.7068588 C43.4289379,64.7068588 47.5854974,51.0240838 54.0786187,43.5153483 C58.7243138,38.143002 66.6530795,39.7449442 69,32.2237762 C74.901542,13.3111237 59.1061086,0 38.5,0 C17.8938914,0 4,11.6742524 1,29.2237762 C-2,46.7733 11.3938914,64.7068588 32,64.7068588 Z" id="Hair-Back" fill="#191847"></path>
                    <g id="Head" transform="translate(25.000000, 18.000000)" fill="#B28B67">
                        <path d="M38.1433414,9.13393292 C43.9381521,19.9350547 43.249578,47.3329958 35.7603014,49.2634576 C32.773664,50.0333035 26.4113241,48.1475566 19.935865,44.2446031 L24,73 L0,73 L8.26160177,34.4893378 C3.65406109,29.0807313 0.535660132,22.452516 1.05677633,15.0254539 C2.55833022,-6.37502057 32.3485306,-1.66718886 38.1433414,9.13393292 Z" id="路径"></path>
                    </g>
                    <path d="M64.5831606,27.1945268 C59.9933309,28.0561444 50.749454,32.438095 43.3793005,38.7237673 C42.507977,38.2620835 41.5087281,38 40.4466684,38 C37.0464589,38 34.2900445,40.6862915 34.2900445,44 C34.2900445,45.352507 34.7492372,46.6004922 35.5239753,47.6039629 C34.065081,50.0086601 33.0695654,52.5348236 32.7432388,55.1317726 C27.6870351,55.1317726 9.2335803,36 27.6167901,18 C46,1.77635684e-15 72.566014,25.6959598 64.5831606,27.1945268 Z" id="Hair" fill="#191847"></path>
                </g>
                <g id="Bottom/Standing/Shorts" transform="translate(29.000000, 174.000000)">
                    <polygon id="Leg" fill="#997659" points="43 9.9475983e-14 80.630838 123.024171 98.860154 227.648304 113.153197 227.648304 93.890974 9.9475983e-14"></polygon>
                    <path d="M29.537727,0 C32.093705,67.5468821 29.085665,102.388787 28.513606,108.525715 C27.941548,114.662643 20.108196,154.454812 1.5636874,229.708469 L16.793992,224.477699 C46.10186,155.458959 56.088936,119.5887 59.450326,110.525715 C62.811717,101.46273 71.739403,64.6208249 86.233385,0 L29.537727,0 Z" id="Leg" fill="#B28B67"></path>
                    <g id="Accessories/Shoe/Flat-Sneaker" transform="translate(0.000000, 218.000000)" fill="#E4E4E4">
                        <path d="M1.67813181,6.4019242 C0.55937727,9.3884109 0,11.6229931 0,13.1056708 C0,14.908957 0.3004142,17.5404001 0.90124261,21 C2.99318117,21 21.7937852,21 57.3030548,21 C58.768738,16.1545073 57.9226607,13.5385816 54.7648228,13.1522232 C51.606985,12.7658647 48.9837155,12.4170139 46.8950143,12.1056708 L20.6799926,0.4188835 C20.1755635,0.1940064 19.584344,0.4206282 19.359467,0.9250573 C19.35562,0.9336867 19.3518954,0.9423702 19.3482945,0.9511052 L17.6632131,5.038695 L17.6632131,5.038695 C14.7398812,6.4026522 12.3643706,7.0846307 10.5366811,7.0846307 C9.0517269,7.0846307 7.00099246,6.4849054 4.38447792,5.2854549 L4.38448339,5.285443 C3.38038273,4.8251478 2.19325534,5.2659892 1.73296014,6.2700899 C1.71312074,6.3133681 1.69483298,6.3573409 1.67813181,6.4019242 Z" id="shoe"></path>
                    </g>
                    <g id="Accessories/Shoe/Flat-Sneaker" transform="translate(94.000000, 218.000000)" fill="#E4E4E4">
                        <path d="M1.67813181,6.4019242 C0.55937727,9.3884109 0,11.6229931 0,13.1056708 C0,14.908957 0.3004142,17.5404001 0.90124261,21 C2.99318117,21 21.7937852,21 57.3030548,21 C58.768738,16.1545073 57.9226607,13.5385816 54.7648228,13.1522232 C51.606985,12.7658647 48.9837155,12.4170139 46.8950143,12.1056708 L20.6799926,0.4188835 C20.1755635,0.1940064 19.584344,0.4206282 19.359467,0.9250573 C19.35562,0.9336867 19.3518954,0.9423702 19.3482945,0.9511052 L17.6632131,5.038695 L17.6632131,5.038695 C14.7398812,6.4026522 12.3643706,7.0846307 10.5366811,7.0846307 C9.0517269,7.0846307 7.00099246,6.4849054 4.38447792,5.2854549 L4.38448339,5.285443 C3.38038273,4.8251478 2.19325534,5.2659892 1.73296014,6.2700899 C1.71312074,6.3133681 1.69483298,6.3573409 1.67813181,6.4019242 Z" id="shoe"></path>
                    </g>
                    <polygon id="Bottom" fill="#69A1AC" points="38 0 54 62.6795201 102.870318 62.6795201 95.583554 0"></polygon>
                    <path d="M29,-3.55271368e-15 C23.735439,15.7805461 22.735439,36.6737195 26,62.6795201 L75.870318,62.6795201 L89.583554,-3.55271368e-15 L29,-3.55271368e-15 Z" id="Bottom" fill="#89C5CC"></path>
                </g>
                <g id="Body/Jacket" transform="translate(0.000000, 69.000000)">
                    <path d="M34.3079281,93.0198914 L55.2053198,93.1020711 C42.3021447,134.755739 35.3363474,156.856914 34.3079281,159.405597 C31.9939846,165.140133 36.8906002,173.873732 38.9845874,178.567103 C32.1645409,181.61887 32.8912241,170.316929 24.2879189,174.319492 C16.4352209,177.972846 10.4616931,184.59248 1.3890352,178.994371 C0.2736052,178.306117 -0.9487243,175.714714 2.0045784,173.68967 C9.3623323,168.644547 19.9653015,159.814672 21.3979297,156.908251 C23.3515741,152.944826 27.6549068,131.648706 34.3079281,93.0198914 L34.3079281,93.0198914 Z M160.04441,89.1225115 L188.372314,116.757535 C196.61469,120.273345 203.368143,124.155511 208.632673,128.40403 C209.816587,129.832102 211.10547,132.568362 205.535214,131.343925 C199.964957,130.119488 194.050816,129.082079 193.003896,130.893567 C191.956977,132.705055 195.041811,135.480899 193.106974,137.851671 C191.817082,139.432186 187.479076,134.404878 180.092956,122.769747 L150.635682,105.402467 L160.04441,89.1225115 Z" id="Skin" fill="#B28B67"></path>
                    <path d="M88.01899,9.23199981 L96.503942,7.00082913 C114.576175,42.7520052 143.414525,74.1501034 183.01899,101.195124 L158.061793,137.56505 C117.33882,97.6857553 90.670571,55.1985909 88.01899,9.23199981 Z" id="Coat-Back" fill="#191847" transform="translate(135.518990, 72.282940) rotate(5.000000) translate(-135.518990, -72.282940) "></path>
                    <path d="M56,114 L133,114 C115.16087,70.6251468 106.241304,33.7787236 106.241304,3.4607303 L83.014208,0 C64.7598929,29.3584068 59.6048263,65.5045499 56,114 Z" id="Shirt" fill="#DDE3E9"></path>
                    <path d="M84.047752,-4.26325641e-14 C85.86198,0.0624731357 88.625282,0.175030894 92.337658,0.337673275 L92.337658,0.337673275 L97.950158,16.3768801 C98.543836,35.9324229 102.010826,75.3421183 108.351127,134.605966 L108.351127,134.605966 L57.8760675,134.60553 C58.008386,138.698782 58.2265651,142.830272 58.5306047,147 L58.5306047,147 L21,147 C26.6139164,83.6639633 47.1152373,34.6639633 82.503963,-4.26325641e-14 L82.503963,-4.26325641e-14 L82.522,0.017 L82.531583,-4.26325641e-14 L84.047752,-4.26325641e-14 Z" id="Coat-Front" fill="#2F3676"></path>
                    <path d="M72,135 L57.889057,134.999288 C57.2713571,116.643048 58.3783198,99.0548837 61.2099449,82.2347951 C62.6469231,107.748771 66.243477,125.3371 72,135 Z" id="Shade" fill-opacity="0.1" fill="#000000"></path>
                    <polygon id="Light" fill-opacity="0.2" fill="#FFFFFF" points="69.110899 104 94 92.4292718 94 104"></polygon>
                </g>
            </g>
            <g id="A-Human/Sitting" transform="translate(1311.000000, 495.500000) scale(-1, 1) translate(-1311.000000, -495.500000) translate(1164.000000, 328.000000)" fill-rule="nonzero">
                <g id="Head/Front/Short-2" transform="translate(79.000000, 0.000000)">
                    <g id="Head" transform="translate(4.000000, 7.000000)" fill="#915B3C">
                        <path d="M38.1433414,9.13393292 C43.9381521,19.9350547 43.249578,47.3329958 35.7603014,49.2634576 C32.773664,50.0333035 26.4113241,48.1475566 19.935865,44.2446031 L24,73 L0,73 L8.26160177,34.4893378 C3.65406109,29.0807313 0.535660132,22.452516 1.05677633,15.0254539 C2.55833022,-6.37502057 32.3485306,-1.66718886 38.1433414,9.13393292 Z" id="路径"></path>
                    </g>
                    <path d="M10.4181384,46.3075201 C7.4059021,32.9064588 -1.1754673,23.7714043 0.1351137,17.781703 C1.0088343,13.7885688 3.3375617,11.3053788 7.1212959,10.3321331 C9.0782074,2.4155009 15.3896485,-0.9517514 26.0556193,0.2303763 C42.0545754,2.0035679 51.819448,8.6477587 47.6024819,23.2678779 C43.7260987,23.2678779 39.0464758,21.8659867 32.57553,24.2678779 C30.5223249,25.0299883 29.0538125,27.3933595 28.1699927,31.3579915 L25.2457978,31.3579915 C22.4077436,26.6530572 19.6094038,24.9241222 16.8507787,26.1711866 C14.0921535,27.418251 13.4650732,30.4473753 14.9695377,35.2585597 L13.529076,46.3075201 L10.4181384,46.3075201 Z" id="Hair" fill="#191847"></path>
                </g>
                <g id="Bottom/Sitting/Baggy-Pants" transform="translate(0.000000, 163.000000)">
                    <g id="Objects/Seat/Cube-2" transform="translate(0.000000, 42.000000)" fill="#C5CFD6">
                        <path d="M131,0 C139.836556,0 147,7.163444 147,16 L147,108 C147,116.836556 139.836556,124 131,124 L16,124 C7.163444,124 0,116.836556 0,108 L0,16 C0,7.163444 7.163444,0 16,0 L131,0 Z M115,28 L32,28 C29.790861,28 28,29.790861 28,32 L28,32 L28,92 C28,94.209139 29.790861,96 32,96 L32,96 L115,96 C117.209139,96 119,94.209139 119,92 L119,92 L119,32 C119,29.790861 117.209139,28 115,28 L115,28 Z" id="Seat"></path>
                    </g>
                    <path d="M246.158964,161 C226.443095,136.924175 213.102867,119.075435 206.13828,107.453779 C194.213216,87.5546842 184.453121,69.8481647 181.373078,63.0843539 C174.028322,46.9551796 198.281896,39.4026181 203.77103,46.9258 C212.079054,58.3124345 229.822044,94.1429674 257,154.417399 L246.158964,161 Z" id="LegLower" fill="#B28B67"></path>
                    <path d="M205.757567,154 L169.065197,61.6367769 C161.217429,44.7995771 199.115758,33.7320765 204.883274,41.5677718 C217.977322,59.3572261 249.098846,129.534043 253,134.834115 L205.757567,154 Z" id="LegLower" fill="#2F3676"></path>
                    <g id="Lower-Leg" transform="translate(150.183434, 105.972969) rotate(39.000000) translate(-150.183434, -105.972969) translate(134.183434, 50.472969)" fill="#915B3C">
                        <path d="M1.8104618,104.955033 C0.80382537,92.354418 -1.06638035,48.7337126 0.80483649,28.543304 C1.34254917,22.7413902 1.90906557,17.1318704 2.47997786,11.8696433 C4.17693121,-3.7715579 33.1790278,-3.2771296 30.8758977,11.5827954 C25.1401936,48.5898816 15.0447004,100.45317 14.3211185,104.93445 C13.3069876,111.215156 2.44310141,112.874127 1.8104618,104.955033 Z" id="LegLower"></path>
                    </g>
                    <g id="Accessories/Shoe/Flat-Sneaker" transform="translate(131.316987, 147.977241) rotate(30.000000) translate(-131.316987, -147.977241) translate(102.316987, 137.477241)" fill="#E4E4E4">
                        <path d="M1.67813181,6.4019242 C0.55937727,9.3884109 0,11.6229931 0,13.1056708 C0,14.908957 0.3004142,17.5404001 0.90124261,21 C2.99318117,21 21.7937852,21 57.3030548,21 C58.768738,16.1545073 57.9226607,13.5385816 54.7648228,13.1522232 C51.606985,12.7658647 48.9837155,12.4170139 46.8950143,12.1056708 L20.6799926,0.4188835 C20.1755635,0.1940064 19.584344,0.4206282 19.359467,0.9250573 C19.35562,0.9336867 19.3518954,0.9423702 19.3482945,0.9511052 L17.6632131,5.038695 L17.6632131,5.038695 C14.7398812,6.4026522 12.3643706,7.0846307 10.5366811,7.0846307 C9.0517269,7.0846307 7.00099246,6.4849054 4.38447792,5.2854549 L4.38448339,5.285443 C3.38038273,4.8251478 2.19325534,5.2659892 1.73296014,6.2700899 C1.71312074,6.3133681 1.69483298,6.3573409 1.67813181,6.4019242 Z" id="shoe"></path>
                    </g>
                    <g id="Accessories/Shoe/Flat-Sneaker" transform="translate(236.000000, 151.000000)" fill="#E4E4E4">
                        <path d="M1.67813181,6.4019242 C0.55937727,9.3884109 0,11.6229931 0,13.1056708 C0,14.908957 0.3004142,17.5404001 0.90124261,21 C2.99318117,21 21.7937852,21 57.3030548,21 C58.768738,16.1545073 57.9226607,13.5385816 54.7648228,13.1522232 C51.606985,12.7658647 48.9837155,12.4170139 46.8950143,12.1056708 L20.6799926,0.4188835 C20.1755635,0.1940064 19.584344,0.4206282 19.359467,0.9250573 C19.35562,0.9336867 19.3518954,0.9423702 19.3482945,0.9511052 L17.6632131,5.038695 L17.6632131,5.038695 C14.7398812,6.4026522 12.3643706,7.0846307 10.5366811,7.0846307 C9.0517269,7.0846307 7.00099246,6.4849054 4.38447792,5.2854549 L4.38448339,5.285443 C3.38038273,4.8251478 2.19325534,5.2659892 1.73296014,6.2700899 C1.71312074,6.3133681 1.69483298,6.3573409 1.67813181,6.4019242 Z" id="shoe"></path>
                    </g>
                    <path d="M155.862091,66.2500522 C125.365272,61.2817352 104.938089,57.8844191 94.580542,56.0581041 C65.057451,50.8523866 56.448266,34.9653306 61.538476,0.302228659 L115.93427,0.302228659 C123.132679,2.38099361 153.210425,15.2374805 206.167508,38.8716893 C215.695532,43.6015333 213.921101,57.5474982 212.179547,62.1420768 C212.10852,62.3294612 196.046098,89.8530148 163.99228,144.712738 L119.494227,116.36549 L155.945659,69.5903876 C156.908306,67.6514874 156.88045,66.5380423 155.862091,66.2500522 Z" id="Leg-and-Butt" fill="#5C63AB"></path>
                </g>
                <g id="Body/Hoodie" transform="translate(3.000000, 54.000000)">
                    <path d="M34.3079281,97.0198914 L55.2053198,97.1020711 C42.3021447,138.755739 35.3363474,160.856914 34.3079281,163.405597 C31.9939846,169.140133 36.8906002,177.873732 38.9845874,182.567103 C32.1645409,185.61887 32.8912241,174.316929 24.2879189,178.319492 C16.4352209,181.972846 10.4616931,188.59248 1.3890352,182.994371 C0.2736052,182.306117 -0.9487243,179.714714 2.0045784,177.68967 C9.3623323,172.644547 19.9653015,163.814672 21.3979297,160.908251 C23.3515741,156.944826 27.6549068,135.648706 34.3079281,97.0198914 L34.3079281,97.0198914 Z M156.781205,96.2114854 L188.679476,119.635084 C197.330944,121.969562 204.558965,124.874047 210.363541,128.34854 C211.734683,129.597945 213.391836,132.128197 207.70538,131.690906 C202.018925,131.253615 196.01796,131.049392 195.233339,132.988954 C194.448719,134.928516 197.889854,137.24802 196.303794,139.864997 C195.246421,141.609648 190.250967,137.234999 181.31743,126.74105 L149.729774,113.642447 L156.781205,96.2114854 Z" id="Skin" fill="#915B3C"></path>
                    <path d="M88.731734,13.5803108 L97.216685,11.3491401 C131.5935,36.1628362 149.361709,88.0563407 190.996623,112.72736 L182.58973,125.240539 C113.889238,122.771641 91.383314,59.5469019 88.731734,13.5803108 Z" id="Coat-Back" fill="#E87613" transform="translate(139.864179, 68.294840) rotate(5.000000) translate(-139.864179, -68.294840) "></path>
                    <path d="M56,118 C90.671756,118 116.175573,118 132.511451,118 C136.007634,118 135.348845,112.951637 134.84345,110.404206 C129.010588,81.0037663 106.241304,49.3115155 106.241304,7.4607303 L84.1718,4 C65.917485,33.3584068 59.6048263,69.5045499 56,118 Z" id="Shirt" fill="#DDE3E9"></path>
                    <path d="M82.510031,4 C83.255457,4 83.93832,4.04662862 84.558619,4.13988586 L91.471587,4.53473994 C111.095762,71.0433898 116.650112,115.638277 108.134636,138.319401 L107.872285,139 L47.6511486,139.001552 C44.0833907,147.320741 40.6693386,154.320224 37.4089926,160 L37.4089926,160 L21,160 C19.4556625,110.06642 31.327616,67.6852715 56.6158606,32.8565546 C53.4105846,31.9374872 50.8716337,29.7883718 49,26.4111902 C40.933557,11.8560758 43.8467271,3.84240722 52.4671964,1.2082691 C61.0876658,-1.42586901 68.775319,4 82.510031,4 Z" id="Coat-Front" fill="#FF9B21"></path>
                    <path d="M70,139 L47.6515228,139.000679 C51.8135041,129.295819 56.1846546,117.79505 60.7649742,104.498371 C62.6589721,120.343356 65.7372842,131.844605 70,139 Z" id="Shade" fill-opacity="0.1" fill="#000000"></path>
                </g>
            </g>
            <g id="A-Human/Sitting" transform="translate(1550.000000, 483.500000) scale(-1, 1) translate(-1550.000000, -483.500000) translate(1417.000000, 308.000000)" fill-rule="nonzero">
                <g id="Head/Front/Chongo" transform="translate(84.000000, 0.000000)">
                    <g id="Head" transform="translate(16.000000, 27.000000)" fill="#B28B67">
                        <path d="M38.1433414,9.13393292 C43.9381521,19.9350547 43.249578,47.3329958 35.7603014,49.2634576 C32.773664,50.0333035 26.4113241,48.1475566 19.935865,44.2446031 L24,73 L0,73 L8.26160177,34.4893378 C3.65406109,29.0807313 0.535660132,22.452516 1.05677633,15.0254539 C2.55833022,-6.37502057 32.3485306,-1.66718886 38.1433414,9.13393292 Z" id="路径"></path>
                    </g>
                    <path d="M44.6634951,24.3699763 C41.3840534,23.3699763 36.6234565,23.0308443 34.6208149,23.2602642 C35.7600087,20.5308439 36.2120576,17.4899413 35.8435286,14.5290858 C35.4853344,11.6520661 34.1997702,9.2023672 33.0108165,6.6353788 C32.4627695,5.45216518 31.8416903,4.27540043 30.9156982,3.37037661 C29.972405,2.44834378 28.7783223,1.83972796 27.5262119,1.54936581 C26.2448581,1.2521517 24.9050174,1.27689939 23.6216732,1.54662502 C23.0539519,1.66592985 22.5445644,1.92549845 21.9877902,2.0697928 C21.4176191,2.21763405 21.141031,1.86076752 20.7271824,1.50212755 C19.7298424,0.63797369 18.2677456,0.21137833 17.0059895,0.0587004 C15.5903607,-0.11251814 14.1214506,0.10102137 12.7713517,0.56639079 C11.457233,1.01942668 10.1947879,1.75508602 9.2446815,2.82681415 C8.8216464,3.30387223 8.4376536,3.8468704 8.188089,4.44637714 C8.0857368,4.69240304 8.0688185,4.83814839 7.8233112,4.9282719 C7.5962532,5.01170466 7.3306889,5.014123 7.0963584,5.0935252 C4.8305256,5.86094542 2.8932607,7.6116631 1.8384289,9.8595111 C1.2230147,11.1708968 0.9314987,13.4797836 1.0113441,16.0676663 C1.0911894,18.655549 3.4279109,25.4080735 5.613439,27.8710732 C7.5642539,30.0695065 10.4317213,31.5202692 13.1990566,32.1553256 C11.36223,34.2548487 10.1395162,36.8784262 9.2353419,39.5466625 C8.2532361,42.4450442 7.6454006,45.4566043 7.4209456,48.525076 C7.2077438,51.4404668 7.187993,54.5235291 7.8714634,57.3766879 C8.5108389,60.0448435 9.8781623,62.233684 12.1607604,63.6222954 C13.2063292,64.2583997 14.331284,64.7362639 15.4627459,65.1730163 C16.5778253,65.6034004 17.6962731,66.021854 18.8643276,66.2633656 C21.0749653,66.7202709 23.6221325,66.641836 25.3249903,64.8822511 C25.9387204,64.2479202 26.6136933,63.450835 27.0614552,62.675918 C27.2224473,62.3972445 27.3195173,62.2149822 27.1239229,61.9425963 C26.8895924,61.6163621 26.5105756,61.3663863 26.2095669,61.1111707 C24.493006,59.6560549 23.4304424,57.7134822 23.1625814,55.4049338 C22.8908162,53.0626093 23.5200101,50.03928 25.7973259,49.0170472 C28.6084499,47.7551569 31.7042766,49.2035819 34.2028323,50.5537417 C35.264707,46.805958 37.4450295,43.4314855 40.8633764,41.7123675 C44.6451998,39.8105035 48.9847925,39.5879355 52.871188,37.9561196 C53.8839153,37.5308947 54.9153983,37.0481938 55.6610301,36.1817828 C55.9726032,35.8196765 56.3381465,35.3499541 56.4625461,34.871042 C56.625988,34.2419509 56.220254,33.7145107 55.9068437,33.2240711 C54.2450186,30.623629 47.9429367,25.3699763 44.6634951,24.3699763 Z" id="hair" fill="#191847"></path>
                </g>
                <g id="Bottom/Sitting/Wheelchair" transform="translate(0.000000, 183.000000)">
                    <path d="M244.00001,22.8655557 C243.971611,44.0311277 224.656682,144.512004 223.648224,150.855869 C222.639766,157.199734 211.83665,159.275085 211.20755,151.348454 C210.206544,138.735846 208.3468,95.012719 210.20755,74.6716648 C210.751052,68.7302859 211.324148,62.9873499 211.901347,57.6071399 C201.750733,75.8422626 186.314469,101.618252 165.593128,134.933778 L154.076573,129.672175 C163.120166,99.8760987 170.535776,78.8408618 176.323403,66.5664641 C186.233227,45.5497154 195.525307,27.551672 199.436043,21.2120072 C204.602279,12.8370615 212.982027,13.9496495 218.885272,18.0967837 C226.064167,8.35825282 244.010813,14.8043944 244.00001,22.8655557 Z" id="Skin" fill="#B28B67"></path>
                    <path d="M172.819223,123.340113 L177.936922,21.8299357 C181.625361,4.27740038 212.84365,12.4235357 212.83082,21.8299357 C212.801666,43.1853756 199.973522,116.956763 199.964839,123.319262 L172.819223,123.340113 Z" id="Leg-Back" fill="#1F28CF" transform="translate(192.825021, 67.419631) rotate(20.000000) translate(-192.825021, -67.419631) "></path>
                    <path d="M245,30.1765514 C245,56.7177303 233.366261,119.105994 233.358267,124.950436 L205.17615,124 C210.102422,69.7571864 212.179877,42.4520039 211.408516,42.0844525 C209.672952,41.2574617 140.262132,51.6911698 119.444697,52.4790258 C89.425854,53.615118 77.00766,35.1988173 76,0.25055648 L134.147646,0.25055648 C183.869047,6.18567094 216.548003,10.3136421 232.184514,12.63447 C242.225902,14.1248493 245,22.8651399 245,30.1765514 Z" id="Leg-Front" fill="#2B44FF"></path>
                    <g id="Accessories/Shoe/Flat-Sneaker" transform="translate(178.036816, 137.322315) rotate(14.000000) translate(-178.036816, -137.322315) translate(149.036816, 126.822315)" fill="#E4E4E4">
                        <path d="M1.67813181,6.4019242 C0.55937727,9.3884109 0,11.6229931 0,13.1056708 C0,14.908957 0.3004142,17.5404001 0.90124261,21 C2.99318117,21 21.7937852,21 57.3030548,21 C58.768738,16.1545073 57.9226607,13.5385816 54.7648228,13.1522232 C51.606985,12.7658647 48.9837155,12.4170139 46.8950143,12.1056708 L20.6799926,0.4188835 C20.1755635,0.1940064 19.584344,0.4206282 19.359467,0.9250573 C19.35562,0.9336867 19.3518954,0.9423702 19.3482945,0.9511052 L17.6632131,5.038695 L17.6632131,5.038695 C14.7398812,6.4026522 12.3643706,7.0846307 10.5366811,7.0846307 C9.0517269,7.0846307 7.00099246,6.4849054 4.38447792,5.2854549 L4.38448339,5.285443 C3.38038273,4.8251478 2.19325534,5.2659892 1.73296014,6.2700899 C1.71312074,6.3133681 1.69483298,6.3573409 1.67813181,6.4019242 Z" id="shoe"></path>
                    </g>
                    <g id="Accessories/Shoe/Flat-Sneaker" transform="translate(208.000000, 130.000000)" fill="#E4E4E4">
                        <path d="M1.67813181,6.4019242 C0.55937727,9.3884109 0,11.6229931 0,13.1056708 C0,14.908957 0.3004142,17.5404001 0.90124261,21 C2.99318117,21 21.7937852,21 57.3030548,21 C58.768738,16.1545073 57.9226607,13.5385816 54.7648228,13.1522232 C51.606985,12.7658647 48.9837155,12.4170139 46.8950143,12.1056708 L20.6799926,0.4188835 C20.1755635,0.1940064 19.584344,0.4206282 19.359467,0.9250573 C19.35562,0.9336867 19.3518954,0.9423702 19.3482945,0.9511052 L17.6632131,5.038695 L17.6632131,5.038695 C14.7398812,6.4026522 12.3643706,7.0846307 10.5366811,7.0846307 C9.0517269,7.0846307 7.00099246,6.4849054 4.38447792,5.2854549 L4.38448339,5.285443 C3.38038273,4.8251478 2.19325534,5.2659892 1.73296014,6.2700899 C1.71312074,6.3133681 1.69483298,6.3573409 1.67813181,6.4019242 Z" id="shoe"></path>
                    </g>
                    <rect id="Base" fill="#2F3676" x="209" y="151" width="53" height="7" rx="3.5"></rect>
                    <path d="M73,6 L180,6 C185.522847,6 190,10.4771525 190,16 L190,65 L190,65 L67,65 C64.790861,65 63,63.209139 63,61 L63,16 C63,10.4771525 67.477153,6 73,6 Z" id="Seat" fill="#2F3676"></path>
                    <path d="M180,6 L182.193678,6 C187.091205,6 191.268082,9.54701889 192.061559,14.3798408 L214,148 L214,148 L203.314286,148" id="Wheel-Stuff" fill="#2F3676"></path>
                    <circle id="Front-Wheel" fill="#191847" cx="209" cy="150" r="18"></circle>
                    <g id="Wheel" transform="translate(0.000000, 14.000000)" fill="#191847">
                        <path d="M76,0 C117.973641,0 152,34.026359 152,76 C152,117.973641 117.973641,152 76,152 C34.026359,152 0,117.973641 0,76 C0,34.026359 34.026359,0 76,0 Z M76,14 C41.7583455,14 14,41.7583455 14,76 C14,110.241654 41.7583455,138 76,138 C110.241654,138 138,110.241654 138,76 C138,41.7583455 110.241654,14 76,14 Z" id="形状"></path>
                        <rect id="Wheel-Stuff" x="72" y="10" width="8" height="132"></rect>
                        <rect id="Wheel-Stuff" transform="translate(76.000000, 76.000000) rotate(45.000000) translate(-76.000000, -76.000000) " x="72" y="10" width="8" height="132" rx="2"></rect>
                        <rect id="Wheel-Stuff" transform="translate(76.000000, 76.000000) rotate(90.000000) translate(-76.000000, -76.000000) " x="72" y="10" width="8" height="132" rx="2"></rect>
                        <rect id="Wheel-Stuff" transform="translate(76.000000, 76.000000) rotate(135.000000) translate(-76.000000, -76.000000) " x="72" y="10" width="8" height="132" rx="2"></rect>
                    </g>
                </g>
                <g id="Body/Pointing-Up" transform="translate(65.000000, 56.000000)">
                    <path d="M109.106855,91.1681252 L141.005126,114.591724 C149.656594,116.926202 156.884616,119.830687 162.689192,123.305179 C164.060333,124.554584 165.717486,127.084837 160.031031,126.647546 C154.344575,126.210255 148.34361,126.006032 147.55899,127.945594 C146.774369,129.885156 150.215504,132.204659 148.629445,134.821636 C147.572072,136.566288 142.576617,132.191639 133.64308,121.69769 L102.055424,108.599087 L109.106855,91.1681252 Z M171.438302,5.0230163 C167.666871,9.3012535 163.892301,13.9709322 164.969107,15.7648155 C166.045914,17.5586988 169.969279,16.2063984 171.104775,19.048018 C171.861773,20.942431 165.361683,22.2992493 151.604506,23.1184729 L122.133571,40.4625605 L112.456243,24.3408227 L150.360019,12.9624043 C157.431,7.4579589 164.100557,3.4333669 170.36869,0.8886281 C172.191683,0.5454966 175.209733,0.7447791 171.438302,5.0230163 Z" id="Skin" fill="#B28B67"></path>
                    <path d="M47.9849361,37.649923 C73.1467961,64.4399518 103.83581,81.9216266 145.690767,97.4277614 L136.396057,116.01362 C93.2113631,111.941921 70.1240491,108.690012 52.0248691,81.8586619 C47.4823421,75.1245369 39.3600341,51.953677 34.4941751,39.9210142 L47.9849361,37.649923 Z" id="Coat-Back" fill="#2026A2" transform="translate(90.092471, 76.831772) rotate(15.000000) translate(-90.092471, -76.831772) "></path>
                    <path d="M11,136 L88,136 C70.558211,82.8053811 61.648283,46.2959016 61.270216,26.4715615 C61.250941,25.4608975 59.384379,23.6799647 58.55857,23.9131937 C52.519523,25.6187722 46.057267,24.981041 39.1718,22 C20.917485,51.3584068 14.6048263,87.5045499 11,136 Z" id="Shirt" fill="#F2F2F2"></path>
                    <path d="M144.922675,13 L149,33.3734803 C117.786296,53.4485846 86.179799,68.9996172 58.484777,66.7906365 C70.512447,118.376906 69.958039,160.605966 43.407472,160.605966 L43.407472,160.605966 L2.3511268,160.605966 C-4.1695686,116.783947 12.9680949,56.0236152 28.855955,25.3765943 C29.462665,24.2062769 30.75441,22 33.797001,22 L33.797001,22 L45.726763,22 C45.732077,22.0159997 45.73739,22.0319994 45.742703,22.0479991 C67.814341,22.2281419 103.62406,26.2586371 144.922675,13 Z" id="Coat-Front" fill="#1F28CF"></path>
                </g>
            </g>
            <text id="Nli’s-Blog" fill="#190857" font-family="HannotateTC-W7, Hannotate TC" font-size="130" font-weight="bold">
                <tspan x="898.17" y="188">Nli’s Blog</tspan>
            </text>
            <g id="A-Human/Standing" transform="translate(652.000000, 260.000000)" fill-rule="nonzero">
                <g id="Head/Front/Short-Beard" transform="translate(109.000000, 0.000000)">
                    <g id="Head" transform="translate(1.000000, 2.000000)" fill="#B28B67">
                        <path d="M38.1433414,9.13393292 C43.9381521,19.9350547 43.249578,47.3329958 35.7603014,49.2634576 C32.773664,50.0333035 26.4113241,48.1475566 19.935865,44.2446031 L24,73 L0,73 L8.26160177,34.4893378 C3.65406109,29.0807313 0.535660132,22.452516 1.05677633,15.0254539 C2.55833022,-6.37502057 32.3485306,-1.66718886 38.1433414,9.13393292 Z" id="路径"></path>
                    </g>
                    <path d="M26.1320584,0.6205713 C32.8659611,1.1981637 38.8790132,3.2515132 40.5831606,4.4709469 C40.5831606,10.8461712 39.3478701,12.7376815 28.7968056,12.5709519 C26.2045191,13.9399877 24.211635,16.2973585 22.1359806,19.3879237 C23.0537047,32.185356 25.4839205,38.5846937 29.4257914,38.5846937 C35.3385979,38.5846937 40.355194,34.8310443 42.9495915,34.8310443 C44.8408192,34.8310443 44.4185661,37.1977405 43.1649615,38.9524776 C42.1306973,40.4001921 37.0939174,41.7956158 37.0939174,44.0400595 C37.0939174,46.2845031 41.0733913,44.5481008 41.0733913,45.8792364 C41.0733913,48.0810973 41.7727779,52.2209894 37.9512241,52.2209894 C34.0836843,52.2209894 22.9947625,50.8115837 21.0944216,45.0714721 C19.8680535,41.367142 19.0750985,33.6912593 18.7155566,22.0438241 C18.4812891,22.0143652 18.2423222,22 18,22 C14.6862915,22 12,24.6862915 12,28 C12,29.6822183 12.6922919,31.2027431 13.807515,32.292214 C12.4191964,34.2518162 10.8632894,36.2988831 9.0803863,38.4111902 C2.3824054,34.3926741 -2.5878774,22.6289713 3.9604861,11.3282783 C5.7704744,5.7922446 9.8680346,2.8352408 14.7073518,1.4622091 C18.6274481,-0.1775797 22.6968791,-0.3624673 26.1320584,0.6205713 Z" id="Hair" fill="#191847"></path>
                </g>
                <g id="Bottom/Standing/Skinny-Jeans" transform="translate(46.000000, 158.000000)">
                    <polygon id="Leg" fill="#191847" points="56 9.9475983e-14 92.254962 127.226909 118.706957 221 138 221 109.890974 9.9475983e-14"></polygon>
                    <path d="M46.304342,0 C45.465768,65.5742244 42.606247,101.340188 41.725779,107.297892 C40.845311,113.255595 27.5321718,151.156298 1.7863613,221 L21.7726468,221 C54.549033,153.996902 72.845651,116.096199 76.662499,107.297892 C80.479348,98.4995844 92.258515,62.7336205 110,0 L46.304342,0 Z" id="Leg" fill="#2F3676"></path>
                    <g id="Accessories/Shoe/Flat-Pointy" transform="translate(0.000000, 218.000000)" fill="#191847">
                        <path d="M0,21 L1,0 L22,0 C31.9576033,7 44.9576033,12.6666667 61,17 L61,21 L23,21 L10,19 L10,21 L0,21 Z" id="Shoe"></path>
                    </g>
                    <g id="Accessories/Shoe/Flat-Pointy" transform="translate(116.000000, 218.000000)" fill="#191847">
                        <path d="M0,21 L1,0 L22,0 C31.9576033,7 44.9576033,12.6666667 61,17 L61,21 L23,21 L10,19 L10,21 L0,21 Z" id="Shoe"></path>
                    </g>
                </g>
                <g id="Body/Lab-Coat" transform="translate(0.000000, 52.000000)">
                    <path d="M49.6671405,78.5359191 L67.3789189,81.1081345 C48.3668948,122.357659 38.1743233,144.172797 36.8012044,146.553548 C33.7116869,151.910237 37.3451669,161.240318 38.7655846,166.17944 C31.5871864,168.252341 33.8797238,157.161524 24.8030963,159.927786 C16.5183715,162.452702 9.6817028,168.176559 1.47644547,161.370261 C0.4676573,160.533467 -0.38212307,157.797168 2.82426992,156.202852 C10.8125642,152.230829 22.541227,144.962534 24.3644086,142.283781 C26.8506424,138.630823 35.2848864,117.381535 49.6671405,78.5359191 L49.6671405,78.5359191 Z M186.358872,89.6100216 L216.545493,115.201672 C225.013042,118.13396 232.02085,121.535571 237.568917,125.406506 C238.849565,126.748514 240.32618,129.3882 234.68408,128.555307 C229.04198,127.722415 223.069879,127.100082 222.151873,128.980187 C221.233867,130.860292 224.504819,133.414187 222.740072,135.914152 C221.563574,137.580795 216.885448,132.868337 208.705694,121.776779 L178.108696,106.506639 L186.358872,89.6100216 Z" id="Skin" fill="#B28B67"></path>
                    <path d="M118.979272,10.2105422 L129.596123,5.63843187 C147.668356,41.3896079 172.923065,75.3010145 212.52753,102.346035 L204.768287,118.911928 C170.615844,102.621394 138.570612,90.4491188 123.58307,62.8321985 C118.552864,53.5632462 119.64558,21.7613641 118.979272,10.2105422 Z" id="Coat-Back" fill="#C5CFD6" transform="translate(165.753401, 62.275180) rotate(5.000000) translate(-165.753401, -62.275180) "></path>
                    <path d="M86,111 C117.438326,114.333333 142.183737,114.333333 160.236234,111 C162.472817,110.587022 162.825667,106.842388 161.788454,104.300966 C145.636353,64.7244027 134.560302,30.1916266 134.560302,2.70263734 C131.596594,4.1967882 126.409827,4.42070538 119,3.37438888 C99.086202,31.7026762 89.9325378,64.2061447 86,111 Z" id="Shirt" fill="#323337"></path>
                    <path d="M114.078622,0.481323787 L114.049621,0.999323787 L122.348425,1 C124.261445,12.2512223 130.254034,163.198887 148.629948,215.064845 L149.190593,216.605966 L47.3853184,216.605966 C49.5924156,170.487497 67.0026785,115.088004 84.6395167,68.7290783 C69.044235,82.9998445 55.4517,107.181198 43.8618586,141.272687 L43.8618586,141.272687 L24.7926212,136.377648 C38.9709573,75.2822336 68.1213495,30.3765708 112.243798,1.66065973 L112.531583,1 L113.269621,0.999323787 L114.078622,0.481323787 Z" id="Coat-Front" fill="#DDE3E9"></path>
                </g>
            </g>
            <g id="A-Human/Standing" transform="translate(417.000000, 235.000000)" fill-rule="nonzero">
                <g id="Head/Front/Chongo" transform="translate(121.000000, 0.000000)">
                    <g id="Head" transform="translate(16.000000, 27.000000)" fill="#B28B67">
                        <path d="M38.1433414,9.13393292 C43.9381521,19.9350547 43.249578,47.3329958 35.7603014,49.2634576 C32.773664,50.0333035 26.4113241,48.1475566 19.935865,44.2446031 L24,73 L0,73 L8.26160177,34.4893378 C3.65406109,29.0807313 0.535660132,22.452516 1.05677633,15.0254539 C2.55833022,-6.37502057 32.3485306,-1.66718886 38.1433414,9.13393292 Z" id="路径"></path>
                    </g>
                    <path d="M44.6634951,24.3699763 C41.3840534,23.3699763 36.6234565,23.0308443 34.6208149,23.2602642 C35.7600087,20.5308439 36.2120576,17.4899413 35.8435286,14.5290858 C35.4853344,11.6520661 34.1997702,9.2023672 33.0108165,6.6353788 C32.4627695,5.45216518 31.8416903,4.27540043 30.9156982,3.37037661 C29.972405,2.44834378 28.7783223,1.83972796 27.5262119,1.54936581 C26.2448581,1.2521517 24.9050174,1.27689939 23.6216732,1.54662502 C23.0539519,1.66592985 22.5445644,1.92549845 21.9877902,2.0697928 C21.4176191,2.21763405 21.141031,1.86076752 20.7271824,1.50212755 C19.7298424,0.63797369 18.2677456,0.21137833 17.0059895,0.0587004 C15.5903607,-0.11251814 14.1214506,0.10102137 12.7713517,0.56639079 C11.457233,1.01942668 10.1947879,1.75508602 9.2446815,2.82681415 C8.8216464,3.30387223 8.4376536,3.8468704 8.188089,4.44637714 C8.0857368,4.69240304 8.0688185,4.83814839 7.8233112,4.9282719 C7.5962532,5.01170466 7.3306889,5.014123 7.0963584,5.0935252 C4.8305256,5.86094542 2.8932607,7.6116631 1.8384289,9.8595111 C1.2230147,11.1708968 0.9314987,13.4797836 1.0113441,16.0676663 C1.0911894,18.655549 3.4279109,25.4080735 5.613439,27.8710732 C7.5642539,30.0695065 10.4317213,31.5202692 13.1990566,32.1553256 C11.36223,34.2548487 10.1395162,36.8784262 9.2353419,39.5466625 C8.2532361,42.4450442 7.6454006,45.4566043 7.4209456,48.525076 C7.2077438,51.4404668 7.187993,54.5235291 7.8714634,57.3766879 C8.5108389,60.0448435 9.8781623,62.233684 12.1607604,63.6222954 C13.2063292,64.2583997 14.331284,64.7362639 15.4627459,65.1730163 C16.5778253,65.6034004 17.6962731,66.021854 18.8643276,66.2633656 C21.0749653,66.7202709 23.6221325,66.641836 25.3249903,64.8822511 C25.9387204,64.2479202 26.6136933,63.450835 27.0614552,62.675918 C27.2224473,62.3972445 27.3195173,62.2149822 27.1239229,61.9425963 C26.8895924,61.6163621 26.5105756,61.3663863 26.2095669,61.1111707 C24.493006,59.6560549 23.4304424,57.7134822 23.1625814,55.4049338 C22.8908162,53.0626093 23.5200101,50.03928 25.7973259,49.0170472 C28.6084499,47.7551569 31.7042766,49.2035819 34.2028323,50.5537417 C35.264707,46.805958 37.4450295,43.4314855 40.8633764,41.7123675 C44.6451998,39.8105035 48.9847925,39.5879355 52.871188,37.9561196 C53.8839153,37.5308947 54.9153983,37.0481938 55.6610301,36.1817828 C55.9726032,35.8196765 56.3381465,35.3499541 56.4625461,34.871042 C56.625988,34.2419509 56.220254,33.7145107 55.9068437,33.2240711 C54.2450186,30.623629 47.9429367,25.3699763 44.6634951,24.3699763 Z" id="hair" fill="#191847"></path>
                </g>
                <g id="Bottom/Standing/Jogging" transform="translate(0.000000, 183.000000)">
                    <polygon id="Leg" fill="#997659" points="131 0 205.306413 124.226909 261.014844 229.25029 273.013946 229.25029 179.673688 5.090379e-13"></polygon>
                    <g id="Accessories/Shoe/Flat-Sneaker" transform="translate(252.000000, 218.000000)" fill="#E4E4E4">
                        <path d="M1.67813181,6.4019242 C0.55937727,9.3884109 0,11.6229931 0,13.1056708 C0,14.908957 0.3004142,17.5404001 0.90124261,21 C2.99318117,21 21.7937852,21 57.3030548,21 C58.768738,16.1545073 57.9226607,13.5385816 54.7648228,13.1522232 C51.606985,12.7658647 48.9837155,12.4170139 46.8950143,12.1056708 L20.6799926,0.4188835 C20.1755635,0.1940064 19.584344,0.4206282 19.359467,0.9250573 C19.35562,0.9336867 19.3518954,0.9423702 19.3482945,0.9511052 L17.6632131,5.038695 L17.6632131,5.038695 C14.7398812,6.4026522 12.3643706,7.0846307 10.5366811,7.0846307 C9.0517269,7.0846307 7.00099246,6.4849054 4.38447792,5.2854549 L4.38448339,5.285443 C3.38038273,4.8251478 2.19325534,5.2659892 1.73296014,6.2700899 C1.71312074,6.3133681 1.69483298,6.3573409 1.67813181,6.4019242 Z" id="shoe"></path>
                    </g>
                    <path d="M245.543057,212.432889 L268.683113,205.432889 C258.544824,175.124875 246.118911,141.772016 231.405374,105.374313 C216.691837,68.97661 200.890046,33.851839 184,2.84217094e-14 L118.644073,2.84217094e-14 C137.422172,42.821022 157.329475,81.7294172 178.365982,116.725186 C199.402489,151.720954 221.794847,183.623522 245.543057,212.432889 Z" id="Pant" fill="#DB2721"></path>
                    <path d="M126.116628,2.84217094e-14 C119.103498,43.6541888 105.577091,99.4274685 104.300563,101.148648 C103.449544,102.296102 72.8126514,112.562199 12.3898843,131.94694 L14.9818352,142.527938 C87.0358431,132.131776 125.00216,124.066006 128.880787,118.330628 C134.698727,109.72756 163.748486,41.763137 175,2.84217094e-14 L126.116628,2.84217094e-14 Z" id="Leg" fill="#B28B67"></path>
                    <path d="M33.6295078,122.800477 L38.1949469,139.841939 C92.0871466,144.568621 125.108088,141.153296 137.25777,129.595966 C149.407453,118.038636 163.254504,74.839981 178.798925,-1.13686838e-13 L116.478146,-1.13686838e-13 C106.629567,61.2838742 101.12357,93.2121259 99.9601559,95.7847551 C98.7967416,98.3573843 76.6865256,107.362625 33.6295078,122.800477 Z" id="Pant" fill="#FF4133"></path>
                    <g id="Accessories/Shoe/Flat-Sneaker" transform="translate(16.057502, 155.157254) rotate(80.000000) translate(-16.057502, -155.157254) translate(-12.942498, 144.657254)" fill="#E4E4E4">
                        <path d="M1.67813181,6.4019242 C0.55937727,9.3884109 0,11.6229931 0,13.1056708 C0,14.908957 0.3004142,17.5404001 0.90124261,21 C2.99318117,21 21.7937852,21 57.3030548,21 C58.768738,16.1545073 57.9226607,13.5385816 54.7648228,13.1522232 C51.606985,12.7658647 48.9837155,12.4170139 46.8950143,12.1056708 L20.6799926,0.4188835 C20.1755635,0.1940064 19.584344,0.4206282 19.359467,0.9250573 C19.35562,0.9336867 19.3518954,0.9423702 19.3482945,0.9511052 L17.6632131,5.038695 L17.6632131,5.038695 C14.7398812,6.4026522 12.3643706,7.0846307 10.5366811,7.0846307 C9.0517269,7.0846307 7.00099246,6.4849054 4.38447792,5.2854549 L4.38448339,5.285443 C3.38038273,4.8251478 2.19325534,5.2659892 1.73296014,6.2700899 C1.71312074,6.3133681 1.69483298,6.3573409 1.67813181,6.4019242 Z" id="shoe"></path>
                    </g>
                </g>
                <g id="Body/Pointing-Forward" transform="translate(100.000000, 78.000000)">
                    <path d="M161.556381,46.4077826 C165.889175,45.5157805 176.464286,37.6506887 178.286431,39.2475996 C180.982176,41.6101262 178.578484,48.864452 175.746364,52.4730906 C170.453134,59.2176317 166.070569,61.5240612 155.238377,64.5443446 C149.574749,66.1235046 143.451364,69.288795 136.868224,74.0402157 L136,58.7398397 L151.246523,50.3642065 C153.385826,42.2239107 155.943102,38.1282526 158.918351,38.0772323 C161.203961,37.0137608 157.223587,47.2997848 161.556381,46.4077826 Z M135.314801,11.541507 C132.515281,16.510379 129.794075,21.8627914 131.22032,23.3935933 C132.646565,24.9243953 136.203036,22.7859324 137.904525,25.3293729 C139.038851,27.0249998 132.962902,29.703613 119.676679,33.3652124 L94.455792,56.4576422 L81.638039,42.7002327 L116.347821,23.6898218 C122.119845,16.8355222 127.806897,11.5121983 133.408976,7.71984988 C135.120791,7.00519513 138.114322,6.57263502 135.314801,11.541507 Z" id="Skin" fill="#997659"></path>
                    <path d="M65.857986,34.7503025 C77.885997,36.5253162 94.300289,36.5253162 113.103565,28.3861499 L117.443447,44.4123074 C103.805809,54.2415559 85.712714,61.226516 71.287694,58.5246963 C59.919984,56.3955135 56.271725,41.6595451 65.857986,34.7503025 Z" id="Sleeve" fill="#2026A2" transform="translate(88.898282, 43.748060) rotate(-9.000000) translate(-88.898282, -43.748060) "></path>
                    <path d="M65.54375,-1.42108547e-13 C67.074679,19.6687489 74.780189,41.3453869 81.104007,62.7603513 C94.010533,65.9801967 115.654578,62.1842978 146.035933,51.3734208 C153.571674,66.9635189 157.055257,78.0780631 156.486685,84.7170535 C130.420927,98.3327976 108.0808,104.402393 89.676137,104.801687 C90.268511,115.717837 88.939677,126.110233 84.473933,135.605966 C75.29468,155.124265 21.5450578,137.048144 3.4727876,140.605966 C-7.8445994,103.85132 14.0379108,88.9143806 14.0555178,65.3966157 C14.0747993,39.6421572 34.75441,-1.42108547e-13 37.797001,-1.42108547e-13 L37.797001,-1.42108547e-13 L65.54375,-1.42108547e-13 Z" id="Clothes" fill="#1F28CF"></path>
                </g>
            </g>
            <g id="A-Human/Standing" transform="translate(222.000000, 224.000000)" fill-rule="nonzero">
                <g id="Head/Front/Airy">
                    <g id="Head" transform="translate(123.000000, 38.000000)" fill="#B28B67">
                        <path d="M38.1433414,9.13393292 C43.9381521,19.9350547 43.249578,47.3329958 35.7603014,49.2634576 C32.773664,50.0333035 26.4113241,48.1475566 19.935865,44.2446031 L24,73 L0,73 L8.26160177,34.4893378 C3.65406109,29.0807313 0.535660132,22.452516 1.05677633,15.0254539 C2.55833022,-6.37502057 32.3485306,-1.66718886 38.1433414,9.13393292 Z" id="路径"></path>
                    </g>
                    <path d="M147.46395,34.6852568 C144.300819,34.1665378 135.783951,33.8099042 134.213288,33.8101344 C133.209561,33.8101344 132.121826,34.0394482 131.527347,33.1178184 C131.040518,32.3631089 131.218861,31.0866873 131.07357,30.2108742 C130.904866,29.1934668 130.665239,28.1891827 130.422857,27.1874312 C129.733124,24.3368945 128.690147,21.6249591 127.230806,19.0787928 C124.492532,14.3018818 120.481065,10.5601063 115.416751,8.38277606 C109.824292,5.97866458 103.495965,5.42817325 97.4804855,5.91581049 C91.0431327,6.43752248 85.2158664,8.56258942 79.137955,10.5624086 C73.346036,12.4680618 67.2796011,13.2181667 61.2218882,12.2875578 C55.1184992,11.3500418 50.5068151,8.0420286 45.3587232,4.90231703 C40.0885222,1.68800939 34.0656977,-0.4142643 27.8353795,0.06899848 C22.0195896,0.52025863 16.6594134,2.9216073 11.8503349,6.12946836 C7.3508902,9.13080883 3.6382688,12.741811 1.5422157,17.8240133 C-0.7126711,23.2909379 -0.7106053,29.291777 2.9974255,34.1232537 C8.372062,41.1265349 18.3498899,42.9375616 26.6510131,42.7575181 C31.4525172,42.6536822 36.1681776,41.7771784 40.701363,40.1828026 C46.7469108,38.0563543 51.9712062,34.4522592 57.6270148,31.5280473 C60.281281,30.1558481 63.0248336,29.0288489 65.9005946,28.2170411 C68.6912006,27.4289475 71.4398029,27.0674789 73.9664512,28.7532579 C76.6393091,30.5366564 79.0344377,32.2885128 82.0922147,33.4049212 C85.0255874,34.4759733 88.132713,35.0750442 91.2579713,35.0508696 C97.338637,35.0039017 103.33277,33.1092997 109.238536,31.8402457 C114.0545,30.8055706 119.207412,29.7743491 124.117253,30.7689633 C126.166024,31.1840766 129.158615,32.0410104 129.898614,34.1702216 C117.444175,36.4274433 112.552707,51.8301494 116.063803,63.1372093 C117.958789,69.2400423 129.349812,76.3741897 133.778791,73.1658382 C136.584677,71.1332552 134.881216,68.4648419 133.778791,66.7033156 C131.667589,63.3299158 130.945263,58.9966672 134.851836,56.6480423 C138.221542,54.6224367 141.764556,59.4327123 141.831578,59.4274169 C142.757725,59.3544325 150.76044,54.8285457 156.274165,48.224129 C161.713475,48.5465656 162.538697,44.9600245 161.239896,42.026908 C159.941096,39.0937915 151.8344,35.4024381 147.46395,34.6852568 Z" id="hair" fill="#191847"></path>
                </g>
                <g id="Bottom/Standing/Sprint" transform="translate(12.000000, 166.000000)">
                    <path d="M182.469522,18.3415976 C163.34471,33.9341257 170.620321,170.644251 169.343793,172.365431 C168.776447,173.1304 138.468239,179.639612 78.4191688,191.893066 L81.0111198,202.474064 C151.253239,198.987921 188.421261,194.637951 192.515185,189.424153 C198.376511,181.959489 205.620797,140.212202 214.248044,64.1822927 L182.469522,18.3415976 Z" id="Leg" fill="#B28B67" transform="translate(146.333606, 110.407831) rotate(-55.000000) translate(-146.333606, -110.407831) "></path>
                    <path d="M88.5400884,180.75781 L93.1055274,197.799273 C145.465638,203.811529 179.983252,196.36956 192.132934,184.81223 C200.232723,177.107343 207.495664,135.473517 213.921759,59.9107525 L179.926407,11.3603584 C134.401042,45.7063234 161.537309,158.140454 160.373895,160.713083 C159.210481,163.285712 131.597106,165.319958 88.5400884,180.75781 Z" id="Pant" fill="#2F3676" transform="translate(151.230924, 105.646618) rotate(-55.000000) translate(-151.230924, -105.646618) "></path>
                    <g id="Accessories/Shoe/Flat-Sneaker" transform="translate(194.664877, 224.035191) rotate(20.000000) translate(-194.664877, -224.035191) translate(165.664877, 213.535191)" fill="#E4E4E4">
                        <path d="M1.67813181,6.4019242 C0.55937727,9.3884109 0,11.6229931 0,13.1056708 C0,14.908957 0.3004142,17.5404001 0.90124261,21 C2.99318117,21 21.7937852,21 57.3030548,21 C58.768738,16.1545073 57.9226607,13.5385816 54.7648228,13.1522232 C51.606985,12.7658647 48.9837155,12.4170139 46.8950143,12.1056708 L20.6799926,0.4188835 C20.1755635,0.1940064 19.584344,0.4206282 19.359467,0.9250573 C19.35562,0.9336867 19.3518954,0.9423702 19.3482945,0.9511052 L17.6632131,5.038695 L17.6632131,5.038695 C14.7398812,6.4026522 12.3643706,7.0846307 10.5366811,7.0846307 C9.0517269,7.0846307 7.00099246,6.4849054 4.38447792,5.2854549 L4.38448339,5.285443 C3.38038273,4.8251478 2.19325534,5.2659892 1.73296014,6.2700899 C1.71312074,6.3133681 1.69483298,6.3573409 1.67813181,6.4019242 Z" id="shoe"></path>
                    </g>
                    <polygon id="Leg" fill="#997659" points="105 28 53.2540376 152.226909 2.3958106 257.25029 14.3949124 257.25029 145.673688 28"></polygon>
                    <g id="Accessories/Shoe/Flat-Sneaker" transform="translate(0.000000, 246.000000)" fill="#E4E4E4">
                        <path d="M1.67813181,6.4019242 C0.55937727,9.3884109 0,11.6229931 0,13.1056708 C0,14.908957 0.3004142,17.5404001 0.90124261,21 C2.99318117,21 21.7937852,21 57.3030548,21 C58.768738,16.1545073 57.9226607,13.5385816 54.7648228,13.1522232 C51.606985,12.7658647 48.9837155,12.4170139 46.8950143,12.1056708 L20.6799926,0.4188835 C20.1755635,0.1940064 19.584344,0.4206282 19.359467,0.9250573 C19.35562,0.9336867 19.3518954,0.9423702 19.3482945,0.9511052 L17.6632131,5.038695 L17.6632131,5.038695 C14.7398812,6.4026522 12.3643706,7.0846307 10.5366811,7.0846307 C9.0517269,7.0846307 7.00099246,6.4849054 4.38447792,5.2854549 L4.38448339,5.285443 C3.38038273,4.8251478 2.19325534,5.2659892 1.73296014,6.2700899 C1.71312074,6.3133681 1.69483298,6.3573409 1.67813181,6.4019242 Z" id="shoe"></path>
                    </g>
                    <path d="M6.9885488,235.432889 L33.6506859,240.432889 C54.2657755,210.124875 140.540767,85.851839 150,28 L90.644073,28 C59.0548806,69.821022 26.6389867,204.623522 6.9885488,235.432889 Z" id="Pant" fill="#5C63AB"></path>
                </g>
                <g id="Body/Jacket-2" transform="translate(11.000000, 89.000000)">
                    <path d="M49.5082829,82 L70,86.0658446 C49.3920824,124.471059 38.3404263,144.825845 36.8450319,147.130202 C33.4803944,152.315007 36.6196693,161.817238 37.7793043,166.821179 C30.5044044,168.51462 33.3734014,157.565005 24.1671562,159.851185 C15.7641225,161.937904 8.6393632,167.293169 0.8038784,160.07074 C-0.15944841,159.182785 -0.86464918,156.407288 2.41981989,154.983749 C10.6026301,151.437195 22.6920431,144.796343 24.6523424,142.218096 C27.3255608,138.702197 35.6108743,118.629498 49.5082829,82 Z M252.188168,51.2551684 L251.816855,51.7996726 C248.728428,56.3479545 245.838405,61.1194481 247.076289,62.7052963 C248.363689,64.3545786 252.093006,62.5342201 253.566345,65.2162765 C254.548571,67.0043141 248.262286,69.1431805 234.707491,71.6328758 L207.56994,92.4392868 L196,77.6170876 L232.234567,61.7041739 C238.582018,55.3790221 244.711387,50.5716141 250.622674,47.2819501 C252.390261,46.7192094 255.410101,46.5491987 252.188168,51.2551684 Z" id="Skin" fill="#B28B67"></path>
                    <path d="M121.280247,9.87718023 L129.765198,7.64600955 C150.120135,24.2050747 161.602366,67.2616718 174.61267,71.9556463 C186.913385,76.3936093 203.208593,69.6320097 222.503164,60.7390322 L229.796052,73.8353428 C213.409826,95.0000245 176.298612,114.916545 159.84294,106.839809 C133.533742,93.9267871 123.046804,40.501408 121.280247,9.87718023 Z" id="Coat-Back" fill="#DB2721" transform="translate(175.538149, 58.161768) rotate(5.000000) translate(-175.538149, -58.161768) "></path>
                    <path d="M88,114 C122.671756,114 148.175573,114 164.511451,114 C168.007634,114 167.348845,108.951637 166.84345,106.404206 C161.010588,77.0037663 138.241304,45.3115155 138.241304,3.4607303 L116.1718,0 C97.917485,29.3584068 91.6048263,65.5045499 88,114 Z" id="Shirt" fill="#DDE3E9"></path>
                    <path d="M118.731463,-9.9475983e-14 L123.486398,-9.9475983e-14 C143.298923,67.5369477 148.760885,112.536948 139.872285,135 L139.872285,135 L71,135 C72.0896915,118.562494 75.5838029,101.179176 80.3695915,84.2302075 C64.7719945,112.366884 51.6611932,132.623153 41.0374452,145 L25,141.85882 C35.3305927,77.7906722 65.2466105,30.5043988 114.748053,-9.9475983e-14 L118.731463,-9.9475983e-14 Z" id="Coat-Front" fill="#FF4133"></path>
                </g>
            </g>
            <g id="A-Human/Standing" transform="translate(0.000000, 258.000000)" fill-rule="nonzero">
                <g id="Head/Front/Long" transform="translate(120.000000, 0.000000)">
                    <path d="M37.5,0 C48.2821207,0 57.2105014,7.9368049 58.7615049,18.2867779 C62.2080531,30.9860871 66.701616,59.5432912 62.1172687,64.0224659 L33.1172687,64.0224659 L33.1089864,63.8685463 C22.3601277,62.6792412 14,53.5659268 14,42.5 L14,21.5 C14,9.6258779 23.6258779,0 35.5,0 L37.5,0 Z" id="Hair-Back" fill="#191847"></path>
                    <g id="Head" transform="translate(17.000000, 4.000000)" fill="#B28B67">
                        <path d="M38.1433414,9.13393292 C43.9381521,19.9350547 43.249578,47.3329958 35.7603014,49.2634576 C32.773664,50.0333035 26.4113241,48.1475566 19.935865,44.2446031 L24,73 L0,73 L8.26160177,34.4893378 C3.65406109,29.0807313 0.535660132,22.452516 1.05677633,15.0254539 C2.55833022,-6.37502057 32.3485306,-1.66718886 38.1433414,9.13393292 Z" id="路径"></path>
                    </g>
                    <path d="M36.0014183,1 C47.581449,1 51.2365853,6.3883223 54.3486809,10.9630857 C52.0214721,18.9483487 42.9900382,20.1322381 34.9652181,25.1098359 C34.0199697,24.3410485 32.8137784,23.8804131 31.5,23.8804131 C28.4624339,23.8804131 26,26.3428469 26,29.3804131 C26,32.4179792 28.4624339,34.8804131 31.5,34.8804131 C31.5838976,34.8804131 31.6673564,34.8785346 31.7503367,34.8748173 C32.8557338,46.7530917 32.4127039,60.3172948 29.1172687,63.5371269 L0.1172687,63.5371269 C-1.4985251,35.4634848 14.1172687,46.3348557 14.1172687,19.9027926 C15.0907327,18.9516616 16.010584,18.010258 16.9207807,17.19836 L16.888877,16.4207004 C21.9105508,6.1402335 28.2813979,1 36.0014183,1 Z" id="Hair-Front" fill="#191847"></path>
                </g>
                <g id="Bottom/Standing/Skirt" transform="translate(0.000000, 155.000000)">
                    <path d="M98.4078252,103.088074 C122.397173,109.797924 143.094458,113.152849 160.499678,113.152849 C177.904899,113.152849 194.071673,107.986324 209,97.6532736 C185.524241,90.7662231 166.190908,87.3226979 151,87.3226979 C135.809092,87.3226979 118.278368,92.5778233 98.4078252,103.088074 Z" id="Skirt-Shadow" fill="#1F28CF"></path>
                    <path d="M181.266835,122.824327 C181.035521,122.476585 180.840175,122.098311 180.685231,121.688552 C177.478637,113.208488 126.116885,21.7255336 121,5 L178.826087,5 C182.716527,17.7166594 200.227018,97.5197596 202.69132,113.441654 C210.466648,138.556719 226.475271,219.895245 228.518903,225.530129 C230.66877,231.457932 218.572184,237.63317 215.348729,230.345671 C210.219667,218.750031 197.998649,186.665102 192.557135,167.074268 C187.455728,148.707903 183.301821,132.184501 181.266835,122.824327 Z" id="Leg" fill="#997659"></path>
                    <path d="M133.957062,133.993595 C110.475313,139.928474 24.5840287,150.657684 18.6897926,152.340533 C12.6264626,154.07166 7.31008232,141.573779 14.8046857,138.866526 C26.7298651,134.558829 59.589132,124.605712 79.5118243,120.544042 C95.5364316,117.27708 110.159082,114.611243 119.976345,113.050159 C119.144649,85.4734403 115.342756,19.2935455 117.834687,5 L169,5 C166.610405,18.7065491 146.410112,118.717714 142.6556,128.728549 C141.464101,132.302484 137.908919,133.8819 133.957062,133.993595 L133.957062,133.993595 Z" id="Leg" fill="#B28B67"></path>
                    <g id="Accessories/Shoe/Flat-Sneaker" transform="translate(16.057502, 163.157254) rotate(80.000000) translate(-16.057502, -163.157254) translate(-12.942498, 152.657254)" fill="#E4E4E4">
                        <path d="M1.67813181,6.4019242 C0.55937727,9.3884109 0,11.6229931 0,13.1056708 C0,14.908957 0.3004142,17.5404001 0.90124261,21 C2.99318117,21 21.7937852,21 57.3030548,21 C58.768738,16.1545073 57.9226607,13.5385816 54.7648228,13.1522232 C51.606985,12.7658647 48.9837155,12.4170139 46.8950143,12.1056708 L20.6799926,0.4188835 C20.1755635,0.1940064 19.584344,0.4206282 19.359467,0.9250573 C19.35562,0.9336867 19.3518954,0.9423702 19.3482945,0.9511052 L17.6632131,5.038695 L17.6632131,5.038695 C14.7398812,6.4026522 12.3643706,7.0846307 10.5366811,7.0846307 C9.0517269,7.0846307 7.00099246,6.4849054 4.38447792,5.2854549 L4.38448339,5.285443 C3.38038273,4.8251478 2.19325534,5.2659892 1.73296014,6.2700899 C1.71312074,6.3133681 1.69483298,6.3573409 1.67813181,6.4019242 Z" id="shoe"></path>
                    </g>
                    <g id="Accessories/Shoe/Flat-Sneaker" transform="translate(210.000000, 223.000000)" fill="#E4E4E4">
                        <path d="M1.67813181,6.4019242 C0.55937727,9.3884109 0,11.6229931 0,13.1056708 C0,14.908957 0.3004142,17.5404001 0.90124261,21 C2.99318117,21 21.7937852,21 57.3030548,21 C58.768738,16.1545073 57.9226607,13.5385816 54.7648228,13.1522232 C51.606985,12.7658647 48.9837155,12.4170139 46.8950143,12.1056708 L20.6799926,0.4188835 C20.1755635,0.1940064 19.584344,0.4206282 19.359467,0.9250573 C19.35562,0.9336867 19.3518954,0.9423702 19.3482945,0.9511052 L17.6632131,5.038695 L17.6632131,5.038695 C14.7398812,6.4026522 12.3643706,7.0846307 10.5366811,7.0846307 C9.0517269,7.0846307 7.00099246,6.4849054 4.38447792,5.2854549 L4.38448339,5.285443 C3.38038273,4.8251478 2.19325534,5.2659892 1.73296014,6.2700899 C1.71312074,6.3133681 1.69483298,6.3573409 1.67813181,6.4019242 Z" id="shoe"></path>
                    </g>
                    <path d="M118,5 C140.546839,-1.45073907 161.880173,-1.45073907 182,5 C189,36.9374682 206.00894,49.6134741 209,98.5789257 C175,115.472724 133,86.5304571 98,103.005311 C88,79.9611073 102,24.4645181 118,5 Z" id="Skirt" fill="#2B44FF"></path>
                </g>
                <g id="Body/Long-Sleeve" transform="translate(41.000000, 55.000000)">
                    <path d="M49.9697919,74.4496834 L71.8671837,74.5318631 C47.8560993,128.56567 35.3363474,156.856914 34.3079281,159.405597 C31.9939846,165.140133 36.8906002,173.873732 38.9845874,178.567103 C32.1645409,181.61887 32.8912241,170.316929 24.2879189,174.319492 C16.4352209,177.972846 10.4616931,184.59248 1.3890352,178.994371 C0.2736052,178.306117 -0.9487243,175.714714 2.0045784,173.68967 C9.3623323,168.644547 19.9653015,159.814672 21.3979297,156.908251 C23.3515741,152.944826 32.8755281,125.458637 49.9697919,74.4496834 L49.9697919,74.4496834 Z M235.693154,55.3151968 C231.269111,59.00334 226.780296,63.0831966 227.568527,65.0514942 C228.356757,67.0197919 232.471061,66.2874533 233.152638,69.3148625 C233.607023,71.3331352 226.929759,71.6610844 213.120845,70.2987101 L181.083874,83 L174,65.3107899 L213.482876,59.9251648 C221.381053,55.5320264 228.646993,52.5579486 235.280695,51.0029313 C237.147488,50.9484265 240.117196,51.6270536 235.693154,55.3151968 Z" id="Skin" fill="#997659"></path>
                    <path d="M105.473568,9.66927313 L122.652814,9.31280701 C130.188654,47.0006412 155.203746,69.0336905 205.790464,56.4079457 L216.893349,104.819132 C169.489073,115.210412 125.760505,99.6935282 112.595778,48.4746485 C109.187846,35.2156986 106.201379,21.3681777 105.473568,9.66927313 Z" id="Clothes-Back" fill="#AFB9C5" transform="translate(161.183458, 58.591470) rotate(5.000000) translate(-161.183458, -58.591470) "></path>
                    <path d="M101.477154,0 L101.490636,0.016 L127.467604,5.96527657 C127.467604,50.1976331 141.4168,78.578721 148.778942,111.015796 L149,112 L78.8436466,112.000086 C77.8553764,123.350958 77.2484879,135.017596 76.9322404,147 L76.9322404,147 L24.4016357,147 C36.3053653,83.6639633 61.4301113,34.6639633 99.775873,0 L99.775873,0 L101.420636,0 L101.477154,0 Z" id="Clothes" fill="#C5CFD6"></path>
                    <path d="M89.912412,48.2598889 C88.10448,76.1008541 89.167824,97.3475578 93.102445,112 L93.102445,112 L78.8437337,111.999086 C80.758489,90.0075171 84.104834,69.2012293 89.54268,49.5802231 L89.912412,48.2598889 Z" id="Shade" fill-opacity="0.1" fill="#000000"></path>
                </g>
            </g>
            <g id="A-Human/Sitting" transform="translate(2156.500000, 490.500000) scale(-1, 1) translate(-2156.500000, -490.500000) translate(2022.000000, 318.000000)" fill-rule="nonzero">
                <g id="Head/Front/Curly" transform="translate(59.000000, 0.000000)">
                    <g id="Head" transform="translate(24.000000, 17.000000)" fill="#B28B67">
                        <path d="M38.1433414,9.13393292 C43.9381521,19.9350547 43.249578,47.3329958 35.7603014,49.2634576 C32.773664,50.0333035 26.4113241,48.1475566 19.935865,44.2446031 L24,73 L0,73 L8.26160177,34.4893378 C3.65406109,29.0807313 0.535660132,22.452516 1.05677633,15.0254539 C2.55833022,-6.37502057 32.3485306,-1.66718886 38.1433414,9.13393292 Z" id="路径"></path>
                    </g>
                    <path d="M72.7757,11.1604378 C72.27871,9.413499 70.941932,7.9177553 69.1403997,7.4740102 C68.7035309,7.3663739 68.2523568,7.3228991 67.8028308,7.3410245 C67.6415842,7.3474604 67.5963613,7.3939561 67.5210118,7.2811974 C67.4651095,7.197597 67.463857,6.9933574 67.44085,6.8951122 C67.3692581,6.5896064 67.2797352,6.2879096 67.169249,5.9940277 C66.7923038,4.9916772 66.1588538,4.1045809 65.3952068,3.3573001 C63.9668625,1.9592762 62.0369134,0.9944243 60.0318126,0.8198684 C58.9343996,0.7243814 57.8449632,0.9026807 56.8074738,1.2596732 C56.2703367,1.444474 55.7494825,1.6745884 55.2422083,1.9290015 C55.0894658,2.0055749 54.5939258,2.3806273 54.4406558,2.3563287 C54.2713667,2.3295345 53.9311403,1.9088402 53.793494,1.8032397 C52.0920984,0.4978789 49.9910802,-0.0153471 47.8718674,-0.000333399788 C45.4798671,0.0180142 43.1765325,0.1375371 41.1815838,1.5957165 C40.7592838,1.9044402 40.3570902,2.2424535 39.974146,2.5983297 C39.7724889,2.7856917 39.5771603,2.9800806 39.3908631,3.1825471 C39.2784651,3.3046969 39.1690337,3.4296049 39.0636894,3.5578621 C38.8849074,3.7755645 38.9135837,3.8470813 38.6633416,3.6951821 C37.7032454,3.1118841 36.5906702,2.8390829 35.4700524,2.976797 C34.80463,3.0586242 34.1572045,3.2583982 33.5424765,3.5213485 C33.3331724,3.6108594 32.8487074,3.9679176 32.6256255,3.9713982 C32.4043234,3.9748132 31.9266485,3.6438267 31.6986882,3.5597009 C30.4674524,3.1051856 29.1403652,2.9931493 27.8462393,3.2031681 C26.5113072,3.4198854 25.1999755,3.9524847 24.068942,4.6884699 C23.524949,5.0425073 23.0503065,5.4347656 22.6690763,5.9611918 C22.5044676,6.1884823 22.3556804,6.4289072 22.1691195,6.6396484 C22.0598858,6.7630459 21.8435939,6.8896614 21.7849887,7.0458292 C21.8200595,6.9523124 20.3250675,6.3759756 20.1839932,6.3391337 C19.43241,6.1428403 18.6671149,6.1826375 17.9311554,6.4248355 C16.5472429,6.8802703 15.3570768,7.9016 14.3789178,8.9487388 C13.8765219,9.4865919 13.4368843,10.0811198 13.0636966,10.7145254 C12.8848487,11.0179297 12.7212948,11.3300027 12.5716506,11.6487085 C12.4991357,11.8031032 12.4510782,11.9962443 12.3555564,12.1353375 C12.232413,12.3145561 12.1496802,12.3179711 11.9266642,12.3961207 C10.7940485,12.7929104 9.7615692,13.4645372 8.9753108,14.3720574 C8.1800209,15.2902166 7.663979,16.42089 7.4476212,17.6115877 C7.4348981,17.6817253 7.427317,17.9723892 7.3862473,18.0103476 C7.3299494,18.0626224 7.1021869,18.0395059 7.0160261,18.0496194 C6.7176606,18.0846225 6.4214046,18.1367003 6.1291039,18.2059185 C5.5902528,18.3334534 5.0657729,18.5211438 4.5696396,18.7666254 C2.6356033,19.723531 1.2525478,21.5174909 0.5756549,23.5361144 C-0.1345949,25.6545592 -0.1220037,28.0815964 0.7268813,30.1605068 C0.8640002,30.4962873 1.0271586,30.8222171 1.2187955,31.1305467 C1.3364672,31.3198132 1.3744386,31.3202729 1.2980344,31.5188648 C1.2128624,31.7397851 1.0572852,31.9544667 0.9561599,32.1703303 C0.6262175,32.874793 0.3955544,33.6219424 0.2498656,34.3850501 C0.0108303,35.6368226 -0.1076325,36.9522969 0.1281725,38.2135918 C0.2376699,38.799254 0.4284498,39.3717818 0.7194979,39.8934139 C0.8678896,40.1593852 1.0415297,40.411631 1.2375834,40.6449634 C1.3393678,40.7661281 1.4474808,40.881842 1.5605381,40.9926962 C1.6252081,41.0560039 1.7099845,41.111431 1.7649639,41.1821597 C1.8991823,41.3546142 1.9273971,41.2128285 1.8581785,41.4660594 C1.7614041,41.8200967 1.5420138,42.1694057 1.4076636,42.5139206 C1.2692262,42.868943 1.1441052,43.2288251 1.0296636,43.5922535 C0.7978799,44.3281731 0.6018921,45.077424 0.479342,45.8395467 C0.2439984,47.3027828 0.2853319,48.8618999 0.9774529,50.204825 C1.2733793,50.7792573 1.6979207,51.2831579 2.2128419,51.6751536 C2.4648638,51.8669157 2.7378492,52.0322119 3.0242168,52.1679557 C3.171356,52.2378307 3.3592353,52.2677771 3.4263445,52.4100881 C3.4985956,52.5631037 3.3913396,52.8669677 3.3668823,53.038043 C3.1540843,54.5263001 3.0473557,56.0888978 3.489762,57.5473398 C3.8972294,58.890659 4.7943696,60.0766939 5.9591555,60.8619331 C8.2187834,62.3851933 11.2646697,62.2992944 13.6389369,61.0798325 C14.257818,60.7619147 14.8368159,60.3672265 15.3533193,59.9016782 C16.6685404,61.6721932 19.3749915,61.6161751 21.2972276,61.1116834 C23.6920627,60.4832031 25.6137056,58.8179602 26.7208751,56.6300344 C28.2347869,58.4729856 31.411991,57.8750427 32.4618079,55.8757268 C32.718774,55.3864053 32.871187,54.8471075 32.9462069,54.3013738 C32.9856945,54.0143875 32.9605121,53.7249057 32.9901773,53.4402179 C33.0280168,53.0774462 33.2703482,52.7249193 33.4096426,52.3739686 C33.6809139,51.6909806 33.8493461,50.9854671 33.8565976,50.2487595 C33.8603552,49.8641191 33.8116384,49.4892637 33.7750514,49.1077099 C33.742156,48.7642457 33.8374141,48.4442264 33.8915365,48.105228 C33.277336,48.2063627 32.5290489,48.0407382 31.9503806,47.8626359 C31.3825236,47.6878829 30.8506603,47.2275884 30.4498511,46.8072225 C29.5192222,45.831075 28.950706,44.5514576 28.5618947,43.2778821 C27.7083952,40.4826224 28.0582462,37.1289544 30.8697779,35.5948583 C32.1795274,34.8802164 36.1033718,34.8825605 37.6633416,35.2357609 C39.3035816,35.6071356 41.1630595,39.2263842 41.25456,39.5665648 C41.3111875,39.7771089 41.282709,40.0376951 41.4761258,40.1779703 C41.9011945,40.4864314 42.6022151,39.9511395 42.9157428,39.6869414 C43.4567694,39.2309812 43.8426801,38.624304 44.1769075,38.0093522 C44.9051541,36.669645 45.4922605,35.2329403 45.9069794,33.7662893 C46.2267038,32.6355502 46.4311297,31.4695452 46.8490129,30.367636 C47.2648524,29.2711776 47.9203865,28.2911555 48.9396153,27.6700305 C50.048367,26.9943321 51.3192882,26.638456 52.5364825,26.2138213 C53.7429973,25.7929956 54.9286806,25.2786532 55.8639241,24.385712 C56.0695366,24.189353 56.269282,23.9807133 56.4348135,23.7495481 C56.5654721,23.5670459 56.6946144,23.2176712 56.8937005,23.1019573 C57.203207,22.9219506 57.6549084,23.39006 57.9225541,23.560019 C59.2429831,24.3986494 60.3446151,25.5682663 61.2331195,26.8459792 C62.1166797,28.1167309 62.841683,29.3394764 63.430833,30.7584496 C63.8678337,31.8108422 64.1405685,33.158627 64.9091597,34.0210964 C65.2522867,34.4061965 67.8028308,34.6391716 68.6289725,34.3029602 C69.4551141,33.9667489 70.380997,33.0937432 70.658267,32.5466304 C70.942129,31.9866459 71.009964,31.371497 70.888666,30.7584496 C70.817338,30.3977794 70.671649,30.0608825 70.591949,29.7066481 C70.52484,29.4090887 70.463927,29.1278158 70.319095,28.8552117 C70.044594,28.3386363 69.5756205,27.9673273 69.0100708,27.8120789 C69.5986275,27.2694318 70.086323,26.6202648 70.42378,25.8945901 C70.774422,25.1406764 71.071601,24.2238307 71.155916,23.3963645 C71.224476,22.7242781 71.11867,22.0279587 70.750756,21.4503742 C70.36478,20.844485 69.6810307,20.4492057 69.0894416,20.0712638 C69.9931082,19.3642399 70.766512,18.5043974 71.402335,17.5524173 C72.638845,15.7011258 73.403678,13.3675397 72.7757,11.1604378 Z" id="hair" fill="#191847"></path>
                </g>
                <g id="Bottom/Sitting/Sweat-Pants" transform="translate(0.000000, 173.000000)">
                    <g id="Objects/Seat/Cube-2" transform="translate(0.000000, 42.000000)" fill="#C5CFD6">
                        <path d="M131,0 C139.836556,0 147,7.163444 147,16 L147,108 C147,116.836556 139.836556,124 131,124 L16,124 C7.163444,124 0,116.836556 0,108 L0,16 C0,7.163444 7.163444,0 16,0 L131,0 Z M115,28 L32,28 C29.790861,28 28,29.790861 28,32 L28,32 L28,92 C28,94.209139 29.790861,96 32,96 L32,96 L115,96 C117.209139,96 119,94.209139 119,92 L119,92 L119,32 C119,29.790861 117.209139,28 115,28 L115,28 Z" id="Seat"></path>
                    </g>
                    <path d="M206.090229,37.5018287 C211.168086,50.6507477 220.032873,93.8526085 230.684593,159.107411 L218.509253,162.659849 C205.696468,134.301545 196.430392,109.608281 192.711023,96.5800564 C186.34256,74.2725728 181.497817,54.6432898 180.273327,47.3127766 C177.353374,29.8322277 202.735275,28.8143004 206.090229,37.5018287 Z M167.678573,74.1595557 C130.611563,79.4942994 78.062816,85.0032894 73.565792,85.6215241 C67.26302,86.4880065 62.500245,76.5838567 69.888346,73.6635414 C81.644063,69.0168268 122.811956,54.4748802 142.66723,50.3612296 C148.37284,49.1791314 153.902884,48.0808288 159.102095,47.0882686 C174.555991,44.1380286 182.56256,72.0174283 167.678573,74.1595557 Z" id="Skin" fill="#B28B67"></path>
                    <path d="M112.562186,0 C174.079876,15.6757222 205.515366,25.7216696 206.868655,30.1378423 C206.883714,30.1869846 206.897479,30.2361936 206.909948,30.2854692 C206.94163,30.3238462 206.971064,30.3634124 207,30.4032083 C219.191506,47.1700257 226.49295,129.026966 228.889416,135.156136 L205.52773,138.641377 C196.591265,105.503295 168,82.4181007 168.759487,42.7290106 C168.55445,41.5650096 168.502612,40.4611405 168.58707,39.4168872 L105,7.04671741 L105,0 L112.562186,0 Z" id="Leg-Back" fill="#1F28CF"></path>
                    <path d="M115.941763,-4.97379915e-14 C124.854593,2.56031807 171.174037,21.9848377 195.206622,32.316337 C211.112045,39.1540062 206.098892,63.8027037 197.091931,70.2187883 C197.042683,70.6119747 196.880506,70.8801196 196.591265,71 C148.136867,91.0826527 109.804991,80.5453361 97.0000003,83.9121674 L91.07712,65.2284164 L110.282146,58.6402703 C104.464468,57.475702 99.107008,56.4363434 94.522705,55.6322592 C64.90929,50.4380832 56.273766,34.5862504 61.379549,-4.97379915e-14 L115.941763,-4.97379915e-14 Z" id="Leg-Front" fill="#2B44FF"></path>
                    <g id="Accessories/Shoe/Flat-Sneaker" transform="translate(82.201565, 97.046949) rotate(64.000000) translate(-82.201565, -97.046949) translate(53.201565, 86.546949)" fill="#E4E4E4">
                        <path d="M1.67813181,6.4019242 C0.55937727,9.3884109 0,11.6229931 0,13.1056708 C0,14.908957 0.3004142,17.5404001 0.90124261,21 C2.99318117,21 21.7937852,21 57.3030548,21 C58.768738,16.1545073 57.9226607,13.5385816 54.7648228,13.1522232 C51.606985,12.7658647 48.9837155,12.4170139 46.8950143,12.1056708 L20.6799926,0.4188835 C20.1755635,0.1940064 19.584344,0.4206282 19.359467,0.9250573 C19.35562,0.9336867 19.3518954,0.9423702 19.3482945,0.9511052 L17.6632131,5.038695 L17.6632131,5.038695 C14.7398812,6.4026522 12.3643706,7.0846307 10.5366811,7.0846307 C9.0517269,7.0846307 7.00099246,6.4849054 4.38447792,5.2854549 L4.38448339,5.285443 C3.38038273,4.8251478 2.19325534,5.2659892 1.73296014,6.2700899 C1.71312074,6.3133681 1.69483298,6.3573409 1.67813181,6.4019242 Z" id="shoe"></path>
                    </g>
                    <g id="Accessories/Shoe/Flat-Sneaker" transform="translate(211.000000, 151.000000)" fill="#E4E4E4">
                        <path d="M1.67813181,6.4019242 C0.55937727,9.3884109 0,11.6229931 0,13.1056708 C0,14.908957 0.3004142,17.5404001 0.90124261,21 C2.99318117,21 21.7937852,21 57.3030548,21 C58.768738,16.1545073 57.9226607,13.5385816 54.7648228,13.1522232 C51.606985,12.7658647 48.9837155,12.4170139 46.8950143,12.1056708 L20.6799926,0.4188835 C20.1755635,0.1940064 19.584344,0.4206282 19.359467,0.9250573 C19.35562,0.9336867 19.3518954,0.9423702 19.3482945,0.9511052 L17.6632131,5.038695 L17.6632131,5.038695 C14.7398812,6.4026522 12.3643706,7.0846307 10.5366811,7.0846307 C9.0517269,7.0846307 7.00099246,6.4849054 4.38447792,5.2854549 L4.38448339,5.285443 C3.38038273,4.8251478 2.19325534,5.2659892 1.73296014,6.2700899 C1.71312074,6.3133681 1.69483298,6.3573409 1.67813181,6.4019242 Z" id="shoe"></path>
                    </g>
                </g>
                <g id="Body/Jacket" transform="translate(3.000000, 68.000000)">
                    <path d="M34.3079281,93.0198914 L55.2053198,93.1020711 C42.3021447,134.755739 35.3363474,156.856914 34.3079281,159.405597 C31.9939846,165.140133 36.8906002,173.873732 38.9845874,178.567103 C32.1645409,181.61887 32.8912241,170.316929 24.2879189,174.319492 C16.4352209,177.972846 10.4616931,184.59248 1.3890352,178.994371 C0.2736052,178.306117 -0.9487243,175.714714 2.0045784,173.68967 C9.3623323,168.644547 19.9653015,159.814672 21.3979297,156.908251 C23.3515741,152.944826 27.6549068,131.648706 34.3079281,93.0198914 L34.3079281,93.0198914 Z M160.04441,89.1225115 L188.372314,116.757535 C196.61469,120.273345 203.368143,124.155511 208.632673,128.40403 C209.816587,129.832102 211.10547,132.568362 205.535214,131.343925 C199.964957,130.119488 194.050816,129.082079 193.003896,130.893567 C191.956977,132.705055 195.041811,135.480899 193.106974,137.851671 C191.817082,139.432186 187.479076,134.404878 180.092956,122.769747 L150.635682,105.402467 L160.04441,89.1225115 Z" id="Skin" fill="#B28B67"></path>
                    <path d="M88.01899,9.23199981 L96.503942,7.00082913 C114.576175,42.7520052 143.414525,74.1501034 183.01899,101.195124 L158.061793,137.56505 C117.33882,97.6857553 90.670571,55.1985909 88.01899,9.23199981 Z" id="Coat-Back" fill="#191847" transform="translate(135.518990, 72.282940) rotate(5.000000) translate(-135.518990, -72.282940) "></path>
                    <path d="M56,114 L133,114 C115.16087,70.6251468 106.241304,33.7787236 106.241304,3.4607303 L83.014208,0 C64.7598929,29.3584068 59.6048263,65.5045499 56,114 Z" id="Shirt" fill="#DDE3E9"></path>
                    <path d="M84.047752,-4.26325641e-14 C85.86198,0.0624731357 88.625282,0.175030894 92.337658,0.337673275 L92.337658,0.337673275 L97.950158,16.3768801 C98.543836,35.9324229 102.010826,75.3421183 108.351127,134.605966 L108.351127,134.605966 L57.8760675,134.60553 C58.008386,138.698782 58.2265651,142.830272 58.5306047,147 L58.5306047,147 L21,147 C26.6139164,83.6639633 47.1152373,34.6639633 82.503963,-4.26325641e-14 L82.503963,-4.26325641e-14 L82.522,0.017 L82.531583,-4.26325641e-14 L84.047752,-4.26325641e-14 Z" id="Coat-Front" fill="#2F3676"></path>
                    <path d="M72,135 L57.889057,134.999288 C57.2713571,116.643048 58.3783198,99.0548837 61.2099449,82.2347951 C62.6469231,107.748771 66.243477,125.3371 72,135 Z" id="Shade" fill-opacity="0.1" fill="#000000"></path>
                    <polygon id="Light" fill-opacity="0.2" fill="#FFFFFF" points="69.110899 104 94 92.4292718 94 104"></polygon>
                </g>
            </g>
            <g id="A-Human/Sitting" transform="translate(1759.000000, 499.000000) scale(-1, 1) translate(-1759.000000, -499.000000) translate(1606.000000, 333.000000)" fill-rule="nonzero">
                <g id="Head/Front/Caesar" transform="translate(118.000000, 0.000000)">
                    <g id="Head" transform="translate(2.000000, 2.000000)" fill="#B28B67">
                        <path d="M38.1433414,9.13393292 C43.9381521,19.9350547 43.249578,47.3329958 35.7603014,49.2634576 C32.773664,50.0333035 26.4113241,48.1475566 19.935865,44.2446031 L24,73 L0,73 L8.26160177,34.4893378 C3.65406109,29.0807313 0.535660132,22.452516 1.05677633,15.0254539 C2.55833022,-6.37502057 32.3485306,-1.66718886 38.1433414,9.13393292 Z" id="路径"></path>
                    </g>
                    <path d="M22,0 C34.8690713,0 39.7485692,5.3062174 40,10 C34.4853531,11.5156046 24.8492499,12.0992165 11,12 L11,13 L23,14 L25,20 C21.818039,19.7624584 19.5442321,21.9450202 17.7297608,24.8671184 C16.9456796,24.3278818 16.0076493,24 15,24 C12.2385763,24 10,26.4624339 10,29 C10,31.6396292 11.2463746,33.6806558 13.0263305,34.5467302 C12.0760809,36.4058117 11.1200109,37.7549645 10,38 C5.6781395,37.5628085 0,26.8205201 0,18 C0,8.3455086 7.6819829,0 22,0 Z" id="Combined-Shape" fill="#191847"></path>
                </g>
                <g id="Bottom/Sitting/Sweat-Pants" transform="translate(33.000000, 158.000000)">
                    <g id="Objects/Seat/Ball" transform="translate(0.000000, 27.000000)" fill="#C5CFD6">
                        <ellipse id="Ballsy-Ball" cx="77" cy="73.5" rx="77" ry="73.5"></ellipse>
                    </g>
                    <path d="M210.090229,37.5018287 C215.168086,50.6507477 224.032873,93.8526085 234.684593,159.107411 L222.509253,162.659849 C209.696468,134.301545 200.430392,109.608281 196.711023,96.5800564 C190.34256,74.2725728 185.497817,54.6432898 184.273327,47.3127766 C181.353374,29.8322277 206.735275,28.8143004 210.090229,37.5018287 Z M171.678573,74.1595557 C134.611563,79.4942994 82.062816,85.0032894 77.565792,85.6215241 C71.26302,86.4880065 66.500245,76.5838567 73.888346,73.6635414 C85.644063,69.0168268 126.811956,54.4748802 146.66723,50.3612296 C152.37284,49.1791314 157.902884,48.0808288 163.102095,47.0882686 C178.555991,44.1380286 186.56256,72.0174283 171.678573,74.1595557 Z" id="Skin" fill="#B28B67"></path>
                    <path d="M116.562186,0 C178.079876,15.6757222 209.515366,25.7216696 210.868655,30.1378423 C210.883714,30.1869846 210.897479,30.2361936 210.909948,30.2854692 C210.94163,30.3238462 210.971064,30.3634124 211,30.4032083 C223.191506,47.1700257 230.49295,129.026966 232.889416,135.156136 L209.52773,138.641377 C200.591265,105.503295 172,82.4181007 172.759487,42.7290106 C172.55445,41.5650096 172.502612,40.4611405 172.58707,39.4168872 L109,7.04671741 L109,0 L116.562186,0 Z" id="Leg-Back" fill="#1F28CF"></path>
                    <path d="M119.941763,-4.97379915e-14 C128.854593,2.56031807 175.174037,21.9848377 199.206622,32.316337 C215.112045,39.1540062 210.098892,63.8027037 201.091931,70.2187883 C201.042683,70.6119747 200.880506,70.8801196 200.591265,71 C152.136867,91.0826527 113.804991,80.5453361 101,83.9121674 L95.07712,65.2284164 L114.282146,58.6402703 C108.464468,57.475702 103.107008,56.4363434 98.522705,55.6322592 C68.90929,50.4380832 60.273766,34.5862504 65.379549,-4.97379915e-14 L119.941763,-4.97379915e-14 Z" id="Leg-Front" fill="#2B44FF"></path>
                    <g id="Accessories/Shoe/Flat-Sneaker" transform="translate(86.201565, 97.046949) rotate(64.000000) translate(-86.201565, -97.046949) translate(57.201565, 86.546949)" fill="#E4E4E4">
                        <path d="M1.67813181,6.4019242 C0.55937727,9.3884109 0,11.6229931 0,13.1056708 C0,14.908957 0.3004142,17.5404001 0.90124261,21 C2.99318117,21 21.7937852,21 57.3030548,21 C58.768738,16.1545073 57.9226607,13.5385816 54.7648228,13.1522232 C51.606985,12.7658647 48.9837155,12.4170139 46.8950143,12.1056708 L20.6799926,0.4188835 C20.1755635,0.1940064 19.584344,0.4206282 19.359467,0.9250573 C19.35562,0.9336867 19.3518954,0.9423702 19.3482945,0.9511052 L17.6632131,5.038695 L17.6632131,5.038695 C14.7398812,6.4026522 12.3643706,7.0846307 10.5366811,7.0846307 C9.0517269,7.0846307 7.00099246,6.4849054 4.38447792,5.2854549 L4.38448339,5.285443 C3.38038273,4.8251478 2.19325534,5.2659892 1.73296014,6.2700899 C1.71312074,6.3133681 1.69483298,6.3573409 1.67813181,6.4019242 Z" id="shoe"></path>
                    </g>
                    <g id="Accessories/Shoe/Flat-Sneaker" transform="translate(215.000000, 151.000000)" fill="#E4E4E4">
                        <path d="M1.67813181,6.4019242 C0.55937727,9.3884109 0,11.6229931 0,13.1056708 C0,14.908957 0.3004142,17.5404001 0.90124261,21 C2.99318117,21 21.7937852,21 57.3030548,21 C58.768738,16.1545073 57.9226607,13.5385816 54.7648228,13.1522232 C51.606985,12.7658647 48.9837155,12.4170139 46.8950143,12.1056708 L20.6799926,0.4188835 C20.1755635,0.1940064 19.584344,0.4206282 19.359467,0.9250573 C19.35562,0.9336867 19.3518954,0.9423702 19.3482945,0.9511052 L17.6632131,5.038695 L17.6632131,5.038695 C14.7398812,6.4026522 12.3643706,7.0846307 10.5366811,7.0846307 C9.0517269,7.0846307 7.00099246,6.4849054 4.38447792,5.2854549 L4.38448339,5.285443 C3.38038273,4.8251478 2.19325534,5.2659892 1.73296014,6.2700899 C1.71312074,6.3133681 1.69483298,6.3573409 1.67813181,6.4019242 Z" id="shoe"></path>
                    </g>
                </g>
                <g id="Body/Trench-Coat" transform="translate(0.000000, 53.000000)">
                    <path d="M60.3748075,70.4422362 L77.7206892,74.8517457 C54.5010655,113.888004 42.0840272,134.518222 40.4695742,136.742401 C36.8370549,141.746803 39.4753713,151.405575 40.3717289,156.466114 C33.0159775,157.777312 36.4552622,146.986888 27.1392043,148.78923 C18.6359386,150.434324 11.2384158,155.412199 3.78955964,147.785504 C2.87376654,146.847846 2.31466243,144.037711 5.67014188,142.787288 C14.0298649,139.672029 26.4540206,133.669529 28.5472206,131.196025 C31.4016727,127.82296 42.0108683,107.571697 60.3748075,70.4422362 L60.3748075,70.4422362 Z M203.692975,90.2442388 L233.879596,115.83589 C242.347145,118.768177 249.354953,122.169788 254.90302,126.040723 C256.183668,127.382731 257.660283,130.022417 252.018183,129.189525 C246.376083,128.356632 240.403982,127.734299 239.485976,129.614404 C238.56797,131.49451 241.838922,134.048404 240.074175,136.548369 C238.897677,138.215012 234.219551,133.502554 226.039797,122.410996 L195.442799,107.140857 L203.692975,90.2442388 Z" id="Skin" fill="#B28B67" transform="translate(129.586251, 113.509597) rotate(-4.000000) translate(-129.586251, -113.509597) "></path>
                    <path d="M144.264162,2.04144427 C159.1728,32.8586321 179.34952,62.4239679 209.321564,87.6788376 C213.426219,87.3835185 217.889688,88.0634542 222.675075,89.6758318 C225.030261,90.4693828 226.296216,93.0219384 225.502665,95.3771242 C225.041858,96.7447568 223.987913,97.7450999 222.723906,98.188165 C223.638754,98.8563073 224.562849,99.520867 225.495159,100.181671 L217.447983,116.609623 C183.58505,99.7255288 151.757134,86.9958405 137.253857,59.1215578 C132.386182,49.766228 134.033751,17.9882599 133.569134,6.42756866 L144.264162,2.04144427 Z" id="Back-Arm" fill="#69A1AC"></path>
                    <path d="M96,113.909745 C127.438326,117.363418 152.183737,117.363418 170.236234,113.909745 C172.472817,113.481858 172.374598,103.840401 171.337385,101.207228 C155.185283,60.2018743 144.560302,30.1840325 144.560302,1.70263734 C141.596594,3.25072994 136.409827,3.48273097 129,2.39864042 C109.086202,31.7496339 99.9325378,65.4265407 96,113.909745 Z" id="Shirt" fill="#191847"></path>
                    <path d="M132.348425,-4.19220214e-13 C129,44.2807404 175.249642,140.9549 159.190593,223.518112 C129.507857,230.146789 87.1319105,209.522766 45.8828129,226 C47.4177174,192.750378 78.1641281,153.689543 90.1591577,118.756122 C89.0907846,117.752921 88.5343434,116.247171 88.8078928,114.695795 L89.3288374,111.741372 C89.6816959,109.740212 91.3063314,108.28273 93.2249777,108.053567 C93.5631559,106.554137 93.8526566,105.063334 94.0917371,103.583451 C96.1104671,91.0877276 92.6615358,78.8352569 92.8232868,66.8032625 C76.9888813,80.3120383 62.7594461,103.489383 50.1347682,136.334336 L49.5479488,137.871041 L30.6611622,132.313477 C31.3819892,129.635524 32.1286459,126.990471 32.9011324,124.378317 C30.72195,123.144957 28.1728798,117.466228 30.0066041,116.516161 C31.8996562,115.535355 33.905105,114.844989 36.0170446,114.438594 C53.1618048,62.8012603 81.0890514,24.8974922 119.799335,0.728198826 L120.975674,-4.19220214e-13 L132.348425,-4.19220214e-13 Z" id="Coat-Front" fill="#89C5CC"></path>
                    <polygon id="Shade-Lapel" fill-opacity="0.1" fill="#000000" points="125.105759 1 119.946604 16.8654451 130.335997 28.7590435 120.946604 38.1055065 143.662251 77 115.883587 38.1832119 125.105759 28.7590435 115.883587 18.2484583"></polygon>
                    <path d="M143,130 C145.209139,130 147,131.790861 147,134 C147,136.209139 145.209139,138 143,138 C140.790861,138 139,136.209139 139,134 C139,131.790861 140.790861,130 143,130 Z M142,107 C144.209139,107 146,108.790861 146,111 C146,113.209139 144.209139,115 142,115 C139.790861,115 138,113.209139 138,111 C138,108.790861 139.790861,107 142,107 Z M137,84 C139.209139,84 141,85.790861 141,88 C141,90.209139 139.209139,92 137,92 C134.790861,92 133,90.209139 133,88 C133,85.790861 134.790861,84 137,84 Z" id="Buttons" fill-opacity="0.4" fill="#000000"></path>
                </g>
            </g>
            <g id="A-Human/Sitting" transform="translate(1963.500000, 494.500000) scale(-1, 1) translate(-1963.500000, -494.500000) translate(1835.000000, 332.000000)" fill-rule="nonzero">
                <g id="Head/Front/Hijab-1" transform="translate(74.000000, 0.000000)">
                    <g id="Head" transform="translate(18.000000, 3.000000)" fill="#B28B67">
                        <path d="M38.1433414,9.13393292 C43.9381521,19.9350547 43.249578,47.3329958 35.7603014,49.2634576 C32.773664,50.0333035 26.4113241,48.1475566 19.935865,44.2446031 L24,73 L0,73 L8.26160177,34.4893378 C3.65406109,29.0807313 0.535660132,22.452516 1.05677633,15.0254539 C2.55833022,-6.37502057 32.3485306,-1.66718886 38.1433414,9.13393292 Z" id="路径"></path>
                    </g>
                    <g id="Hijab">
                        <path d="M50.7350002,5.01147183 C50.1852708,4.68336774 49.0351409,3.99129844 48.4524743,3.74047035 C48.3145899,3.68011316 47.3491609,2.99135428 47.3231986,2.9999193 C46.5922497,3.24668063 44.475629,4.157139 44.2939574,4.94386372 C44.2657992,5.00348239 44.2381578,5.05940846 44.2112267,5.10828502 C43.9113039,5.65351385 43.6361163,6.21230459 43.373587,6.77787628 C42.7975078,8.01939475 42.3002198,9.31697358 41.8252774,10.6043474 C40.9001924,13.1115541 40.0965233,15.677171 39.3576307,18.2486288 C38.6053695,20.8663449 37.9669033,23.5146088 37.2521648,26.1431341 C36.2236827,29.9254283 34.9073547,33.6149377 33.8859767,37.3956877 C33.2337544,39.8097738 32.8709924,42.2521922 33.0422662,44.7368405 C33.0439454,44.7667169 33.0449141,44.7961906 33.0476266,44.826537 C33.0486599,44.8389576 33.0502099,44.8512438 33.0513078,44.8636644 C33.0804347,45.2456133 33.1219615,45.6285021 33.177309,46.0125322 C33.2257461,46.3409049 33.2743124,46.670486 33.3261079,47 C34.2590719,45.1396022 34.9713564,43.0896733 35.7272342,41.1440101 C35.8011816,40.9535392 35.8717061,40.7616583 35.940616,40.5691733 C36.1843517,40.1746025 36.4328666,39.7828514 36.6841585,39.3925774 C38.2688928,36.9315618 39.8598917,34.4796098 41.3795265,31.9740815 C44.1128024,27.4677025 46.8205682,22.8660544 50.061078,18.727928 C51.0179377,17.5059467 51.9970785,16.302697 52.9419258,15.0707121 C53.4795781,14.3696557 54.0032806,13.6568501 54.5099977,12.9313553 C54.872243,12.4125789 56.4471311,10.6043474 55.8768295,9.51791803 C55.585039,8.96205474 52.1610544,5.8627163 50.7350002,5.01147183 Z" id="Front" fill="#2C2C2C"></path>
                        <path d="M48.6260171,3.83116599 C49.1606177,4.01081921 48.9005286,2.8983607 48.3827244,2.5068843 C45.9838484,0.693257683 36.8126531,0.035129961 28.8316831,1.69188377 C23.4851811,2.80175357 17.2670643,5.56416284 12.9966544,9.11545816 C9.14699464,12.3169592 6.49948445,17.4491331 5.13642247,22.407675 C3.70525344,27.6142408 3.48849539,33.0422873 4.28584125,38.381368 C4.46101123,39.5541291 4.83740954,40.6717368 5.04712657,41.8196221 C5.28329677,43.1122936 5.40444175,44.3568809 5.8254551,45.6145396 C6.08327479,46.3844871 6.52139715,47.1392958 6.74137959,47.9136449 C6.99248728,48.7972339 6.8394274,49.6146653 6.65629515,50.5133931 C6.35787446,51.9781941 5.98785913,53.4399939 5.46202016,54.8389709 C4.67237336,56.9397371 3.71413697,58.9072548 3.11334736,61.0872499 C2.31396158,63.9879079 -1.02991389,73.427136 1.41378875,76 L47.9323913,76 C46.761016,72.8047679 43.2449088,69.0442856 42.533108,65.623838 C42.1138713,63.608903 41.9144197,59.2085647 41.8705285,59.0486397 C40.8222264,51.8223372 38.7753261,48.3714635 37.4933414,47.1190983 C36.2113566,45.8667332 34.5038477,45.4816245 34.4158679,44.3952949 C34.0522355,39.9023228 35.8388772,35.5973526 37.1489671,31.4041565 C38.710362,26.4065336 39.854626,21.2849322 41.464321,16.3042488 C42.1771089,14.098711 45.8502346,2.8983607 48.6260171,3.83116599 Z" id="Turban" fill="#8991DC"></path>
                        <path d="M14.373523,47.8804331 C23.9808594,50.889665 22.9106953,57.1023672 35.0112076,63.394114 L34,64.0068145 C23.4044272,59.6340646 20.9275677,50.2553327 13.6694535,48.7363176 L14.373523,47.8804331 Z M22.2134556,15.2923054 C23.6982144,26.5510679 24.1316878,32.9820818 31.8664459,45.2976376 L31.0435239,45.5492301 C23.0831253,34.8261446 21.8212801,26.0740972 21.4451908,15.3541394 L22.2134556,15.2923054 Z M8.78209035,23.3643083 C12.0510625,31.2963757 13.5415304,35.9803784 22.6701438,42.3991504 L21.9652448,42.892726 C12.9031248,37.7568562 10.2641419,31.6306096 8.09450288,23.6947526 L8.78209035,23.3643083 Z M32.3160356,9 C30.5618427,14.565951 30.1845546,17.5370354 30.5618427,25.1421085 L29.7013199,25.1421085 C28.0937737,17.9652054 29.5245027,11.2089071 31.2344582,9 L32.3160356,9 Z" id="Shade" fill-opacity="0.2" fill="#000000"></path>
                    </g>
                </g>
                <g id="Bottom/Sitting/Skinny-Jeans-1" transform="translate(21.000000, 159.000000)">
                    <g id="Objects/Seat/Cube" transform="translate(0.000000, 42.000000)">
                        <g id="Seat">
                            <polygon id="Seat-Stuff" fill="#C5CFD6" points="27.6226415 0 104.877193 0 115 124 0 124"></polygon>
                            <polygon id="Seat-Stuff" fill-opacity="0.1" fill="#000000" points="27.6226415 0 51.3828011 0 65.6037736 124 0 124"></polygon>
                        </g>
                    </g>
                    <path d="M192.954028,20.756908 L193.24189,20.5887017 C201.50855,15.9575335 215.00938,22.2466943 215.00001,29.2384154 C214.971611,50.4029106 195.656682,150.1511 194.648224,156.456711 C193.639766,162.762321 182.83665,164.42787 182.20755,156.477375 C181.206544,143.826795 179.3468,100.033121 181.20755,79.7626522 C181.975689,71.3947628 182.802939,63.4254961 183.617343,56.3158982 C173.483775,74.6174738 157.808496,100.823961 136.593128,134.933778 L125.076573,129.672175 C134.120166,99.8760987 141.535776,78.8408618 147.323403,66.5664641 C157.233227,45.5497154 166.525307,27.551672 170.436043,21.2120072 C176.587899,11.2392801 187.296386,14.7194928 192.954028,20.756908 Z" id="Skin" fill="#B28B67"></path>
                    <path d="M143.819223,123.340113 L148.936922,21.8299357 C152.625361,4.27740038 183.84365,12.4235357 183.83082,21.8299357 C183.801666,43.1853756 170.973522,116.956763 170.964839,123.319262 L143.819223,123.340113 Z" id="LegLower" fill="#1F28CF" transform="translate(163.825021, 67.419631) rotate(20.000000) translate(-163.825021, -67.419631) "></path>
                    <g id="Accessories/Shoe/Flat-Sneaker" transform="translate(145.316987, 140.977241) rotate(30.000000) translate(-145.316987, -140.977241) translate(116.316987, 130.477241)" fill="#E4E4E4">
                        <path d="M1.67813181,6.4019242 C0.55937727,9.3884109 0,11.6229931 0,13.1056708 C0,14.908957 0.3004142,17.5404001 0.90124261,21 C2.99318117,21 21.7937852,21 57.3030548,21 C58.768738,16.1545073 57.9226607,13.5385816 54.7648228,13.1522232 C51.606985,12.7658647 48.9837155,12.4170139 46.8950143,12.1056708 L20.6799926,0.4188835 C20.1755635,0.1940064 19.584344,0.4206282 19.359467,0.9250573 C19.35562,0.9336867 19.3518954,0.9423702 19.3482945,0.9511052 L17.6632131,5.038695 L17.6632131,5.038695 C14.7398812,6.4026522 12.3643706,7.0846307 10.5366811,7.0846307 C9.0517269,7.0846307 7.00099246,6.4849054 4.38447792,5.2854549 L4.38448339,5.285443 C3.38038273,4.8251478 2.19325534,5.2659892 1.73296014,6.2700899 C1.71312074,6.3133681 1.69483298,6.3573409 1.67813181,6.4019242 Z" id="shoe"></path>
                    </g>
                    <g id="Accessories/Shoe/Flat-Sneaker" transform="translate(178.000000, 145.000000)" fill="#E4E4E4">
                        <path d="M1.67813181,6.4019242 C0.55937727,9.3884109 0,11.6229931 0,13.1056708 C0,14.908957 0.3004142,17.5404001 0.90124261,21 C2.99318117,21 21.7937852,21 57.3030548,21 C58.768738,16.1545073 57.9226607,13.5385816 54.7648228,13.1522232 C51.606985,12.7658647 48.9837155,12.4170139 46.8950143,12.1056708 L20.6799926,0.4188835 C20.1755635,0.1940064 19.584344,0.4206282 19.359467,0.9250573 C19.35562,0.9336867 19.3518954,0.9423702 19.3482945,0.9511052 L17.6632131,5.038695 L17.6632131,5.038695 C14.7398812,6.4026522 12.3643706,7.0846307 10.5366811,7.0846307 C9.0517269,7.0846307 7.00099246,6.4849054 4.38447792,5.2854549 L4.38448339,5.285443 C3.38038273,4.8251478 2.19325534,5.2659892 1.73296014,6.2700899 C1.71312074,6.3133681 1.69483298,6.3573409 1.67813181,6.4019242 Z" id="shoe"></path>
                    </g>
                    <path d="M217.770373,36.4330278 C217.770373,63 205.1536,124.970293 205.145616,130.820112 L178,130.840963 C181.973277,75.5454811 183.382172,47.5998928 182.226683,47.0041979 C180.49345,46.1106556 111.175838,53.9250306 90.386358,53.9250306 C60.407825,53.9250306 48.006307,35.0203971 47,-4.40536496e-13 L106.386358,-4.40536496e-13 C118.477954,1.29386693 181.548825,14.0152568 204.972097,18.3884129 C215,20.2606358 217.770373,29.1145109 217.770373,36.4330278 Z" id="Leg-and-Butt" fill="#2B44FF"></path>
                </g>
                <g id="Body/Turtle-Neck" transform="translate(0.000000, 49.000000)">
                    <path d="M38.9697919,72.4496834 L60.8671837,72.5318631 C44.1894326,126.56567 35.3363474,154.856914 34.3079281,157.405597 C31.9939846,163.140133 36.8906002,171.873732 38.9845874,176.567103 C32.1645409,179.61887 32.8912241,168.316929 24.2879189,172.319492 C16.4352209,175.972846 10.4616931,182.59248 1.3890352,176.994371 C0.2736052,176.306117 -0.9487243,173.714714 2.0045784,171.68967 C9.3623323,166.644547 19.9653015,157.814672 21.3979297,154.908251 C23.3515741,150.944826 29.2088615,123.458637 38.9697919,72.4496834 L38.9697919,72.4496834 Z M177.493124,97.4603344 L205.821028,125.095357 C214.063404,128.611168 220.816857,132.493333 226.081387,136.741853 C227.265301,138.169925 228.554184,140.906184 222.983927,139.681747 C217.413671,138.45731 211.49953,137.419902 210.45261,139.23139 C209.405691,141.042878 212.490525,143.818722 210.555688,146.189494 C209.265796,147.770009 204.92779,142.742701 197.54167,131.10757 L168.084396,113.74029 L177.493124,97.4603344 Z" id="Skin" fill="#B28B67"></path>
                    <path d="M100.768272,14.7139848 L109.253224,12.4828141 C127.019938,59.2642227 199.602897,85.8616426 205.451896,103.419063 C207.596879,109.857833 203.154909,113.596168 205.774893,115.385298 L195.29519,124.561394 C193.205566,122.515062 189.513381,126.915723 180.815928,124.824345 C172.118475,122.732967 105.737533,71.5128914 100.768272,14.7139848 Z" id="Clothes-Back" fill="#DB2721" transform="translate(153.413267, 68.943241) rotate(5.000000) translate(-153.413267, -68.943241) "></path>
                    <path d="M90.315629,0.27902589 L117.249859,2.16245069 C119.453616,2.31655243 121.115191,4.22797513 120.961089,6.43173278 L120.241614,16.6763485 C119.22167,80.4733311 156.098291,96.7368983 147.887262,122.318245 C141.108761,143.436573 76.2273311,166.138686 65,145.43774 C60.4547451,137.057203 58.3928582,126.921313 58.1593383,115.901428 C55.2906083,124.368441 53.0207635,131.656945 51.3511268,137.767479 C48.5085858,148.170606 37.5948605,149.93786 37.3118665,153.886247 L37.3062598,154.043262 L22.5966299,149.982871 C23.5943495,144.466662 16.6598745,141.780597 18.5191881,129.456905 C26.8498993,74.2402236 49.2328417,34.2151944 85.668015,9.38181722 L86.046347,3.9902562 C86.200449,1.78649855 88.111872,0.12492415 90.315629,0.27902589 Z" id="Clothes-Front" fill="#FF4133"></path>
                </g>
            </g>
            <text id="Mix-&amp;-Match-to-create-a-diverse-group." fill="#2F1136" font-family="AvenirNext-Regular, Avenir Next" font-size="24" font-weight="normal">
                <tspan x="964.450546" y="742">Mix-&amp;-Match to create a diverse group.</tspan>
            </text>
        </g>
    </g>
</svg>