<?xml version="1.0" encoding="UTF-8"?>
<svg width="714px" height="858px" viewBox="0 0 714 858" version="1.1" xmlns="http://www.w3.org/2000/svg" xmlns:xlink="http://www.w3.org/1999/xlink">
    <!-- Generator: Sketch 58 (84663) - https://sketch.com -->
    <title>main</title>
    <desc>Created with Sketch.</desc>
    <defs>
        <linearGradient x1="-0.0131088394%" y1="49.9747711%" x2="99.9604931%" y2="49.9747711%" id="linearGradient-1">
            <stop stop-color="#19233D" offset="0%"></stop>
            <stop stop-color="#FC860A" offset="99.94%"></stop>
        </linearGradient>
        <linearGradient x1="0.0310468576%" y1="50.0447808%" x2="100.090854%" y2="50.0447808%" id="linearGradient-2">
            <stop stop-color="#271C41" offset="0%"></stop>
            <stop stop-color="#19233D" offset="100%"></stop>
        </linearGradient>
        <linearGradient x1="0.0740436918%" y1="50.0190544%" x2="100.118171%" y2="50.0190544%" id="linearGradient-3">
            <stop stop-color="#271C41" offset="0%"></stop>
            <stop stop-color="#19233D" offset="100%"></stop>
        </linearGradient>
        <linearGradient x1="0.127231353%" y1="49.9931124%" x2="100.059815%" y2="49.9931124%" id="linearGradient-4">
            <stop stop-color="#FFFFFF" offset="0%"></stop>
            <stop stop-color="#87AEB4" stop-opacity="0.4" offset="98.01%"></stop>
        </linearGradient>
        <linearGradient x1="0.0196916512%" y1="50.0107739%" x2="99.9762011%" y2="50.0107739%" id="linearGradient-5">
            <stop stop-color="#FFFFFF" offset="0%"></stop>
            <stop stop-color="#87AEB4" stop-opacity="0.4" offset="98.01%"></stop>
        </linearGradient>
        <linearGradient x1="-0.0738839895%" y1="50.0014169%" x2="99.9996236%" y2="50.0014169%" id="linearGradient-6">
            <stop stop-color="#271C41" offset="0%"></stop>
            <stop stop-color="#19233D" offset="100%"></stop>
        </linearGradient>
        <linearGradient x1="0.0458201893%" y1="50.0180303%" x2="100.001656%" y2="50.0180303%" id="linearGradient-7">
            <stop stop-color="#19233D" offset="47.13%"></stop>
            <stop stop-color="#271C41" offset="100%"></stop>
        </linearGradient>
        <linearGradient x1="0.0240993184%" y1="50.018601%" x2="100.017868%" y2="50.018601%" id="linearGradient-8">
            <stop stop-color="#19233D" offset="47.13%"></stop>
            <stop stop-color="#271C41" offset="100%"></stop>
        </linearGradient>
        <linearGradient x1="0.0196018377%" y1="50.0185956%" x2="100.060337%" y2="50.0185956%" id="linearGradient-9">
            <stop stop-color="#FFFFFF" offset="0%"></stop>
            <stop stop-color="#87AEB4" stop-opacity="0.4" offset="98.01%"></stop>
        </linearGradient>
        <linearGradient x1="0.132341992%" y1="49.9803962%" x2="100.040392%" y2="49.9803962%" id="linearGradient-10">
            <stop stop-color="#FFFFFF" stop-opacity="0.1" offset="0%"></stop>
            <stop stop-color="#F07125" offset="83.62%"></stop>
        </linearGradient>
        <linearGradient x1="0.0296551724%" y1="50.428%" x2="99.6993103%" y2="50.428%" id="linearGradient-11">
            <stop stop-color="#FFFFFF" stop-opacity="0.5" offset="0%"></stop>
            <stop stop-color="#F07125" offset="83.62%"></stop>
        </linearGradient>
        <linearGradient x1="81.1169194%" y1="42.6303186%" x2="18.5456631%" y2="54.7940536%" id="linearGradient-12">
            <stop stop-color="#FFFFFF" stop-opacity="0.5" offset="0%"></stop>
            <stop stop-color="#F07125" offset="83.62%"></stop>
        </linearGradient>
        <linearGradient x1="-0.0979266348%" y1="49.8499091%" x2="99.9519936%" y2="49.8499091%" id="linearGradient-13">
            <stop stop-color="#19233D" offset="47.13%"></stop>
            <stop stop-color="#271C41" offset="100%"></stop>
        </linearGradient>
        <linearGradient x1="-0.362359551%" y1="50.1300392%" x2="99.8741573%" y2="50.1300392%" id="linearGradient-14">
            <stop stop-color="#19233D" offset="47.13%"></stop>
            <stop stop-color="#271C41" offset="100%"></stop>
        </linearGradient>
        <linearGradient x1="0.0574700936%" y1="49.9929742%" x2="100.013013%" y2="49.9929742%" id="linearGradient-15">
            <stop stop-color="#365588" stop-opacity="0.7" offset="0%"></stop>
            <stop stop-color="#002544" stop-opacity="0" offset="100%"></stop>
        </linearGradient>
        <linearGradient x1="0.0372179211%" y1="50.0331415%" x2="99.9988783%" y2="50.0331415%" id="linearGradient-16">
            <stop stop-color="#FFFFFF" offset="0%"></stop>
            <stop stop-color="#87AEB4" stop-opacity="0.4" offset="98.01%"></stop>
        </linearGradient>
        <linearGradient x1="-0.0506195787%" y1="50.0921389%" x2="99.9734201%" y2="50.0921389%" id="linearGradient-17">
            <stop stop-color="#19233D" offset="47.13%"></stop>
            <stop stop-color="#271C41" offset="100%"></stop>
        </linearGradient>
        <linearGradient x1="-0.135%" y1="49.9851569%" x2="99.9875%" y2="49.9851569%" id="linearGradient-18">
            <stop stop-color="#365588" stop-opacity="0.7" offset="0%"></stop>
            <stop stop-color="#002544" stop-opacity="0" offset="100%"></stop>
        </linearGradient>
        <linearGradient x1="-6.68992983%" y1="9.62431402%" x2="101.277057%" y2="88.9334342%" id="linearGradient-19">
            <stop stop-color="#F2A095" offset="0%"></stop>
            <stop stop-color="#F2A89C" offset="16.62%"></stop>
            <stop stop-color="#F1BDAF" offset="42.18%"></stop>
            <stop stop-color="#EFDDCB" offset="70.68%"></stop>
        </linearGradient>
        <linearGradient x1="90.9984944%" y1="108.56907%" x2="9.69628525%" y2="-3.44342553%" id="linearGradient-20">
            <stop stop-color="#EFDDCB" offset="29.32%"></stop>
            <stop stop-color="#F1BDAF" offset="57.82%"></stop>
            <stop stop-color="#F2A89C" offset="83.38%"></stop>
            <stop stop-color="#F2A095" offset="100%"></stop>
        </linearGradient>
        <linearGradient x1="0.00692015209%" y1="49.9932722%" x2="99.9918631%" y2="49.9932722%" id="linearGradient-21">
            <stop stop-color="#19233D" offset="47.13%"></stop>
            <stop stop-color="#271C41" offset="100%"></stop>
        </linearGradient>
        <linearGradient x1="-0.0572202594%" y1="49.9638565%" x2="100.028936%" y2="49.9638565%" id="linearGradient-22">
            <stop stop-color="#19233D" offset="47.13%"></stop>
            <stop stop-color="#271C41" offset="100%"></stop>
        </linearGradient>
        <linearGradient x1="0.0205370029%" y1="50.0400299%" x2="99.9929576%" y2="50.0400299%" id="linearGradient-23">
            <stop stop-color="#19233D" offset="47.13%"></stop>
            <stop stop-color="#271C41" offset="100%"></stop>
        </linearGradient>
        <linearGradient x1="-0.000710138702%" y1="49.9599517%" x2="100.029263%" y2="49.9599517%" id="linearGradient-24">
            <stop stop-color="#EFDDCB" offset="0%"></stop>
            <stop stop-color="#F1BDAF" offset="33.1%"></stop>
            <stop stop-color="#F2A89C" offset="62.78%"></stop>
            <stop stop-color="#F2A095" offset="82.09%"></stop>
        </linearGradient>
        <linearGradient x1="0.148004634%" y1="50.1587083%" x2="100.12958%" y2="50.1587083%" id="linearGradient-25">
            <stop stop-color="#EFDDCB" offset="0%"></stop>
            <stop stop-color="#F1BDAF" offset="33.1%"></stop>
            <stop stop-color="#F2A89C" offset="62.78%"></stop>
            <stop stop-color="#F2A095" offset="82.09%"></stop>
        </linearGradient>
        <linearGradient x1="2.73733333%" y1="49.014%" x2="100.058%" y2="49.014%" id="linearGradient-26">
            <stop stop-color="#F2A095" offset="17.91%"></stop>
            <stop stop-color="#F2A89C" offset="37.22%"></stop>
            <stop stop-color="#F1BDAF" offset="66.9%"></stop>
            <stop stop-color="#EFDDCB" offset="100%"></stop>
        </linearGradient>
    </defs>
    <g id="页面-1" stroke="none" stroke-width="1" fill="none" fill-rule="evenodd">
        <g id="dancing" transform="translate(-195.000000, -134.000000)">
            <g id="main" transform="translate(195.000000, 134.000000)">
                <g id="general_1_">
                    <path d="M618.7,559.3 L178.4,559.3 C177.6,559.3 176.9,558.6 176.9,557.8 C176.9,557 177.6,556.3 178.4,556.3 L618.8,556.3 C619.6,556.3 620.3,557 620.3,557.8 C620.3,558.6 619.6,559.3 618.7,559.3 L618.7,559.3 Z" id="Shape" fill="#153E5C" fill-rule="nonzero"></path>
                    <g id="notes_and_music_center" transform="translate(216.000000, 294.000000)">
                        <g id="music_center" transform="translate(0.000000, 202.000000)">
                            <path d="M154.3,98.8 L12.1,98.8 C5.5,98.8 0.1,93.4 0.1,86.8 L0.1,12.5 C0.1,5.9 5.5,0.5 12.1,0.5 L154.4,0.5 C161,0.5 166.4,5.9 166.4,12.5 L166.4,86.8 C166.3,93.4 160.9,98.8 154.3,98.8 L154.3,98.8 Z" id="Shape" fill="url(#linearGradient-1)" fill-rule="nonzero"></path>
                            <path d="M160.7,15.9 L160.7,83.5 C160.7,84 160.7,84.5 160.6,85 L160.6,85.4 C160.6,85.5 160.6,85.6 160.5,85.8 C160.1,88.1 159,90.2 157.4,91.8 C157.2,92 157,92.2 156.9,92.4 L156.7,92.6 C156.5,92.8 156.2,93 156,93.2 C154.1,94.6 151.8,95.5 149.4,95.7 L148.8,95.7 L17.8,95.7 C15.1,95.7 12.6,94.8 10.6,93.3 L10.6,93.3 L10.5,93.2 C10.3,93 10.1,92.8 9.8,92.7 C9.7,92.6 9.6,92.6 9.6,92.5 C7.8,90.8 6.4,88.5 6,85.9 C6,85.7 5.9,85.4 5.9,85.1 C5.8,84.6 5.8,84.1 5.8,83.6 L5.8,16 C5.8,14.5 6.1,13.2 6.5,11.9 C6.6,11.6 6.7,11.4 6.8,11.1 C7.4,9.7 8.3,8.5 9.4,7.4 C9.6,7.2 9.9,7 10.1,6.8 C12.1,5.1 14.6,4.1 17.4,4 L17.8,4 L148.7,4 C151.5,4 154.1,5 156.2,6.6 C156.4,6.8 156.7,7 156.9,7.2 C158.1,8.3 159,9.6 159.6,11.1 C159.7,11.3 159.8,11.6 159.9,11.9 C160.4,13.1 160.7,14.5 160.7,15.9 L160.7,15.9 Z" id="Shape" fill="#302C34" fill-rule="nonzero"></path>
                            <path d="M10.6,92.3 L10.6,93.1 L10.6,93.1 L10.5,93 C10.3,92.8 10.1,92.6 9.8,92.5 L9.8,89.5 L9.8,85.7 L9.8,81.7 L9.8,78.4 L9.8,77.6 L9.8,74.7 L9.8,73.9 L9.8,66.1 L9.8,65.3 L9.8,58.4 L9.8,57.6 L9.8,50.7 L9.8,50 L9.8,43.1 L9.8,42.3 L9.8,35.3 L9.8,34.5 L9.8,27.6 L9.8,26.8 C9.8,24.4 9.8,22.1 9.7,19.9 L9.7,19.1 C9.7,16.6 9.7,14.3 9.6,12.2 L9.6,11.4 C9.6,10 9.6,8.7 9.5,7.5 C9.7,7.3 10,7 10.2,6.8 C10.2,8.2 10.3,9.7 10.3,11.4 L10.3,12.2 C10.3,14.3 10.4,16.6 10.4,19.1 L10.4,19.9 C10.4,22.1 10.4,24.4 10.5,26.8 L10.5,27.6 C10.5,29.8 10.5,32.2 10.6,34.5 L10.6,35.3 L10.6,42.3 L10.6,43.1 L10.6,50 L10.6,50.8 L10.6,57.7 L10.6,58.5 L10.6,65.4 L10.6,66.2 L10.6,74 L10.6,74.8 L10.6,77.7 L10.6,78.5 L10.6,81.8 L10.6,82.6 L10.6,85 L10.6,85.8 L10.6,89.6 L10.6,90.4 L10.6,92.3 L10.6,92.3 Z" id="Shape" fill="#BDD3DE" fill-rule="nonzero"></path>
                            <path d="M18.7,92.3 L18.7,93.1 L18.7,94.9 L18.7,95.6 L17.9,95.6 L17.9,94.9 L17.9,85 L17.9,80.5 L17.9,78.4 L17.9,77.6 L17.9,72.9 L17.9,72.1 L17.9,64.5 L17.9,63.7 L17.9,56.9 L17.9,56.1 L17.9,49.3 L17.9,48.5 L17.9,41.7 L17.9,40.9 L17.9,34.1 L17.9,33.3 L17.9,26.5 L17.9,25.7 C17.9,23.3 17.9,21.1 17.8,18.9 L17.8,18.1 C17.8,15.7 17.7,13.4 17.7,11.3 L17.7,10.5 C17.7,7.5 17.6,5 17.6,3.2 L18,3.2 L18.3,3.2 C18.4,5.1 18.4,7.6 18.5,10.5 L18.5,11.3 C18.5,13.4 18.6,15.6 18.6,18.1 L18.6,18.9 C18.6,21 18.6,23.3 18.7,25.7 L18.7,26.5 C18.7,28.7 18.7,30.9 18.8,33.3 L18.8,34.1 L18.8,40.9 L18.8,41.7 L18.8,48.5 L18.8,49.3 L18.8,56.1 L18.8,56.9 L18.8,63.7 L18.8,64.5 L18.8,72.1 L18.8,72.9 L18.8,77.6 L18.8,79.7 L18.8,80.5 L18.8,85 L18.8,88.1 C18.7,89.5 18.7,90.9 18.7,92.3 L18.7,92.3 Z" id="Shape" fill="#BDD3DE" fill-rule="nonzero"></path>
                            <path d="M26.8,92.3 L26.8,95.5 L26,95.5 L26,94.8 L26,93 L26,92.2 L26,88 L26,85 L26,80.5 L26,77.6 L26,72.9 L26,72.1 L26,64.5 L26,63.7 L26,56.9 L26,56.1 L26,49.3 L26,48.5 L26,41.7 L26,40.9 L26,34.1 L26,33.3 L26,26.5 L26,25.7 C26,23.3 26,21.1 25.9,18.9 L25.9,18.1 C25.9,15.7 25.9,13.4 25.8,11.3 L25.8,10.5 C25.8,7.6 25.7,5.2 25.7,3.2 L26.4,3.2 C26.5,5.2 26.5,7.7 26.6,10.5 L26.6,11.3 C26.6,13.4 26.7,15.6 26.7,18.1 L26.7,18.9 C26.7,21 26.7,23.3 26.8,25.7 L26.8,26.5 L26.8,33.3 L26.8,34.1 L26.8,40.9 L26.8,41.7 L26.8,48.5 L26.8,49.3 L26.8,56.1 L26.8,56.9 L26.8,63.7 L26.8,64.5 L26.8,72.1 L26.8,72.9 L26.8,77.6 L26.8,79.7 L26.8,80.5 L26.8,85 L26.8,87.3 L26.8,88.1 C26.8,89.5 26.8,90.9 26.8,92.3 L26.8,92.3 Z" id="Shape" fill="#BDD3DE" fill-rule="nonzero"></path>
                            <path d="M34.9,92.3 L34.9,95.5 L34.1,95.5 L34.1,94.8 L34.1,93 L34.1,92.2 L34.1,88 L34.1,85 L34.1,80.5 L34.1,77.6 L34.1,72.9 L34.1,72.1 L34.1,64.5 L34.1,63.7 L34.1,56.9 L34.1,56.1 L34.1,49.3 L34.1,48.5 L34.1,41.7 L34.1,40.9 L34.1,34.1 L34.1,33.3 L34.1,26.5 L34.1,25.7 C34.1,23.3 34.1,21.1 34,18.9 L34,18.1 C34,15.7 34,13.4 33.9,11.3 L33.9,10.5 C33.9,7.6 33.8,5.2 33.8,3.2 L34.5,3.2 C34.6,5.2 34.6,7.7 34.7,10.5 L34.7,11.3 C34.7,13.4 34.8,15.6 34.8,18.1 L34.8,18.9 C34.8,21 34.8,23.3 34.9,25.7 L34.9,26.5 L34.9,33.3 L34.9,34.1 L34.9,40.9 L34.9,41.7 L34.9,48.5 L34.9,49.3 L34.9,56.1 L34.9,56.9 L34.9,63.7 L34.9,64.5 L34.9,72.1 L34.9,72.9 L34.9,77.6 L34.9,79.7 L34.9,80.5 L34.9,85 L34.9,87.3 L34.9,88.1 C34.9,89.5 34.9,90.9 34.9,92.3 L34.9,92.3 Z" id="Shape" fill="#BDD3DE" fill-rule="nonzero"></path>
                            <path d="M43,92.3 L43,95.5 L42.2,95.5 L42.2,94.8 L42.2,93 L42.2,92.2 L42.2,88 L42.2,85 L42.2,80.5 L42.2,77.6 L42.2,72.9 L42.2,72.1 L42.2,64.5 L42.2,63.7 L42.2,56.9 L42.2,56.1 L42.2,49.3 L42.2,48.5 L42.2,41.7 L42.2,40.9 L42.2,34.1 L42.2,33.3 C42.2,31 42.2,28.7 42.1,26.5 L42.1,25.7 C42.1,23.3 42.1,21.1 42,18.9 L42,18.1 C42,15.7 42,13.4 41.9,11.3 L41.9,10.5 C41.9,7.6 41.8,5.2 41.8,3.2 L42.5,3.2 C42.5,5.2 42.6,7.7 42.6,10.5 L42.6,11.3 C42.6,13.4 42.7,15.6 42.7,18.1 L42.7,18.9 C42.7,21 42.7,23.3 42.8,25.7 L42.8,26.5 C42.8,28.7 42.8,30.9 42.9,33.3 L42.9,34.1 L42.9,40.9 L42.9,41.7 L42.9,48.5 L42.9,49.3 L42.9,56.1 L42.9,56.9 L42.9,63.7 L42.9,64.5 L42.9,72.1 L42.9,72.9 L42.9,77.6 L42.9,79.7 L42.9,80.5 L42.9,85 L42.9,87.3 L42.9,88.1 C43,89.5 43,90.9 43,92.3 L43,92.3 Z" id="Shape" fill="#BDD3DE" fill-rule="nonzero"></path>
                            <path d="M51.1,93.1 L51.1,95.6 L50.3,95.6 L50.3,93.1 L50.3,92.3 L50.3,89 L50.3,85 L50.3,81.4 L50.3,77.7 L50.3,73.8 L50.3,73 L50.3,65.3 L50.3,64.5 L50.3,57.7 L50.3,56.9 L50.3,50.1 L50.3,49.3 L50.3,42.5 L50.3,41.7 L50.3,34.9 L50.3,34.1 L50.3,27.3 L50.3,26.5 C50.3,24.1 50.3,21.9 50.2,19.7 L50.2,18.9 C50.2,16.5 50.2,14.2 50.1,12.1 L50.1,11.3 C50.1,8.4 50,5.9 50,3.9 L50.7,3.9 C50.7,5.9 50.8,8.4 50.8,11.3 L50.8,12.1 C50.8,14.2 50.9,16.5 50.9,18.9 L50.9,19.7 C50.9,21.9 50.9,24.1 51,26.5 L51,27.3 L51,34.1 L51,34.9 L51,41.7 L51,42.5 L51,49.3 L51,50.1 L51,56.9 L51,57.7 L51,64.5 L51,65.3 L51,73 L51,73.8 L51,77.7 L51,80.6 L51,81.4 L51,85 L51,88.2 L51,89 L51,92.3 C51.1,92.6 51.1,92.8 51.1,93.1 L51.1,93.1 Z" id="Shape" fill="#BDD3DE" fill-rule="nonzero"></path>
                            <path d="M59.2,92.3 L59.2,93.1 L59.2,94.9 L59.2,95.6 L58.4,95.6 L58.4,94.9 L58.4,85 L58.4,80.5 L58.4,78.4 L58.4,77.6 L58.4,72.9 L58.4,72.1 L58.4,64.5 L58.4,63.7 L58.4,56.9 L58.4,56.1 L58.4,49.3 L58.4,48.5 L58.4,41.7 L58.4,40.9 L58.4,34.1 L58.4,33.3 L58.4,26.5 L58.4,25.7 C58.4,23.3 58.4,21.1 58.3,18.9 L58.3,18.1 C58.3,15.7 58.3,13.4 58.2,11.3 L58.2,10.5 C58.1,7.5 58.1,5 58,3.2 L58.7,3.2 C58.8,5.1 58.8,7.6 58.9,10.5 L58.9,11.3 C58.9,13.4 59,15.6 59,18.1 L59,18.9 C59,21 59,23.3 59.1,25.7 L59.1,26.5 C59.1,28.7 59.1,30.9 59.2,33.3 L59.2,34.1 L59.2,40.9 L59.2,41.7 L59.2,48.5 L59.2,49.3 L59.2,56.1 L59.2,56.9 L59.2,63.7 L59.2,64.5 L59.2,72.1 L59.2,72.9 L59.2,77.6 L59.2,79.7 L59.2,80.5 L59.2,85 L59.2,88.1 L59.2,92.3 L59.2,92.3 Z" id="Shape" fill="#BDD3DE" fill-rule="nonzero"></path>
                            <path d="M67.4,95.5 L66.6,95.5 L66.6,93 L66.6,92.2 L66.6,85.6 L66.6,85 L66.6,78.4 L66.6,77.6 L66.6,71 L66.6,70.2 L66.6,62.8 L66.6,62 L66.6,55.4 L66.6,54.6 L66.6,48 L66.6,47.2 L66.6,40.6 L66.6,39.8 L66.6,33.2 L66.6,32.5 L66.6,25.9 L66.6,25.1 C66.6,22.8 66.6,20.6 66.5,18.5 L66.5,17.7 C66.5,15.3 66.5,13.1 66.4,11.1 L66.4,10.3 C66.4,7.4 66.3,5 66.2,3.2 L66.9,3.2 C67,5 67,7.5 67.1,10.3 L67.1,11.1 C67.1,13.1 67.2,15.3 67.2,17.7 L67.2,18.5 C67.2,20.6 67.3,22.8 67.3,25.1 L67.3,25.9 C67.3,28 67.3,30.2 67.4,32.5 L67.4,33.2 L67.4,39.8 L67.4,40.6 L67.4,47.2 L67.4,48 L67.4,54.6 L67.4,55.4 L67.4,62 L67.4,62.8 L67.4,70.2 L67.4,71 L67.4,77.6 L67.4,78.4 L67.4,85 L67.4,85.8 L67.4,92.4 L67.4,93.2 L67.4,95.5 L67.4,95.5 Z" id="Shape" fill="#BDD3DE" fill-rule="nonzero"></path>
                            <path d="M75.5,92.3 L75.5,95.5 L74.7,95.5 L74.7,93 L74.7,92.2 L74.7,85.6 L74.7,85 L74.7,78.4 L74.7,77.6 L74.7,71 L74.7,70.2 L74.7,62.8 L74.7,62 L74.7,55.4 L74.7,54.6 L74.7,48 L74.7,47.2 L74.7,40.6 L74.7,39.8 L74.7,33.2 L74.7,33 L74.7,26.4 L74.7,25.6 L74.7,19 L74.7,18.2 C74.7,15.8 74.7,13.7 74.6,11.6 L74.6,10.8 C74.6,8 74.5,5.6 74.5,3.7 L75.2,3.7 C75.3,5.7 75.3,8.1 75.4,10.8 L75.4,11.6 C75.4,13.6 75.5,15.8 75.5,18.2 L75.5,19 C75.5,21.1 75.6,23.3 75.6,25.6 L75.6,26.4 L75.6,33 L75.6,33.7 L75.6,40.3 L75.6,41.1 L75.6,47.7 L75.6,48.5 L75.6,55.1 L75.6,55.9 L75.6,62.5 L75.6,63.3 L75.6,70.7 L75.6,71.5 L75.6,78.1 L75.6,78.9 L75.6,85.5 L75.6,86.3 C75.5,88 75.5,90.2 75.5,92.3 L75.5,92.3 Z" id="Shape" fill="#BDD3DE" fill-rule="nonzero"></path>
                            <path d="M83.6,92.3 L83.6,95.5 L82.8,95.5 L82.8,93 L82.8,92.2 L82.8,85.6 L82.8,85 L82.8,78.4 L82.8,77.6 L82.8,71 L82.8,70.2 L82.8,62.8 L82.8,62 L82.8,55.4 L82.8,54.6 L82.8,48 L82.8,47.2 L82.8,40.6 L82.8,39.8 L82.8,33.2 L82.8,33 L82.8,26.4 L82.8,25.6 C82.8,23.3 82.8,21.1 82.7,19 L82.7,18.2 C82.7,15.8 82.7,13.7 82.6,11.6 L82.6,10.8 C82.6,8 82.5,5.6 82.5,3.7 L83.2,3.7 C83.2,5.7 83.3,8.1 83.3,10.8 L83.3,11.6 C83.3,13.6 83.4,15.8 83.4,18.2 L83.4,19 C83.4,21.1 83.4,23.3 83.5,25.6 L83.5,26.4 L83.5,33 L83.5,33.7 L83.5,40.3 L83.5,41.1 L83.5,47.7 L83.5,48.5 L83.5,55.1 L83.5,55.9 L83.5,62.5 L83.5,63.3 L83.5,70.7 L83.5,71.5 L83.5,78.1 L83.5,78.9 L83.5,85.5 L83.5,86.3 C83.6,88 83.6,90.2 83.6,92.3 L83.6,92.3 Z" id="Shape" fill="#BDD3DE" fill-rule="nonzero"></path>
                            <path d="M91.7,93.1 L91.7,92.3 L91.7,85.7 L91.7,84.9 L91.7,78.3 L91.7,77.5 L91.7,70.9 L91.7,70.1 L91.7,62.7 L91.7,61.9 L91.7,55.3 L91.7,54.5 L91.7,47.9 L91.7,47.1 L91.7,40.5 L91.7,39.7 L91.7,33.1 L91.7,32.4 L91.7,25.8 L91.7,25 C91.7,22.7 91.7,20.5 91.6,18.4 L91.6,17.6 C91.6,15.2 91.5,13 91.5,11 L91.5,10.2 C91.4,7.1 91.4,4.7 91.3,3.1 L92,3.1 C92.1,4.8 92.2,7.2 92.2,10.2 L92.2,11 C92.2,13 92.3,15.2 92.3,17.6 L92.3,18.4 C92.3,20.5 92.4,22.6 92.4,25 L92.4,25.8 L92.4,32.4 L92.4,33.1 L92.4,39.7 L92.4,40.5 L92.4,47.1 L92.4,47.9 L92.4,54.5 L92.4,55.3 L92.4,61.9 L92.4,62.7 L92.4,70.1 L92.4,70.9 L92.4,77.5 L92.4,78.3 L92.4,84.9 L92.4,85.7 L92.4,92.3 L92.4,93.1 L92.4,95.6 L91.6,95.6 C91.8,94.7 91.8,93.9 91.7,93.1 L91.7,93.1 Z" id="Shape" fill="#BDD3DE" fill-rule="nonzero"></path>
                            <path d="M99.9,93.1 L99.9,92.3 L99.9,85.7 L99.9,84.9 L99.9,78.3 L99.9,77.5 L99.9,70.9 L99.9,70.1 L99.9,62.7 L99.9,61.9 L99.9,55.3 L99.9,54.5 L99.9,47.9 L99.9,47.1 L99.9,40.5 L99.9,39.7 L99.9,33.1 L99.9,32.4 L99.9,25.8 L99.9,25 C99.9,22.7 99.9,20.5 99.8,18.4 L99.8,17.6 C99.8,15.2 99.8,13 99.7,11 L99.7,10.2 C99.7,7.1 99.6,4.7 99.5,3.1 L100.2,3.1 C100.3,4.8 100.4,7.2 100.4,10.2 L100.4,11 C100.4,13 100.5,15.2 100.5,17.6 L100.5,18.4 C100.5,20.5 100.5,22.6 100.6,25 L100.6,25.8 C100.6,27.9 100.6,30.1 100.7,32.4 L100.7,33.1 L100.7,39.7 L100.7,40.5 L100.7,47.1 L100.7,47.9 L100.7,54.5 L100.7,55.3 L100.7,61.9 L100.7,62.7 L100.7,70.1 L100.7,70.9 L100.7,77.5 L100.7,78.3 L100.7,84.9 L100.7,85.7 L100.7,92.3 L100.7,93.1 L100.7,95.6 L99.9,95.6 L99.9,93.1 L99.9,93.1 Z" id="Shape" fill="#BDD3DE" fill-rule="nonzero"></path>
                            <path d="M108.7,95.5 L108,95.5 L108,93 L108,92.2 L108,85.6 L108,85 L108,78.4 L108,77.6 L108,71 L108,70.2 L108,62.8 L108,62 L108,55.4 L108,54.6 L108,48 L108,47.2 L108,40.6 L108,39.8 L108,33.2 L108,32.5 L108,25.9 L108,25.1 C108,22.8 108,20.6 107.9,18.5 L107.9,17.7 C107.9,15.3 107.9,13.1 107.8,11.1 L107.8,10.3 C107.8,7.4 107.7,5 107.7,3.2 L108.4,3.2 C108.5,5 108.5,7.5 108.6,10.3 L108.6,11.1 C108.6,13.1 108.7,15.3 108.7,17.7 L108.7,18.5 C108.7,20.6 108.7,22.8 108.8,25.1 L108.8,25.9 C108.8,28 108.8,30.2 108.9,32.5 L108.9,33.2 L108.9,39.8 L108.9,40.6 L108.9,47.2 L108.9,48 L108.9,54.6 L108.9,55.4 L108.9,62 L108.9,62.8 L108.9,70.2 L108.9,71 L108.9,77.6 L108.9,78.4 L108.9,85 L108.9,85.8 L108.9,92.4 L108.9,93.2 C108.7,93.9 108.7,94.7 108.7,95.5 L108.7,95.5 Z" id="Shape" fill="#BDD3DE" fill-rule="nonzero"></path>
                            <path d="M116.8,95.5 L116,95.5 L116,93 L116,92.2 L116,85.6 L116,85 L116,78.4 L116,77.6 L116,71 L116,70.2 L116,62.8 L116,62 L116,55.4 L116,54.6 L116,48 L116,47.2 L116,40.6 L116,39.8 L116,33.2 L116,32.5 L116,25.9 L116,25.1 C116,22.8 116,20.6 115.9,18.5 L115.9,17.7 C115.9,15.3 115.9,13.1 115.8,11.1 L115.8,10.3 C115.8,7.4 115.7,5 115.7,3.2 L116.4,3.2 C116.5,5 116.5,7.5 116.6,10.3 L116.6,11.1 C116.6,13.1 116.7,15.3 116.7,17.7 L116.7,18.5 C116.7,20.6 116.7,22.8 116.8,25.1 L116.8,25.9 C116.8,28 116.8,30.2 116.9,32.5 L116.9,33.2 L116.9,39.8 L116.9,40.6 L116.9,47.2 L116.9,48 L116.9,54.6 L116.9,55.4 L116.9,62 L116.9,62.8 L116.9,70.2 L116.9,71 L116.9,77.6 L116.9,78.4 L116.9,85 L116.9,85.8 L116.9,92.4 L116.9,93.2 C116.8,93.9 116.8,94.7 116.8,95.5 L116.8,95.5 Z" id="Shape" fill="#BDD3DE" fill-rule="nonzero"></path>
                            <path d="M124.9,95.5 L124.1,95.5 L124.1,93 L124.1,92.2 L124.1,85.6 L124.1,85 L124.1,78.4 L124.1,77.6 L124.1,71 L124.1,70.2 L124.1,62.8 L124.1,62 L124.1,55.4 L124.1,54.6 L124.1,48 L124.1,47.2 L124.1,40.6 L124.1,39.8 L124.1,33.2 L124.1,32.5 L124.1,25.9 L124.1,25.1 C124.1,22.8 124.1,20.6 124,18.5 L124,17.7 C124,15.3 124,13.1 123.9,11.1 L123.9,10.3 C123.8,7.4 123.8,5 123.7,3.2 L124.4,3.2 C124.5,5 124.5,7.5 124.6,10.3 L124.6,11.1 C124.6,13.1 124.7,15.3 124.7,17.7 L124.7,18.5 C124.7,20.6 124.7,22.8 124.8,25.1 L124.8,25.9 C124.8,28 124.8,30.2 124.9,32.5 L124.9,33.2 L124.9,39.8 L124.9,40.6 L124.9,47.2 L124.9,48 L124.9,54.6 L124.9,55.4 L124.9,62 L124.9,62.8 L124.9,70.2 L124.9,71 L124.9,77.6 L124.9,78.4 L124.9,85 L124.9,85.8 L124.9,92.4 L124.9,93.2 C124.9,93.9 124.9,94.7 124.9,95.5 L124.9,95.5 Z" id="Shape" fill="#BDD3DE" fill-rule="nonzero"></path>
                            <path d="M133.1,95.5 L132.3,95.5 L132.3,93 L132.3,92.2 L132.3,85.6 L132.3,85 L132.3,78.4 L132.3,77.6 L132.3,71 L132.3,70.2 L132.3,62.8 L132.3,62 L132.3,55.4 L132.3,54.6 L132.3,48 L132.3,47.2 L132.3,40.6 L132.3,39.8 L132.3,33.2 L132.3,33 L132.3,26.4 L132.3,25.6 C132.3,23.3 132.3,21.1 132.2,19 L132.2,18.2 C132.2,15.8 132.1,13.6 132.1,11.6 L132.1,10.8 C132.1,7.9 132,5.5 131.9,3.7 L132.6,3.7 C132.7,5.5 132.7,8 132.8,10.8 L132.8,11.6 C132.8,13.6 132.9,15.8 132.9,18.2 L132.9,19 C132.9,21.1 132.9,23.3 133,25.6 L133,26.4 C133,28.5 133,30.7 133.1,33 L133.1,33.7 L133.1,40.3 L133.1,41.1 L133.1,47.7 L133.1,48.5 L133.1,55.1 L133.1,55.9 L133.1,62.5 L133.1,63.3 L133.1,70.7 L133.1,71.5 L133.1,78.1 L133.1,78.9 L133.1,85.5 L133.1,86.3 L133.1,92.9 L133.1,93.7 C133.1,93.9 133.1,94.7 133.1,95.5 L133.1,95.5 Z" id="Shape" fill="#BDD3DE" fill-rule="nonzero"></path>
                            <path d="M140.4,93.1 L140.4,92.3 L140.4,85.7 L140.4,84.9 L140.4,78.3 L140.4,77.5 L140.4,70.9 L140.4,70.1 L140.4,62.7 L140.4,61.9 L140.4,55.3 L140.4,54.5 L140.4,47.9 L140.4,47.1 L140.4,40.5 L140.4,39.7 L140.4,33.1 L140.4,32.4 L140.4,25.8 L140.4,25 C140.4,22.7 140.4,20.5 140.3,18.4 L140.3,17.6 C140.3,15.2 140.3,13 140.2,11 L140.2,10.2 C140.1,7.1 140.1,4.7 140,3.1 L140.7,3.1 C140.8,4.8 140.9,7.2 140.9,10.2 L140.9,11 C140.9,13 141,15.2 141,17.6 L141,18.4 C141,20.5 141,22.6 141.1,25 L141.1,25.8 L141.1,32.4 L141.1,33.1 L141.1,39.7 L141.1,40.5 L141.1,47.1 L141.1,47.9 L141.1,54.5 L141.1,55.3 L141.1,61.9 L141.1,62.7 L141.1,70.1 L141.1,70.9 L141.1,77.5 L141.1,78.3 L141.1,84.9 L141.1,85.7 L141.1,92.3 L141.1,93.1 L141.1,95.6 L140.3,95.6 C140.4,94.7 140.4,93.9 140.4,93.1 L140.4,93.1 Z" id="Shape" fill="#BDD3DE" fill-rule="nonzero"></path>
                            <path d="M149.3,95.5 L148.7,95.5 L148.6,95.5 L148.6,93 L148.6,92.2 L148.6,85.6 L148.6,84.8 L148.6,78.2 L148.6,77.4 L148.6,70.8 L148.6,70 L148.6,62.6 L148.6,61.8 L148.6,55.2 L148.6,54.4 L148.6,47.8 L148.6,47 L148.6,40.4 L148.6,39.6 L148.6,33 L148.6,33 L148.6,26.4 L148.6,25.6 C148.6,23.3 148.6,21.1 148.5,19 L148.5,18.2 C148.5,15.8 148.4,13.6 148.4,11.6 L148.4,10.8 C148.3,7.7 148.3,5.3 148.2,3.7 L148.9,3.7 C149,5.4 149.1,7.8 149.1,10.8 L149.1,11.6 C149.1,13.6 149.2,15.8 149.2,18.2 L149.2,19 C149.2,21.1 149.2,23.2 149.3,25.6 L149.3,26.4 L149.3,33 L149.3,33.7 L149.3,40.3 L149.3,41.1 L149.3,47.7 L149.3,48.5 L149.3,55.1 L149.3,55.9 L149.3,62.5 L149.3,63.3 L149.3,70.7 L149.3,71.5 L149.3,78.1 L149.3,78.9 L149.3,85.5 L149.3,86.3 L149.3,92.9 L149.3,93.7 L149.3,95.5 L149.3,95.5 Z" id="Shape" fill="#BDD3DE" fill-rule="nonzero"></path>
                            <path d="M157.4,91.7 C157.2,91.9 157,92.1 156.9,92.3 L156.7,92.5 L156.7,92.3 L156.7,85.7 L156.7,85 L156.7,78.4 L156.7,77.6 L156.7,71 L156.7,70.2 L156.7,62.8 L156.7,62 L156.7,55.4 L156.7,54.6 L156.7,48 L156.7,47.2 L156.7,40.6 L156.7,39.8 L156.7,33.2 L156.7,32.5 L156.7,25.9 L156.7,25.1 C156.7,22.8 156.7,20.6 156.6,18.5 L156.6,17.7 C156.6,15.3 156.6,13.1 156.5,11.1 L156.5,10.3 C156.5,8.6 156.4,7.1 156.4,5.8 C156.6,6 156.9,6.2 157.1,6.4 C157.1,7.6 157.1,8.9 157.2,10.3 L157.2,11.1 C157.2,13.1 157.3,15.3 157.3,17.7 L157.3,18.5 C157.3,20.6 157.3,22.8 157.4,25.1 L157.4,25.9 C157.4,28 157.4,30.2 157.5,32.5 L157.5,33.2 L157.5,39.8 L157.5,40.6 L157.5,47.2 L157.5,48 L157.5,54.6 L157.5,55.4 L157.5,62 L157.5,62.8 L157.5,70.2 L157.5,71 L157.5,77.6 L157.5,78.4 L157.5,85 L157.5,85.8 C157.4,87.8 157.4,89.8 157.4,91.7 L157.4,91.7 Z" id="Shape" fill="#BDD3DE" fill-rule="nonzero"></path>
                            <path d="M159.9,11.8 L6.5,11.8 C6.6,11.5 6.7,11.3 6.8,11 L159.6,11 C159.7,11.3 159.8,11.6 159.9,11.8 L159.9,11.8 Z" id="Shape" fill="#BDD3DE" fill-rule="nonzero"></path>
                            <polygon id="Rectangle-path" fill="#BDD3DE" fill-rule="nonzero" points="6 18 6 18.8 160.9 18.8 160.9 18"></polygon>
                            <polygon id="Rectangle-path" fill="#BDD3DE" fill-rule="nonzero" points="6 26 6 26.8 160.9 26.8 160.9 26"></polygon>
                            <polygon id="Rectangle-path" fill="#BDD3DE" fill-rule="nonzero" points="6 33 6 33.7 160.9 33.7 160.9 33"></polygon>
                            <polygon id="Rectangle-path" fill="#BDD3DE" fill-rule="nonzero" points="6 40 6 40.8 160.9 40.8 160.9 40"></polygon>
                            <polygon id="Rectangle-path" fill="#BDD3DE" fill-rule="nonzero" points="6 48 6 48.8 160.9 48.8 160.9 48"></polygon>
                            <polygon id="Rectangle-path" fill="#BDD3DE" fill-rule="nonzero" points="6 55 6 55.8 160.9 55.8 160.9 55"></polygon>
                            <polygon id="Rectangle-path" fill="#BDD3DE" fill-rule="nonzero" points="6 62 6 62.8 160.9 62.8 160.9 62"></polygon>
                            <polygon id="Rectangle-path" fill="#BDD3DE" fill-rule="nonzero" points="6 70 6 70.8 160.9 70.8 160.9 70"></polygon>
                            <polygon id="Rectangle-path" fill="#BDD3DE" fill-rule="nonzero" points="6 78 6 78.8 160.9 78.8 160.9 78"></polygon>
                            <path d="M160.6,85 L160.6,85.4 C160.6,85.5 160.6,85.6 160.5,85.8 L6,85.8 C6,85.6 5.9,85.3 5.9,85 L160.6,85 L160.6,85 Z" id="Shape" fill="#BDD3DE" fill-rule="nonzero"></path>
                            <path d="M156.8,92.3 C156.7,92.4 156.7,92.4 156.6,92.5 C156.4,92.7 156.1,92.9 155.9,93.1 L10.5,93.1 C10.3,92.9 10.1,92.7 9.8,92.6 C9.7,92.5 9.6,92.5 9.6,92.4 L156.8,92.4 L156.8,92.3 Z" id="Shape" fill="#BDD3DE" fill-rule="nonzero"></path>
                            <path d="M160.7,15.9 L160.7,83.5 C160.7,84 160.7,84.5 160.6,85 C160.6,85.3 160.5,85.5 160.5,85.8 C160.1,88.1 159,90.2 157.4,91.8 C157.2,92 157,92.2 156.9,92.4 C156.8,92.5 156.8,92.5 156.7,92.6 C156.5,92.8 156.2,93 156,93.2 C154.1,94.6 151.8,95.5 149.4,95.7 L148.8,95.7 L17.8,95.7 C15.1,95.7 12.6,94.8 10.6,93.3 L10.5,93.2 C10.3,93 10.1,92.8 9.8,92.7 C9.7,92.6 9.6,92.6 9.6,92.5 C7.2,90.3 5.8,87.2 5.8,83.7 L5.8,16.1 C5.8,14.6 6.1,13.3 6.5,12 C6.6,11.7 6.7,11.5 6.8,11.2 C7.4,9.8 8.3,8.6 9.4,7.5 C9.6,7.3 9.9,7.1 10.1,6.9 C12.1,5.2 14.6,4.2 17.4,4.1 L17.8,4.1 L148.7,4.1 C151.5,4.1 154.1,5.1 156.2,6.7 C156.4,6.9 156.7,7.1 156.9,7.3 C158.1,8.4 159,9.7 159.6,11.2 C159.7,11.4 159.8,11.7 159.9,12 C160.4,13.1 160.7,14.5 160.7,15.9 L160.7,15.9 Z" id="Shape"></path>
                        </g>
                        <path d="M113.9,25 C113.1,24.3 112.2,23.9 111.4,24 L117.1,13 C117.2,12.8 117.1,12.6 117,12.5 L104.1,0.8 C104,0.7 103.9,0.7 103.8,0.7 C103.7,0.7 103.6,0.8 103.5,0.9 L97.3,12.9 L97.3,12.9 C96.6,13.8 96.9,15.3 98.2,16.4 C99.5,17.5 101.1,17.7 101.9,16.8 C102.7,15.9 102.4,14.3 101.1,13.2 C100.3,12.5 99.4,12.1 98.6,12.2 L104,1.7 L116.3,12.8 L110.3,24.5 L110.3,24.5 C109.6,25.4 109.9,26.9 111.2,28 C112.5,29.1 114.1,29.3 114.9,28.4 C115.5,27.7 115.1,26.1 113.9,25 L113.9,25 Z M100.4,13.8 C101.3,14.6 101.6,15.7 101.1,16.3 C100.6,16.8 99.5,16.6 98.6,15.8 C97.7,15 97.4,13.9 97.9,13.3 C98.4,12.8 99.5,13 100.4,13.8 L100.4,13.8 Z M111.5,27.5 C110.6,26.7 110.3,25.6 110.8,25 C111.3,24.5 112.4,24.7 113.3,25.5 C114.2,26.3 114.5,27.4 114,28 C113.6,28.6 112.4,28.3 111.5,27.5 L111.5,27.5 Z" id="Shape" fill="#FC860A" fill-rule="nonzero"></path>
                        <path d="M108.5,130.2 C109.2,131.7 111.3,132.2 113.4,131.3 C115.5,130.4 116.6,128.6 116,127.1 L116,127.1 L113.3,109.3 L134,100.3 L136.4,116.3 C135.4,115.9 134.1,115.9 132.8,116.5 C130.7,117.4 129.5,119.3 130.2,120.8 C130.9,122.3 133,122.8 135.1,121.9 C137.2,121 138.3,119.2 137.7,117.7 L137.7,117.7 L135,99.5 C135,99.3 134.9,99.2 134.7,99.1 C134.5,99 134.4,99 134.2,99.1 L112.5,108.5 C112.3,108.6 112.1,108.8 112.2,109.1 L114.7,125.8 C113.7,125.4 112.4,125.4 111.1,126 C109,126.8 107.8,128.7 108.5,130.2 L108.5,130.2 Z M136.7,117.9 C137.1,118.8 136.2,120.1 134.7,120.8 C133.2,121.4 131.6,121.2 131.2,120.3 C130.8,119.4 131.7,118.1 133.2,117.4 C134.7,116.8 136.3,117 136.7,117.9 L136.7,117.9 Z M109.5,129.7 C109.1,128.8 110,127.5 111.5,126.8 C113,126.2 114.6,126.4 115,127.3 C115.4,128.2 114.5,129.5 113,130.2 C111.5,130.9 109.9,130.6 109.5,129.7 L109.5,129.7 Z" id="Shape" fill="#FC860A" fill-rule="nonzero"></path>
                        <path d="M58.9,87.7 C57.6,87.1 56.2,87.1 55.3,87.5 L57.8,70.8 C57.8,70.5 57.7,70.3 57.5,70.2 L35.8,60.8 C35.6,60.7 35.5,60.7 35.3,60.8 C35.1,60.9 35,61 35,61.2 L32.3,79.4 L32.3,79.4 C31.8,80.9 32.9,82.7 34.9,83.6 C37,84.5 39.2,84.1 39.8,82.5 C40.5,81 39.3,79.1 37.2,78.2 C35.9,77.6 34.5,77.6 33.6,78 L36,62 L56.7,71 L54,88.8 L54,88.8 C53.5,90.3 54.6,92.1 56.6,93 C58.7,93.9 60.9,93.5 61.5,91.9 C62.2,90.5 61,88.6 58.9,87.7 L58.9,87.7 Z M36.7,79.3 C38.2,79.9 39.1,81.3 38.7,82.2 C38.3,83.1 36.7,83.3 35.2,82.7 C33.7,82.1 32.8,80.7 33.2,79.8 C33.6,78.8 35.2,78.6 36.7,79.3 L36.7,79.3 Z M57,92 C55.5,91.4 54.6,90 55,89.1 C55.4,88.2 57,88 58.5,88.6 C60,89.2 60.9,90.6 60.5,91.5 C60.1,92.5 58.5,92.7 57,92 L57,92 Z" id="Shape" fill="#FC860A" fill-rule="nonzero"></path>
                        <path d="M200.2,94.3 C199.4,93.5 198.3,93.1 197.5,93.2 L203.7,81.2 C203.8,81 203.8,80.8 203.6,80.7 L189.6,67.9 C189.5,67.8 189.4,67.8 189.2,67.8 C189.1,67.8 188.9,67.9 188.9,68 L182.1,81.1 L182.1,81.1 C181.3,82.1 181.7,83.8 183,85 C184.4,86.2 186.1,86.5 187,85.5 C187.9,84.5 187.5,82.8 186.2,81.5 C185.4,80.7 184.3,80.3 183.5,80.4 L189.5,69 L202.8,81.2 L196.2,94 L196.2,94 C195.4,95 195.8,96.7 197.1,97.9 C198.5,99.1 200.2,99.4 201.1,98.4 C201.9,97.3 201.6,95.6 200.2,94.3 L200.2,94.3 Z M185.6,82.2 C186.6,83.1 186.9,84.3 186.4,84.9 C185.9,85.5 184.6,85.2 183.7,84.3 C182.7,83.4 182.4,82.2 182.9,81.6 C183.4,81 184.6,81.3 185.6,82.2 L185.6,82.2 Z M197.6,97.1 C196.6,96.2 196.3,95 196.8,94.4 C197.3,93.8 198.6,94.1 199.5,95 C200.4,95.9 200.8,97.1 200.3,97.7 C199.9,98.3 198.6,98 197.6,97.1 L197.6,97.1 Z" id="Shape" fill="#FC860A" fill-rule="nonzero"></path>
                        <path d="M118.9,165.5 C118.7,165.4 118.5,165.3 118.4,165.4 L103.6,169.7 C103.3,169.8 103.1,170 103.1,170.3 L103.4,180.8 L103.3,180.8 C102.7,180.6 102,180.6 101.2,180.8 C99.6,181.3 98.7,182.5 99,183.7 C99.2,184.3 99.7,184.8 100.4,185 C101,185.2 101.7,185.2 102.5,185 C103,184.9 103.4,184.6 103.8,184.4 C104,184.3 104.1,184.1 104.3,183.9 C104.7,183.4 104.9,182.8 104.8,182.2 L104.8,182.2 L104.6,173 L118.1,169 L118.3,176.5 L118.2,176.5 C117.6,176.3 116.9,176.3 116.1,176.5 C115.4,176.7 114.8,177.1 114.4,177.6 C113.9,178.2 113.8,178.8 113.9,179.4 C114.1,180 114.6,180.5 115.3,180.7 C115.9,180.9 116.6,180.9 117.4,180.7 C117.9,180.6 118.3,180.3 118.7,180.1 C119.4,179.5 119.8,178.8 119.7,178 L119.7,178 L119.4,166 C119.2,165.8 119.1,165.6 118.9,165.5 L118.9,165.5 Z M103.3,183.1 C103,183.4 102.6,183.7 102.2,183.8 C101.7,183.9 101.2,183.9 100.9,183.8 C100.8,183.8 100.4,183.6 100.4,183.4 L100.4,183.4 C100.3,183.1 100.5,182.8 100.9,182.5 C101.1,182.3 101.4,182.2 101.7,182.1 C102.2,182 102.7,182 103,182.1 C103.1,182.1 103.5,182.3 103.5,182.5 C103.6,182.7 103.4,183 103.3,183.1 L103.3,183.1 Z M104.5,171.7 L104.5,170.8 L118,166.8 L118,167.7 L104.5,171.7 L104.5,171.7 Z M116.9,179.5 C116.4,179.6 115.9,179.6 115.6,179.5 C115.5,179.5 115.1,179.3 115.1,179.1 L115.1,179.1 C115,178.8 115.2,178.6 115.3,178.4 C115.4,178.3 115.5,178.2 115.6,178.1 C115.8,177.9 116.1,177.8 116.4,177.7 C116.9,177.6 117.4,177.6 117.7,177.7 C117.8,177.7 118.2,177.9 118.2,178.1 C118.4,178.5 117.8,179.2 116.9,179.5 L116.9,179.5 Z" id="Shape" fill="#FC860A" fill-rule="nonzero"></path>
                        <path d="M184.2,10.7 C184.1,10.5 184,10.4 183.8,10.3 L169.4,4.8 C169.1,4.7 168.8,4.8 168.7,5 L162.5,13.5 C162.5,13.5 162.5,13.4 162.4,13.4 C162,12.9 161.4,12.4 160.8,12.2 C159.3,11.6 157.7,12 157.3,13.2 C157.1,13.8 157.2,14.5 157.6,15.1 C158,15.6 158.6,16.1 159.2,16.3 C159.7,16.5 160.1,16.6 160.6,16.6 C160.8,16.6 161.1,16.6 161.3,16.5 C161.9,16.4 162.4,16 162.7,15.5 L162.7,15.5 L168.1,8 L181.2,13.1 L176.8,19.2 C176.8,19.2 176.8,19.1 176.7,19.1 C176.3,18.6 175.7,18.1 175.1,17.9 C174.4,17.6 173.7,17.6 173.1,17.7 C172.4,17.9 171.9,18.3 171.6,18.9 C171.4,19.5 171.5,20.2 171.9,20.8 C172.3,21.3 172.9,21.8 173.5,22 C174,22.2 174.4,22.3 174.9,22.3 C175.8,22.3 176.6,21.9 176.9,21.2 L176.9,21.2 L183.9,11.5 C184.2,11.1 184.2,10.9 184.2,10.7 L184.2,10.7 Z M161,15.1 C160.6,15.2 160.1,15.1 159.7,15 C159.2,14.8 158.9,14.5 158.6,14.2 C158.5,14.1 158.3,13.8 158.4,13.5 L158.4,13.5 C158.5,13.2 158.9,13.1 159.4,13.1 C159.7,13.1 160,13.2 160.3,13.3 C160.8,13.5 161.1,13.8 161.4,14.1 C161.5,14.2 161.7,14.5 161.6,14.8 C161.5,15 161.1,15.1 161,15.1 L161,15.1 Z M168.9,6.8 L169.4,6 L182.5,11.1 L182,11.9 L168.9,6.8 L168.9,6.8 Z M174,20.5 C173.5,20.3 173.2,20 172.9,19.7 C172.8,19.6 172.6,19.3 172.7,19 L172.7,19 C172.8,18.7 173.1,18.6 173.3,18.6 L173.7,18.6 C174,18.6 174.3,18.7 174.6,18.8 C175.1,19 175.4,19.3 175.7,19.6 C175.8,19.7 176,20 175.9,20.3 C175.8,20.7 174.9,20.9 174,20.5 L174,20.5 Z" id="Shape" fill="#FC860A" fill-rule="nonzero"></path>
                        <path d="M69.9,131.3 C68.8,132.2 68.1,133.3 68,134.4 L54.6,123.7 C54.4,123.5 54.1,123.6 53.9,123.8 C53.7,124 53.8,124.3 54,124.5 L68.6,136.2 L68.6,136.2 C69.6,137.4 71.7,137.3 73.4,136 C75.2,134.7 75.8,132.6 74.9,131.3 C73.8,129.9 71.6,130 69.9,131.3 L69.9,131.3 Z M72.7,135.1 C71.4,136.1 69.8,136.2 69.2,135.4 C68.6,134.6 69.2,133.1 70.5,132.1 C71.8,131.1 73.4,131 74,131.8 C74.5,132.6 73.9,134.1 72.7,135.1 L72.7,135.1 Z" id="Shape" fill="#FC860A" fill-rule="nonzero"></path>
                        <path d="M183.8,145.5 C182.7,144.6 181.4,144.3 180.3,144.5 L186.9,128.6 C187,128.3 186.9,128 186.6,127.9 C186.3,127.8 186,127.9 185.9,128.2 L178.7,145.4 L178.7,145.4 C177.9,146.7 178.5,148.6 180.2,150 C182,151.3 184.1,151.4 185.1,150.1 C186.3,148.9 185.6,146.9 183.8,145.5 L183.8,145.5 Z M181,149.2 C179.7,148.2 179.1,146.7 179.7,145.9 C180.3,145.1 181.9,145.3 183.2,146.2 C184.5,147.1 185.1,148.7 184.5,149.5 C183.9,150.4 182.3,150.2 181,149.2 L181,149.2 Z" id="Shape" fill="#FC860A" fill-rule="nonzero"></path>
                        <path d="M154.9,62.1 C153.4,62.2 152.2,62.7 151.5,63.6 L146.4,46.5 C146.3,46.2 146,46.1 145.8,46.2 C145.5,46.3 145.4,46.6 145.5,46.9 L151.1,65.4 L151.1,65.4 C151.3,67 153.1,68.1 155.3,68 C157.6,67.9 159.4,66.5 159.3,64.9 C159.1,63.3 157.2,62.1 154.9,62.1 L154.9,62.1 Z M155.1,67 C153.4,67.1 152,66.3 151.9,65.2 C151.9,64.2 153.2,63.3 154.9,63.2 C156.6,63.1 158,63.9 158.1,65 C158.1,66 156.8,66.9 155.1,67 L155.1,67 Z" id="Shape" fill="#FC860A" fill-rule="nonzero"></path>
                        <path d="M165.2,179 L165.2,179 L152.9,169.3 L158.7,165.2 C159,165 159.1,164.5 158.9,164.2 C158.7,163.9 158.2,163.8 157.9,164 L151.7,168.4 L151,167.8 L156.3,164.1 C156.6,163.9 156.7,163.4 156.5,163.1 C156.3,162.8 155.8,162.7 155.5,162.9 L149.4,167.1 C149.2,167.2 149.1,167.4 149.1,167.7 C149.1,167.9 149.2,168.1 149.4,168.3 L162.9,179 C161.9,179.4 161.1,180.3 160.5,181.6 C160.1,182.6 159.9,183.7 160.1,184.6 C160.3,185.6 160.8,186.4 161.6,186.8 C162,187 162.4,187 162.9,187 C163.4,186.9 163.8,186.8 164.3,186.5 C165.1,186 165.8,185.2 166.2,184.2 C167,182 166.6,179.8 165.2,179 L165.2,179 Z M164.8,183.5 C164.5,184.2 164,184.9 163.4,185.2 C163.1,185.4 162.6,185.6 162.1,185.4 C161.6,185.2 161.5,184.6 161.4,184.3 C161.3,183.7 161.4,182.9 161.7,182.1 C162.2,181 163.1,180.2 163.8,180.1 C164,180.1 164.2,180.1 164.3,180.2 C165.2,180.6 165.4,182.1 164.8,183.5 L164.8,183.5 Z" id="Shape" fill="#FC860A" fill-rule="nonzero"></path>
                        <path d="M243.1,123.3 C244.2,123.2 245.2,122.9 245.9,122.3 C246.3,122 246.6,121.6 246.8,121.2 C247,120.8 247.1,120.4 247.1,119.9 C247,119 246.5,118.2 245.6,117.7 C244.8,117.2 243.7,117 242.6,117.1 C241.2,117.2 240.1,117.7 239.4,118.5 L234,102.1 C233.9,101.9 233.8,101.7 233.5,101.6 C233.3,101.5 233,101.6 232.9,101.7 L226.8,106 C226.5,106.2 226.4,106.7 226.6,107 C226.8,107.3 227.3,107.4 227.6,107.2 L232.9,103.4 L233.2,104.3 L227,108.6 C226.7,108.8 226.6,109.3 226.8,109.6 C227,109.9 227.5,110 227.8,109.8 L233.7,105.7 L238.6,120.6 L238.6,120.6 C238.9,122.3 240.8,123.4 243.1,123.3 L243.1,123.3 Z M240.1,120.4 C240.1,120.2 240.1,120 240.2,119.9 C240.5,119.2 241.6,118.7 242.8,118.6 C243.6,118.5 244.4,118.7 245,119 C245.3,119.2 245.8,119.5 245.8,120 C245.8,120.5 245.4,120.9 245.1,121.1 C244.6,121.5 243.8,121.8 243,121.8 C241.5,121.9 240.1,121.3 240.1,120.4 L240.1,120.4 Z" id="Shape" fill="#FC860A" fill-rule="nonzero"></path>
                        <path d="M97.4,80.5 L97.4,80.5 L91.4,66 L98.5,65.2 C98.9,65.2 99.2,64.8 99.1,64.4 C99.1,64 98.7,63.7 98.3,63.8 L90.8,64.6 L90.4,63.8 L96.9,63.2 C97.3,63.2 97.6,62.8 97.5,62.4 C97.5,62 97.1,61.7 96.7,61.8 L89.3,62.5 C89.1,62.5 88.9,62.6 88.8,62.8 C88.7,63 88.7,63.2 88.8,63.4 L95.4,79.3 C94.4,79.2 93.1,79.6 92.1,80.4 C91.2,81.1 90.6,81.9 90.3,82.8 C90,83.8 90.1,84.7 90.6,85.4 C90.9,85.7 91.2,86 91.6,86.2 C92,86.4 92.5,86.4 93,86.4 C93.9,86.3 94.9,85.9 95.8,85.3 C97.7,84 98.3,81.9 97.4,80.5 L97.4,80.5 Z M95,84.3 C94.4,84.8 93.6,85.1 93,85.1 C92.7,85.1 92.1,85.1 91.8,84.7 C91.5,84.3 91.6,83.7 91.7,83.4 C91.9,82.8 92.4,82.1 93,81.7 C94,81 95.1,80.7 95.8,81 C96,81.1 96.1,81.2 96.2,81.3 C96.8,81.9 96.2,83.4 95,84.3 L95,84.3 Z" id="Shape" fill="#FC860A" fill-rule="nonzero"></path>
                        <path d="M46.4,178 L46.4,178 L40.4,163.5 L47.5,162.7 C47.9,162.7 48.2,162.3 48.1,161.9 C48.1,161.5 47.7,161.2 47.3,161.3 L39.8,162.1 L39.4,161.3 L45.9,160.7 C46.3,160.7 46.6,160.3 46.5,159.9 C46.5,159.5 46.1,159.2 45.7,159.3 L38.3,160 C38.1,160 37.9,160.1 37.8,160.3 C37.7,160.5 37.7,160.7 37.8,160.9 L44.4,176.8 C43.4,176.7 42.1,177.1 41.1,177.9 C40.2,178.6 39.6,179.4 39.3,180.3 C39,181.3 39.1,182.2 39.6,182.9 C39.9,183.2 40.2,183.5 40.6,183.7 C41,183.9 41.5,183.9 42,183.9 C42.9,183.8 43.9,183.4 44.8,182.8 C46.6,181.5 47.2,179.4 46.4,178 L46.4,178 Z M43.9,181.8 C43.3,182.3 42.5,182.6 41.9,182.6 C41.6,182.6 41,182.6 40.7,182.2 C40.4,181.8 40.5,181.2 40.6,180.9 C40.8,180.3 41.3,179.6 41.9,179.2 C42.9,178.5 44,178.2 44.7,178.5 C44.9,178.6 45,178.7 45.1,178.8 C45.7,179.4 45.1,180.8 43.9,181.8 L43.9,181.8 Z" id="Shape" fill="#FC860A" fill-rule="nonzero"></path>
                        <path d="M223.2,31 L223.2,31 L217.2,16.5 L224.3,15.7 C224.7,15.7 225,15.3 224.9,14.9 C224.9,14.5 224.5,14.2 224.1,14.3 L216.6,15.1 L216.2,14.3 L222.7,13.7 C223.1,13.7 223.4,13.3 223.3,12.9 C223.3,12.5 222.9,12.2 222.5,12.3 L215.1,13 C214.9,13 214.7,13.1 214.6,13.3 C214.5,13.5 214.5,13.7 214.6,13.9 L221.2,29.8 C220.2,29.7 218.9,30.1 217.9,30.9 C217,31.6 216.4,32.4 216.1,33.3 C215.8,34.3 215.9,35.2 216.4,35.9 C216.7,36.2 217,36.5 217.4,36.7 C217.8,36.9 218.3,36.9 218.8,36.9 C219.7,36.8 220.7,36.4 221.6,35.8 C223.4,34.5 224,32.4 223.2,31 L223.2,31 Z M220.7,34.7 C220.1,35.2 219.3,35.5 218.7,35.5 C218.4,35.5 217.8,35.5 217.5,35.1 C217.2,34.7 217.3,34.1 217.4,33.8 C217.6,33.2 218.1,32.5 218.7,32.1 C219.7,31.4 220.8,31.1 221.5,31.4 C221.7,31.5 221.8,31.6 221.9,31.7 C222.5,32.4 221.9,33.8 220.7,34.7 L220.7,34.7 Z" id="Shape" fill="#FC860A" fill-rule="nonzero"></path>
                    </g>
                    <g id="women" transform="translate(410.000000, 164.000000)">
                        <g id="legs_1_" transform="translate(0.000000, 436.000000)" fill-rule="nonzero">
                            <path d="M54.4,53.7 C54.3,53.8 54.2,53.9 54.2,54 C55,60.2 55.1,157 72.1,245.8 C68.2,246.4 64.3,247.1 60.4,247.7 L59.9,244.2 L56.3,248.4 C42.4,250.7 28.5,253.1 14.5,255.5 C9.9,256.3 5.3,257.1 0.7,257.9 C0.4,256.8 0.2,255 0.7,253 C2.3,247 9.5,244.5 23.4,239.2 C27.5,237.6 34.8,234.9 44.5,231.1 C44.1,229.4 43.8,227.7 43.4,226 C22.3,125.4 2.6,44.4 3.9,38 L3.9,38 L3.9,37.8 C4,37.5 4.1,37.2 4.2,36.8 C4.6,35.3 5.1,33.9 5.6,32.5 C8,29.2 10.5,25.9 12.9,22.4 C18,15.3 23.2,7.9 28.5,0.2 C32.2,0.4 36,0.6 39.8,0.8 C56.6,1.7 73.3,2.7 90.1,3.6 C87.3,7.6 84.4,11.5 81.6,15.5 C76.6,22.5 71.6,29.4 66.6,36.4 C62.6,42.3 58.5,48 54.4,53.7 L54.4,53.7 Z" id="Shape" fill="url(#linearGradient-2)"></path>
                            <path d="M81.7,15.7 C76.7,22.7 71.7,29.6 66.7,36.6 C62.6,42.3 58.5,48 54.4,53.7 L4,38.1 L4,37.9 C4.1,37.6 4.2,37.3 4.3,36.9 C4.7,35.4 5.2,34 5.7,32.6 C13.2,22.4 20.9,11.7 28.6,0.4 C32.4,0.6 36.1,0.8 39.9,1 L81.7,15.7 L81.7,15.7 Z" id="Shape" fill="#C5856E"></path>
                            <path d="M263.5,166.5 L259.5,165.3 L262.2,171.9 C258.3,188.1 254.4,204.3 250.5,220.6 C249.2,220.5 247.4,220.2 245.6,219 C240.8,215.8 240.4,208.6 240.7,191.4 C240.8,184.8 241.1,176.9 241.5,167.8 L241.5,167.8 C228.1,160.1 214.6,152.4 201,144.7 C194.5,141 188,137.3 181.5,133.7 C181.5,133.7 154.3,118.5 116.6,93.1 C104.5,84.9 92.1,76.2 89.8,62.4 C88.6,54.9 90.4,46.3 90.7,45.2 C91.5,42 92.6,38.9 93.8,36 C95.5,32.1 97.5,28.6 99.6,25.4 C104,18.7 108.7,13.7 111.1,11.2 C112,11.2 112.9,11.3 113.8,11.3 C130.1,12 146.4,12.8 162.7,13.5 L162.1,14.8 C162.1,14.8 162.1,14.9 162,14.9 C161.6,16 161.1,17.1 160.6,18.1 C159.8,20 158.9,22 158.1,24 C152.7,36.3 141.3,59.5 141.3,59.5 C182.5,92.8 223.7,126.1 264.9,159.5 C264.6,162 264,164.2 263.5,166.5 L263.5,166.5 Z" id="Shape" fill="url(#linearGradient-3)"></path>
                            <path d="M160.9,18.3 C160.1,20.2 159.2,22.2 158.4,24.2 C153.7,35 148.8,45.3 143.7,55.2 C126.1,51.9 108.4,48.6 90.8,45.3 C92.6,37.8 96.1,31.1 99.7,25.5 C104.1,18.8 108.8,13.8 111.2,11.4 C112.1,11.4 113,11.5 113.9,11.5 L160.9,18.3 L160.9,18.3 Z" id="Shape" fill="#C5856E"></path>
                            <path d="M45.3,231.2 L43.4,226.1 C22.3,125.5 2.6,44.5 3.9,38.1 C6.1,38.9 8.3,40.3 9.6,41.1 C23.6,49.9 24.1,69.3 28.3,106.9 C29.9,121.8 32.3,136.7 34,151.6 C36.2,170.7 39.7,197.9 45.3,231.2 L45.3,231.2 Z" id="Shape" fill="url(#linearGradient-4)" opacity="0.43"></path>
                            <path d="M241.6,167.8 C228.2,160.1 214.7,152.4 201.1,144.7 C194.6,141 188.1,137.3 181.6,133.7 C181.6,133.7 154.4,118.5 116.7,93.1 C104.6,84.9 92.2,76.2 89.9,62.4 C88.7,54.9 90.5,46.3 90.8,45.2 C91.6,42 92.7,38.9 93.9,36 L99.6,37 C99.6,37 91.5,64.6 122.3,84.9 C152.9,105.1 240,166.7 241.6,167.8 L241.6,167.8 Z" id="Shape" fill="url(#linearGradient-5)" opacity="0.25"></path>
                        </g>
                        <path d="M101.2,155.6 C101.2,155.6 91,128.3 84.2,125.6 C77.4,122.9 54.2,113.3 54.2,116.1 C54.2,118.9 82.1,130.4 82.8,131.8 C83.5,133.2 85.5,142 81.4,142 C77.3,142 66.4,137.2 65.7,139.3 C65,141.4 93.6,161.1 93.6,161.1 L101.2,155.6 L101.2,155.6 Z" id="Shape" fill="#C5856E" fill-rule="nonzero"></path>
                        <g id="neck_1_" transform="translate(186.000000, 70.000000)" fill-rule="nonzero">
                            <path d="M31.6,57 C25.1,65.7 9.8,68.7 3.5,62.8 C0.3,59.8 0.2,55.1 0.2,50.1 L0.2,48.8 C0.2,43.7 0.3,38.1 0.4,32 C0.6,24.4 0.8,16.1 1.3,7 C12.4,4.7 23.4,2.3 34.5,0 C34.7,10 34.9,23.1 34.9,38.7 C34.9,47.9 34.9,52.6 31.6,57 L31.6,57 Z" id="Shape" fill="#C5856E"></path>
                            <path d="M22.3,26.1 C22.3,26.1 10.6,47.9 0.2,48.8 C0.2,43.7 0.3,38.1 0.4,32 C5.1,31.5 13.2,30.4 22.3,26.1 L22.3,26.1 Z" id="Shape" fill="#153E5C" opacity="0.25"></path>
                        </g>
                        <g id="dress" transform="translate(1.000000, 112.000000)">
                            <path d="M224.4,14.9 C238.7,26.9 260.2,47.4 278.7,78.3 C292.8,101.9 303.8,120.4 298.1,134.9 C289.3,157 243.6,164.6 186.3,154.7 C184.5,145.7 182.6,136.6 180.8,127.6 C202.4,124.8 220.1,121.2 233.4,118.2 C244.5,115.7 247.5,114.6 248.8,111.7 C253.1,102.4 233.4,88.2 207.6,51.2 C203.4,45.2 200.2,40.1 198.2,37.1 L224.4,14.9 L224.4,14.9 Z" id="Shape" fill="url(#linearGradient-6)" fill-rule="nonzero"></path>
                            <path d="M250.9,51.1 L250.9,52.3 C250.9,52.8 250.9,53.3 250.8,53.8 C250.8,54.4 250.7,54.9 250.7,55.5 L250.7,56 C250.7,56.4 250.7,56.9 250.6,57.3 C250.5,59 250.4,60.7 250.2,62.5 L250.2,63 L250.2,63.1 C250.2,63.3 250.2,63.6 250.1,63.9 C249.8,66.9 249.4,70 249,73.2 C248.9,73.8 248.8,74.4 248.8,75 C248.4,77.7 248,80.4 247.5,83.2 C247.3,84.2 247.1,85.3 247,86.3 C247,86.5 246.9,86.7 246.9,86.9 C246.8,87.5 246.7,88.2 246.5,88.9 C245.6,93.5 244.7,98.4 243.5,103.5 C243.4,104.1 243.2,104.7 243.1,105.3 C242.9,106.2 242.7,107.1 242.5,107.9 C242.3,108.9 242,109.9 241.8,110.9 C241.7,111.5 241.5,112.2 241.3,112.8 C241,114.1 240.7,115.4 240.4,116.7 C240.3,117.3 240.1,117.9 240,118.5 C239,122.5 237.9,126.6 236.8,130.9 C236.6,131.6 236.4,132.3 236.2,133 C235.9,134.3 235.5,135.6 235.1,137 C234.4,139.5 233.7,142 233,144.5 C232.7,145.6 232.4,146.6 232.1,147.7 C229.6,156.2 226.9,165.2 223.8,174.7 L223.8,174.7 C223.1,176.7 222.5,178.8 221.8,180.8 C220.4,185 219,189.2 217.5,193.6 C217.1,194.6 216.8,195.7 216.4,196.8 C216.2,197.5 215.9,198.1 215.7,198.8 C215,200.9 214.2,203 213.5,205.2 C211.1,212 208.6,219 206,226.2 C205.3,228.2 204.6,230.1 203.8,232.1 C199.7,243.3 195.3,255 190.5,267.2 L190.5,267.2 C189.8,268.9 189.2,270.6 188.5,272.3 L188.5,272.3 C186.2,278.3 183.7,284.4 181.2,290.6 C180.7,291.9 180.2,293.2 179.6,294.5 C175.9,303.7 172.1,313.1 168,322.8 C167.4,324.2 166.8,325.6 166.3,327 C163.6,333.4 160.9,340 158,346.7 C157.8,347.3 157.5,347.9 157.2,348.5 L156.6,349.8 L156.6,349.9 C156.4,350.4 156.2,350.9 156,351.4 L156,351.4 C154.9,353.9 153.8,356.5 152.7,359 C150.6,363.1 148.6,367.3 146.5,371.4 C138.8,371.9 130.7,372.3 122.3,372.4 L120.3,372.4 L114.3,372.4 C111.9,372.4 109.4,372.4 106.9,372.3 L106.8,372.3 C104.9,372.3 103,372.2 101.2,372.2 C100.6,372.2 99.9,372.2 99.2,372.1 C97.5,372.1 95.7,372 94,371.9 C93.2,371.9 92.3,371.8 91.5,371.8 C90.7,371.8 89.8,371.7 89,371.7 C88.3,371.7 87.7,371.6 87,371.6 C86.6,371.6 86.2,371.6 85.8,371.5 C82.9,371.3 80,371.1 77.2,370.9 C73,370.6 68.8,370.2 64.7,369.7 C62,369.4 59.3,369 56.6,368.7 C55.9,368.6 55.3,368.5 54.6,368.5 C43.9,367.2 33.2,365.8 22.5,364.5 C21.8,364.4 21.2,364.3 20.5,364.3 C14.6,363.6 8.8,362.8 2.9,362.1 L0.6,362.1 C0.8,361.8 1.1,361.5 1.3,361.2 C1.8,360.5 2.4,359.7 2.9,359 C3.5,358.3 4,357.5 4.6,356.8 C9.3,350.4 14.1,343.8 18.8,337 C19.4,336.2 19.9,335.4 20.5,334.6 L20.5,334.6 C21.2,333.7 21.8,332.7 22.5,331.7 L22.5,331.7 C24.2,329.3 25.8,326.9 27.5,324.5 C29.5,321.5 31.6,318.5 33.6,315.5 C35.2,313 36.9,310.5 38.5,308 C39.4,306.6 40.3,305.2 41.3,303.8 C43.1,301 45,298.1 46.8,295.2 C49.4,291.2 51.9,287.1 54.5,282.9 C55.2,281.8 55.8,280.7 56.5,279.7 C60.5,273.3 64.4,266.7 68.3,259.9 C69,258.7 69.7,257.6 70.3,256.4 C73.1,251.6 75.9,246.7 78.6,241.7 C79.2,240.6 79.8,239.5 80.4,238.4 C81.8,236 83.1,233.5 84.4,231 C85.1,229.8 85.8,228.5 86.4,227.3 C86.5,227.1 86.6,226.8 86.8,226.6 L86.8,226.6 C87.5,225.4 88.1,224.1 88.8,222.8 C90,220.5 91.2,218.2 92.4,215.9 C93.1,214.6 93.8,213.2 94.5,211.8 C95.6,209.6 96.7,207.5 97.9,205.3 C100,201.2 102.1,197 104.2,192.7 C105.9,189.3 107.6,185.8 109.2,182.3 C109.9,180.8 110.6,179.4 111.3,177.9 C112.4,175.5 113.5,173.1 114.7,170.7 C116.3,167.3 118.1,163.7 120.1,159.8 L120.1,159.8 C120.7,158.6 121.4,157.3 122.1,156 L122.1,156 C122.4,155.4 122.8,154.8 123.1,154.1 C123.4,153.5 123.8,152.9 124.1,152.3 C132.7,136.5 143.8,118 155.8,99.5 C156.5,98.5 157.1,97.4 157.8,96.4 C167.8,81 178.3,65.7 188.2,52 C188.9,51.1 189.5,50.2 190.2,49.2 C197.5,39.2 204.4,30.2 210.6,22.7 C211.3,21.9 212,21 212.6,20.2 C212.9,19.9 213.2,19.5 213.5,19.2 C216.3,15.9 219,12.9 221.4,10.4 L221.4,10.4 C221.6,10.2 221.7,10 221.9,9.9 C222.2,9.6 222.4,9.4 222.7,9.1 C222.9,8.9 223.2,8.6 223.4,8.4 C225,6.8 226.5,5.4 227.9,4.3 C228.1,4.1 228.3,4 228.5,3.8 C229,3.4 229.5,3 229.9,2.7 C230.2,2.5 230.6,2.2 230.9,2 C231.1,1.9 231.3,1.8 231.4,1.7 C231.6,1.6 231.7,1.5 231.9,1.4 C232.1,1.3 232.2,1.3 232.4,1.2 C232.6,1.1 232.9,1 233.1,1 C233.2,1 233.3,1 233.4,0.9 L233.7,0.9 L233.7,0.9 L233.9,0.9 L234.4,0.9 C234.5,0.9 234.6,0.9 234.7,1 C234.8,1 234.9,1.1 235,1.1 C235.1,1.1 235.2,1.2 235.2,1.2 C235.8,1.6 236.3,2 236.9,2.5 C237.5,3 238,3.5 238.5,4 C244,9.3 248,17.8 249.7,30.4 C250.9,36.2 251.2,43.1 250.9,51.1 L250.9,51.1 Z" id="Shape" fill="#8677A7" fill-rule="nonzero"></path>
                            <path d="M137.3,154.6 C132.6,154.5 128.3,153.5 124.4,152 C120.1,150.3 116,148.1 111.9,145.7 C76.8,125.9 64.5,90.3 60.9,77.9 L69.2,66.9 L95.4,32.1 C108.9,58.1 122.3,84 135.8,110 C141.6,91 147.2,74.3 151.9,60.8 C157.9,44 162.7,32.3 165.6,27.4 C169,21.7 173.7,18.3 173.7,18.3 C178.9,14.6 184.3,13.5 187.2,13.3 C199.1,12.2 210,21.1 213.7,25.6 C215.2,27.5 216.4,29.8 217.2,32.3 C228.5,66.3 183.8,155.5 137.3,154.6 L137.3,154.6 Z" id="Shape" fill="#8677A7" fill-rule="nonzero"></path>
                            <path d="M89.1,40.3 L89.1,127.8 C88.4,127.1 87.8,126.4 87.1,125.6 L87.1,43 L89.1,40.3 L89.1,40.3 Z" id="Shape" fill="#0D2A28" fill-rule="nonzero"></path>
                            <path d="M89.1,222.6 L89.1,371.6 C88.4,371.6 87.8,371.5 87.1,371.5 L87.1,226.3 C87.8,225.1 88.4,223.8 89.1,222.6 L89.1,222.6 Z" id="Shape" fill="#0D2A28" fill-rule="nonzero"></path>
                            <path d="M56.7,279.4 L56.7,368.6 C56,368.5 55.4,368.4 54.7,368.4 L54.7,282.7 C55.3,281.6 56,280.5 56.7,279.4 L56.7,279.4 Z" id="Shape" fill="#0D2A28" fill-rule="nonzero"></path>
                            <path d="M22.6,331.6 L22.6,364.4 C21.9,364.3 21.3,364.2 20.6,364.2 L20.6,334.6 L20.6,334.6 C21.3,333.5 21.9,332.6 22.6,331.6 L22.6,331.6 Z" id="Shape" fill="#0D2A28" fill-rule="nonzero"></path>
                            <path d="M122.4,84 L122.4,151.1 C121.7,150.8 121.1,150.5 120.4,150.2 L120.4,80.2 C121,81.5 121.7,82.8 122.4,84 L122.4,84 Z" id="Shape" fill="#0D2A28" fill-rule="nonzero"></path>
                            <path d="M122.4,155.7 L122.4,372.2 L120.4,372.2 L120.4,159.6 L120.4,159.6 C121,158.3 121.7,157 122.4,155.7 L122.4,155.7 Z" id="Shape" fill="#0D2A28" fill-rule="nonzero"></path>
                            <path d="M190.5,13.1 L190.5,267 C189.8,268.7 189.2,270.4 188.5,272.1 L188.5,13.1 L190.5,13.1 L190.5,13.1 Z" id="Shape" fill="#0D2A28" fill-rule="nonzero"></path>
                            <path d="M158.1,44.2 L158.1,346.4 C157.9,347 157.6,347.6 157.3,348.2 L156.7,349.5 L156.7,349.6 C156.5,350.1 156.3,350.6 156.1,351.1 L156.1,49.4 C156.7,47.6 157.4,45.9 158.1,44.2 L158.1,44.2 Z" id="Shape" fill="#0D2A28" fill-rule="nonzero"></path>
                            <path d="M223.7,8.2 L223.7,174.5 C223,176.5 222.4,178.6 221.7,180.6 L221.7,10.3 C221.9,10.1 222,9.9 222.2,9.8 C222.5,9.5 222.7,9.3 223,9 C223.3,8.7 223.5,8.5 223.7,8.2 L223.7,8.2 Z" id="Shape" fill="#0D2A28" fill-rule="nonzero"></path>
                            <path d="M250.9,51.1 L250.9,52.3 C250.9,52.8 250.9,53.3 250.8,53.8 C250.8,54.4 250.7,54.9 250.7,55.5 L250.7,56 C250.7,56.4 250.7,56.9 250.6,57.3 C250.5,59 250.4,60.7 250.2,62.5 L250.2,63.1 L250.2,30.2 C250.9,36.2 251.2,43.1 250.9,51.1 L250.9,51.1 Z" id="Shape" fill="#0D2A28" fill-rule="nonzero"></path>
                            <path d="M250.9,51.1 L250.9,52.3 C250.9,52.8 250.9,53.3 250.8,53.8 C250.8,54.4 250.7,54.9 250.7,55.5 L250.7,56 C250.7,56.4 250.7,56.9 250.6,57.3 C250.5,59 250.4,60.7 250.2,62.5 L250.2,63 C250.2,63.3 250.2,63.5 250.1,63.8 C249.8,66.8 249.4,69.9 249,73.1 C248.9,73.7 248.8,74.3 248.8,74.9 C248.4,77.6 248,80.3 247.5,83.1 C247.3,84.1 247.1,85.2 247,86.2 C247,86.4 246.9,86.6 246.9,86.8 C246.8,87.4 246.7,88.1 246.5,88.8 C245.6,93.4 244.7,98.3 243.5,103.4 C243.4,104 243.2,104.6 243.1,105.2 C242.9,106.1 242.7,107 242.5,107.8 C242.3,108.8 242,109.8 241.8,110.8 C241.7,111.4 241.5,112.1 241.3,112.7 C241,114 240.7,115.3 240.4,116.6 C240.3,117.2 240.1,117.8 240,118.4 C239,122.4 237.9,126.5 236.8,130.8 C236.6,131.5 236.4,132.2 236.2,132.9 C235.9,134.2 235.5,135.5 235.1,136.9 C234.4,139.4 233.7,141.9 233,144.4 C232.7,145.5 232.4,146.5 232.1,147.6 C229.6,156.1 226.9,165.1 223.8,174.6 L223.8,174.6 C223.1,176.6 222.5,178.7 221.8,180.7 C220.4,184.9 219,189.1 217.5,193.5 C217.1,194.5 216.8,195.6 216.4,196.7 C216.2,197.4 215.9,198 215.7,198.7 C215,200.8 214.2,202.9 213.5,205.1 C211.1,211.9 208.6,218.9 206,226.1 C205.3,228.1 204.6,230 203.8,232 C199.7,243.2 195.3,254.9 190.5,267.1 L190.5,267.1 C189.8,268.8 189.2,270.5 188.5,272.2 L188.5,272.2 C186.2,278.2 183.7,284.3 181.2,290.5 C180.7,291.8 180.2,293.1 179.6,294.4 C175.9,303.6 172.1,313 168,322.7 C167.4,324.1 166.8,325.5 166.3,326.9 C163.6,333.3 160.9,339.9 158,346.6 C157.8,347.2 157.5,347.8 157.2,348.4 L156.6,349.7 L156.6,349.8 C156.4,350.3 156.2,350.8 156,351.3 L156,351.3 C154.9,353.8 153.8,356.4 152.7,358.9 C150.6,363 148.6,367.2 146.5,371.3 C138.8,371.8 130.7,372.2 122.3,372.3 L120.3,372.3 L120.3,372.3 L114.3,372.3 C111.9,372.3 109.4,372.3 106.9,372.2 L106.8,372.2 C104.9,372.2 103,372.1 101.2,372.1 L99.2,372.1 C97.5,372 95.7,372 94,371.9 C93.2,371.9 92.3,371.8 91.5,371.8 C90.7,371.8 89.8,371.7 89,371.7 C88.3,371.7 87.7,371.6 87,371.6 C86.6,371.6 86.2,371.6 85.8,371.5 C82.9,371.3 80,371.1 77.2,370.9 C73,370.6 68.8,370.2 64.7,369.7 C62,369.4 59.3,369 56.6,368.7 C55.9,368.6 55.3,368.5 54.6,368.5 C43.9,367.2 33.2,365.8 22.5,364.5 C21.8,364.4 21.2,364.3 20.5,364.3 C14.6,363.6 8.8,362.8 2.9,362.1 L0.6,362.1 C0.8,361.8 1.1,361.5 1.3,361.2 C1.8,360.5 2.4,359.7 2.9,359 C3.5,358.3 4,357.5 4.6,356.8 C9.3,350.4 14.1,343.8 18.8,337 C19.4,336.2 19.9,335.4 20.5,334.6 L20.5,334.6 C21.2,333.7 21.8,332.7 22.5,331.7 L22.5,331.7 C24.2,329.3 25.8,326.9 27.5,324.5 C29.5,321.5 31.6,318.5 33.6,315.5 C35.2,313 36.9,310.5 38.5,308 C39.4,306.6 40.3,305.2 41.3,303.8 C43.1,301 45,298.1 46.8,295.2 C49.4,291.2 51.9,287.1 54.5,282.9 C55.2,281.8 55.8,280.7 56.5,279.7 C60.5,273.3 64.4,266.7 68.3,259.9 C69,258.7 69.7,257.6 70.3,256.4 C73.1,251.6 75.9,246.7 78.6,241.7 C79.2,240.6 79.8,239.5 80.4,238.4 C81.8,236 83.1,233.5 84.4,231 C85.1,229.8 85.8,228.5 86.4,227.3 C86.5,227.1 86.6,226.8 86.8,226.6 L86.8,226.6 C87.5,225.4 88.1,224.1 88.8,222.9 C90,220.6 91.2,218.3 92.4,216 C93.1,214.7 93.8,213.3 94.5,211.9 C95.6,209.7 96.7,207.6 97.9,205.4 C100,201.3 102.1,197.1 104.2,192.8 C105.9,189.4 107.6,185.9 109.2,182.4 C109.9,180.9 110.6,179.5 111.3,178 C112.4,175.6 113.5,173.2 114.7,170.8 C116.3,167.4 118.1,163.8 120.1,159.9 L120.1,159.9 C120.7,158.7 121.4,157.4 122.1,156.1 L122.1,156.1 C122.4,155.5 122.8,154.9 123.1,154.2 C123.4,153.6 123.8,152.9 124.1,152.3 C123.4,152 122.7,151.8 122.1,151.5 C121.4,151.2 120.8,150.9 120.1,150.6 C117.3,149.2 114.5,147.7 111.7,146.1 C102.7,141 95.1,134.8 88.9,128.3 C88.2,127.6 87.6,126.9 86.9,126.1 C70.3,107.8 63.3,87.1 60.7,78.2 L86.9,43.4 L88.9,40.7 L95.2,32.4 C103.5,48.5 111.8,64.5 120.2,80.6 C120.9,81.9 121.5,83.2 122.2,84.5 C126.7,93.1 131.1,101.7 135.6,110.4 C143.2,85.6 150.3,64.8 155.9,49.9 C156.6,48.1 157.3,46.4 157.9,44.7 C161.1,36.6 163.7,30.9 165.5,27.8 C168.9,22.1 173.6,18.8 173.6,18.8 C178.8,15.1 184.2,14 187.1,13.8 C187.5,13.8 187.9,13.7 188.3,13.7 L190.3,13.7 C198.7,14.1 206.3,19 210.7,23.1 C211.4,22.3 212.1,21.4 212.7,20.6 C213,20.3 213.3,19.9 213.6,19.6 C216.4,16.3 219.1,13.3 221.5,10.8 L221.5,10.8 C221.7,10.6 221.8,10.4 222,10.3 C222.3,10 222.5,9.8 222.8,9.5 C223,9.3 223.3,9 223.5,8.8 C225.1,7.2 226.6,5.8 228,4.7 C228.2,4.5 228.4,4.4 228.6,4.2 C229.1,3.8 229.6,3.4 230,3.1 C230.3,2.9 230.7,2.6 231,2.4 C231.2,2.3 231.4,2.2 231.5,2.1 C231.7,2 231.8,1.9 232,1.8 C232.2,1.7 232.3,1.7 232.5,1.6 C232.7,1.5 233,1.4 233.2,1.4 C233.3,1.4 233.4,1.4 233.5,1.3 L233.8,1.3 L233.8,1.3 L234,1.3 L234.5,1.3 C234.6,1.3 234.7,1.3 234.8,1.4 C234.9,1.4 235,1.5 235.1,1.5 C235.2,1.5 235.3,1.6 235.3,1.6 C235.9,2 236.4,2.4 237,2.9 C237.6,3.4 238.1,3.9 238.6,4.4 C244.1,9.7 248.1,18.2 249.8,30.8 C250.9,36.2 251.2,43.1 250.9,51.1 L250.9,51.1 Z" id="Shape"></path>
                            <path d="M219.5,104.3 C219.5,104.3 196,228.6 110.8,218 C104.3,217.2 98.3,216.4 92.7,215.6 C100.3,201.1 107.7,186.1 114.9,170.4 C117.5,164.9 120.6,158.7 124.3,152 C149.6,161.5 185.3,159.5 219.5,104.3 L219.5,104.3 Z" id="Shape" fill="url(#linearGradient-7)" fill-rule="nonzero" opacity="0.31"></path>
                            <path d="M206.1,225.6 C193.2,261 177.1,301.6 157.3,348.2 L156.7,349.5 C156.7,349.5 156.7,349.6 156.6,349.6 C155.3,352.6 154,355.7 152.7,358.7 C150.6,362.8 148.6,367 146.5,371.1 C132.1,372.1 116.2,372.5 99.3,372 C87.1,371.6 75.6,370.7 64.8,369.6 C44.2,367 23.6,364.4 3,361.9 L0.7,361.9 C0.9,361.6 1.1,361.3 1.4,361 C41.8,334.2 144.5,266.2 206.1,225.6 L206.1,225.6 Z" id="Shape" fill="url(#linearGradient-8)" fill-rule="nonzero" opacity="0.07"></path>
                            <path d="M217.2,32.2 C207.8,53.6 171.1,59.2 151.9,60.7 C157.9,43.9 162.7,32.2 165.6,27.3 C169,21.6 173.7,18.2 173.7,18.2 C178.9,14.5 184.3,13.4 187.2,13.2 C199.1,12.1 210,21 213.7,25.5 C215.2,27.4 216.4,29.7 217.2,32.2 L217.2,32.2 Z" id="Shape" fill="url(#linearGradient-9)" fill-rule="nonzero" opacity="0.15"></path>
                            <path d="M124.4,152 C120.1,150.3 116,148.1 111.9,145.7 C76.8,125.9 64.5,90.3 60.9,77.9 L69.2,66.9 C87.6,95.2 106,123.6 124.4,152 L124.4,152 Z" id="Shape" fill="#153E5C" fill-rule="nonzero" opacity="0.08"></path>
                        </g>
                        <g id="head_1_" transform="translate(166.000000, 0.000000)" fill-rule="nonzero">
                            <path d="M64.3,60.9 C62.7,66.7 59.3,76.6 51,85.7 C48.5,88.4 32.3,106.6 20.4,101.8 C15.3,99.7 11.9,93.8 9.7,88.2 C9.5,87.6 9.3,87 9.1,86.4 C7.8,82.5 7,79 6.6,77.4 C6.2,75.4 5.9,73.7 5.8,72.5 C3.8,71 2.5,69.6 1.8,68.4 C1.3,67.6 0.9,66.5 1,65.2 C1.2,63.1 2.8,62.1 4.2,60.3 C5.6,58.6 6.2,56.7 7.4,53 C8.5,49.7 8.7,46.5 8.6,43.8 C8.6,43.2 8.6,42.6 8.5,42.1 C8.4,40.7 8.3,39.4 8.2,38.4 C7.8,33.2 8.8,25.6 14.7,15.7 C31.3,30.7 47.8,45.8 64.3,60.9 L64.3,60.9 Z" id="face_1_" fill="#C5856E"></path>
                            <path d="M15.2,86.8 C14.7,86.8 14.2,86.8 13.9,86.7 C13.6,86.7 13.3,86.3 13.4,86 C13.4,85.7 13.8,85.4 14.1,85.5 C15.1,85.6 17,85.7 19,84.7 C21.6,83.4 22.6,81.1 23,80.2 C23.1,79.9 23.5,79.7 23.8,79.9 C24.1,80 24.3,80.4 24.1,80.7 C23.7,81.7 22.5,84.3 19.5,85.8 C17.9,86.6 16.4,86.8 15.2,86.8 L15.2,86.8 Z" id="Shape" fill="#000000"></path>
                            <path d="M17.9,47.8 C16.8,46.9 15.2,45.9 13.2,45 C11.6,44.3 10.1,44 8.7,43.8 C8.7,43.2 8.7,42.6 8.6,42.1 C10.2,41.8 11.8,41.9 13.4,42.6 C16.7,44 17.7,47.3 17.9,47.8 L17.9,47.8 Z" id="brow" fill="#000000"></path>
                            <circle id="eye" fill="#000000" cx="12" cy="53" r="2"></circle>
                            <g id="hair_1_" transform="translate(13.000000, 0.000000)">
                                <path d="M122.5,149.9 C115.4,171.4 90.9,199.5 69,196 C44,192 34.3,150.5 30.3,133.5 C23.8,106.2 29.9,96.1 22.8,68.4 C17.1,46.1 7.2,29.3 0,18.8 C1.9,11.9 5.6,8.2 7.4,6.6 C18.9,-3.3 36.2,2.7 36.9,3 C37.4,3.2 37.7,3.3 37.9,3.4 C65.1,14.3 75.5,55.3 77.1,62 C77.8,64.9 78.3,67.7 78.8,70.4 L78.8,70.5 C80.6,80.6 81.8,89.4 88.6,98.9 C88.7,99 88.8,99.2 88.9,99.3 C88.9,99.4 89,99.4 89.1,99.5 C89.2,99.6 89.2,99.7 89.3,99.8 C89.4,99.9 89.5,100 89.5,100.1 C94.4,106.6 102.4,114.1 104.1,115.7 C116.8,127.6 120.8,127.6 123,131.9 C125.4,136.2 124.9,142.6 122.5,149.9 L122.5,149.9 Z" id="Shape" fill="#F2BE54"></path>
                                <path d="M122.5,149.9 C76.8,122.6 64.5,98.4 62.3,80.6 C61.7,75.8 62,72.3 60.9,64.4 C57.5,37.6 46.8,17 37.9,3.5 C65.1,14.4 75.5,55.4 77.1,62.1 C77.7,65.1 78.3,67.9 78.8,70.5 L78.8,70.6 C82.8,89.1 86.3,95.7 88.6,99 C88.7,99.1 88.8,99.3 88.9,99.4 C88.9,99.5 89,99.5 89.1,99.6 C89.2,99.7 89.2,99.8 89.3,99.9 C89.4,100 89.5,100.1 89.5,100.2 C94.4,106.7 102.4,114.2 104.1,115.8 C116.8,127.7 120.8,127.7 123,132 C125.4,136.2 124.9,142.6 122.5,149.9 L122.5,149.9 Z" id="Shape" fill="url(#linearGradient-10)" opacity="0.28"></path>
                            </g>
                        </g>
                    </g>
                    <g id="man" fill-rule="nonzero">
                        <g id="legs_and_shoes" transform="translate(33.000000, 298.000000)">
                            <g id="shoes" transform="translate(31.000000, 387.000000)">
                                <path d="M37.6,21 C40.1,27.2 42.5,33.5 45,39.7 C50.7,36.5 56.4,33.2 62,30 C60.7,24.6 59.5,19.1 58.2,13.7 C51.4,16.1 44.5,18.6 37.6,21 L37.6,21 Z" id="Shape" fill="#FC860A"></path>
                                <path d="M71,56.8 C65.1,58.6 59.1,60.5 53.2,62.3 C35.5,67.8 17.9,73.2 0.2,78.7 C0.2,77.1 0.3,75.3 0.6,73.3 C0.9,71.5 1.3,69.7 1.9,67.8 C2.7,65.6 3.8,63.3 5.4,61.1 C6.6,59.5 8.4,57.4 16.4,52.7 C17.1,52.3 17.8,51.9 18.5,51.4 C19.4,50.9 20.3,50.4 21.2,49.9 C21.5,49.7 21.7,49.6 22,49.5 C22.9,49 23.7,48.6 24.5,48.2 L25.2,47.8 C26.7,47 28.1,46.3 29.5,45.6 C29.8,45.5 30,45.3 30.3,45.2 C31.3,44.7 32.2,44.3 33,43.9 C33.3,43.8 33.5,43.7 33.7,43.6 C41.4,40 45.3,38.3 47.4,33.9 C47.7,33.2 49.3,29.7 52.6,26.9 C52.8,26.8 52.9,26.6 53.1,26.5 C54.9,25.1 56.4,24.5 57.8,24.3 C59.1,24.1 60.2,24.2 61,24.3 L66.9,43.5 L71,56.8 L71,56.8 Z" id="Shape" fill="#0D2A28"></path>
                                <path d="M71,56.8 C47.4,64.1 23.8,71.4 0.2,78.7 C0.2,77.1 0.3,75.3 0.6,73.3 C32.9,65.1 44.6,58.8 48.3,54.2 C48.8,53.6 50.7,51.1 54,48.7 C58.6,45.4 63.5,44.2 67,43.7 C68.3,48.1 69.6,52.5 71,56.8 L71,56.8 Z" id="Shape" fill="#FFFFFF"></path>
                                <path d="M24.5,48.3 L27.1,53.1 L22,49.7 C21.7,49.8 21.5,50 21.2,50.1 L28,54.7 C28,54.7 28.1,54.7 28.2,54.8 C28.3,54.8 28.4,54.8 28.5,54.7 C28.6,54.6 28.7,54.4 28.6,54.2 L25.3,48 L24.5,48.3 L24.5,48.3 Z" id="Shape" fill="#FFFFFF"></path>
                                <path d="M36.1,51.7 C35.9,51.8 35.7,51.8 35.6,51.7 L29.5,45.8 C29.8,45.7 30,45.5 30.3,45.4 L35,49.9 C34.4,48.1 33.7,46 33,44 C33.3,43.9 33.5,43.8 33.7,43.7 C34.6,46.3 35.5,49.1 36.3,51.2 C36.3,51.4 36.3,51.6 36.1,51.7 L36.1,51.7 Z" id="Shape" fill="#FFFFFF"></path>
                                <path d="M16.4,52.8 C15.6,58.3 12.5,66.6 1.9,67.8 C2.7,65.6 3.8,63.3 5.4,61.1 C6.6,59.6 8.4,57.6 16.4,52.8 L16.4,52.8 Z" id="Shape" fill="url(#linearGradient-11)" opacity="0.14"></path>
                                <path d="M197.2,0.2 C198.2,6.8 199.1,13.5 200.1,20.1 C193.3,19.6 186.5,19.1 179.6,18.6 C178.2,13.2 176.9,7.8 175.5,2.4 C182.8,1.7 190,1 197.2,0.2 L197.2,0.2 Z" id="Shape" fill="#FC860A"></path>
                                <path d="M258.4,31.5 C252.7,32.8 247,34.1 241.3,35.4 C222.9,39.6 204.5,43.8 186.1,48 L183.1,34.6 L178.6,15 C179.2,14.5 180.1,13.9 181.3,13.4 C182.8,12.8 184.6,12.6 187.1,13.1 C191.4,13.9 194.5,16.1 195.1,16.5 C199,19.2 203.3,18.7 211.7,18 C212,18 212.2,18 212.5,17.9 C213.5,17.8 214.5,17.7 215.5,17.7 L216.4,17.7 L217,17.7 C218.3,17.6 219.7,17.5 221.2,17.5 L222,17.5 C222.9,17.5 223.9,17.4 224.8,17.4 L225.7,17.4 L228.7,17.4 L231.2,17.4 C240.4,17.5 243,18.4 244.9,19.2 C247.3,20.3 249.4,21.7 251.2,23.2 C252.7,24.5 254,25.9 255.1,27.3 C256.7,28.6 257.7,30.1 258.4,31.5 L258.4,31.5 Z" id="Shape" fill="#0D2A28"></path>
                                <path d="M186.2,48 C210.3,42.5 234.4,37 258.5,31.5 C257.7,30.1 256.7,28.6 255.5,27 C223.4,36.1 210.1,36.5 204.6,34.3 C203.9,34 201,32.8 196.9,32.4 C191.3,31.9 186.5,33.2 183.2,34.6 C184.1,39 185.2,43.5 186.2,48 L186.2,48 Z" id="Shape" fill="#FFFFFF"></path>
                                <path d="M221.4,17.3 L221.6,24.4 C221.6,24.6 221.7,24.8 221.9,24.8 C222,24.8 222.2,24.8 222.2,24.7 L222.3,24.6 L225.9,17.2 L225,17.2 L222.3,22.7 L222.1,17.3 L221.4,17.3 L221.4,17.3 Z" id="Shape" fill="#FFFFFF"></path>
                                <path d="M213.8,26.1 C214,26.1 214.2,26 214.2,25.8 L216.6,17.6 C216.3,17.6 216,17.6 215.7,17.7 L213.9,24 C213.5,22.1 213.1,19.9 212.7,17.9 C212.4,17.9 212.2,17.9 211.9,18 C212.4,20.7 213,23.6 213.4,25.8 C213.5,25.9 213.6,26.1 213.8,26.1 L213.8,26.1 Z" id="Shape" fill="#FFFFFF"></path>
                                <path d="M231.5,17.2 C235,21.5 241.7,27.2 251.5,23 C249.7,21.5 247.6,20.1 245.2,19 C243.3,18.1 240.7,17.3 231.5,17.2 L231.5,17.2 Z" id="Shape" fill="url(#linearGradient-12)" opacity="0.09"></path>
                                <path d="M241.4,35.4 C223,39.6 204.6,43.8 186.2,48 L183.2,34.6 L178.7,15 C179.3,14.5 180.2,13.9 181.4,13.4 C182.9,12.8 184.7,12.6 187.2,13.1 C191.5,13.9 194.6,16.1 195.2,16.5 C199.1,19.2 203.4,18.7 211.8,18 C212.1,18 212.3,18 212.6,17.9 C213.6,17.8 214.6,17.7 215.6,17.7 L216.5,17.7 L217.1,17.7 L241.4,35.4 L241.4,35.4 Z" id="Shape" fill="url(#linearGradient-13)" opacity="0.12"></path>
                                <path d="M71,56.8 C65.1,58.6 59.1,60.5 53.2,62.3 L53.2,26.6 C55,25.2 56.5,24.6 57.9,24.4 C59.2,24.2 60.3,24.3 61.1,24.4 L67,43.6 L71,56.8 L71,56.8 Z" id="Shape" fill="url(#linearGradient-14)" opacity="0.12"></path>
                            </g>
                            <g id="legs">
                                <path d="M228.5,389.4 C226.4,390.9 223.4,392.8 219.6,394.3 C219,394.5 218.5,394.7 217.9,394.9 C214.1,396.2 210.7,396.6 208.2,396.7 C175.4,309.3 163.7,264.8 160.4,240.7 C160,237.7 158.9,229.7 156.3,218.8 C150.9,196.3 144,183 131.2,154.6 C126.5,144.3 119.7,128.9 111.7,109.9 C101.1,125.1 90,142.4 79.3,161.9 C68.2,182 59.1,201.2 51.7,218.8 C53.7,223.4 56.7,230.4 59.8,239.1 C72.8,275.9 73.6,301.8 79.3,342.3 C81.3,356.9 84.6,377.6 89.9,402.7 C90.2,403.9 90.4,405.2 90.7,406.5 C90.6,406.6 90.5,406.7 90.4,406.8 C90.2,407 90,407.1 89.8,407.4 C88,409 84.1,411.9 78.5,412.2 C74.4,412.5 71.2,411.3 69.6,410.6 C60.1,385.1 45.4,345.7 27.4,296.9 C3.2,231.3 -3.33066907e-16,222 0.6,204.3 C1.9,166.8 19.1,129.5 35.1,94.7 C42.5,78.6 52.6,57.6 52.6,57.6 C55.5,51.4 58.4,45.6 61.1,40 L184.3,54.1 L195.4,55.4 C195.7,62 196,68.4 196.4,74.6 C196.4,74.6 197.2,86.8 198.3,99.2 C199.9,115.1 211.8,230.8 228.5,389.4 L228.5,389.4 Z" id="Shape" fill="#BDD3DE"></path>
                                <path d="M90.3,406.7 C90.4,407.4 90.5,408.1 90.6,408.9 L90.3,408.9 C90.1,408.4 89.9,407.8 89.7,407.3 C79.3,376.2 67.5,339.9 54.9,299.2 C38.9,247.5 34.4,230.4 38.7,206.6 C45.2,170 67.3,145.1 72.8,139.2 C87,123.9 101.8,115 111.7,110 C101.1,125.2 90,142.5 79.3,162 C68.2,182.1 59.1,201.3 51.7,218.9 C53.7,223.5 56.7,230.5 59.8,239.2 C72.8,276 73.6,301.9 79.3,342.4 C81.3,357 84.6,377.7 89.9,402.8 C90,404 90.2,405.3 90.3,406.7 L90.3,406.7 Z" id="Shape" fill="url(#linearGradient-15)" opacity="0.53"></path>
                                <path d="M106,57.1 C88.4,118.2 27.9,159.2 1.6,174.6 C10.7,145.7 27.9,109.3 52.6,57.4 C63.9,33.7 74.2,14.3 81.7,0.8 C101.4,8.2 115.6,24.1 106,57.1 L106,57.1 Z" id="Shape" fill="url(#linearGradient-16)" opacity="0.43"></path>
                                <path d="M196.6,74.4 L35.2,94.5 C40.5,83.1 46.4,70.7 52.7,57.4 C55.6,51.2 58.5,45.4 61.2,39.8 L195.5,55.2 C195.8,61.8 196.2,68.2 196.6,74.4 L196.6,74.4 Z" id="Shape" fill="url(#linearGradient-17)" opacity="0.14"></path>
                                <path d="M228.5,389.4 C226.4,390.9 223.4,392.8 219.6,394.3 C219,394.5 218.5,394.7 217.9,394.9 L184.5,54 L195.6,55.3 C195.9,61.9 196.2,68.3 196.6,74.5 C196.6,74.5 197.4,86.7 198.5,99.1 C199.9,115.1 211.8,230.8 228.5,389.4 L228.5,389.4 Z" id="Shape" fill="url(#linearGradient-18)" opacity="0.53"></path>
                            </g>
                        </g>
                        <g id="hands" transform="translate(37.000000, 0.000000)">
                            <path d="M39.6,32.9 C39.3,31.9 35.1,31.2 31.8,32.7 C29.8,33.6 28.9,34.9 26.5,35.4 C25,35.7 23.7,35.5 22.8,35.3 C23.2,34.6 38.8,17.5 41.6,14.7 C41.6,14.7 44.9,11.4 44.2,10 C43.9,9.5 43.5,9.3 43.5,9.3 C42.9,9 42.1,9.4 41.3,10 C40.2,10.8 34.2,17.1 26.3,24.6 C26.2,24.5 26.1,24.4 26,24.2 C39.9,8.1 41.2,4.6 40.7,3.8 C40.4,3.3 39.9,3.1 39.9,3.1 C38.5,2.7 36.6,4.9 35.7,6 C30.8,11.7 25.8,17.7 22.9,21.1 C22.8,21 22.7,20.9 22.6,20.8 C28.1,12.5 32,6.6 33.4,4.5 C33.8,3.8 35.1,2 34.4,1 C34.2,0.6 33.8,0.5 33.6,0.4 C32.2,1.12687637e-14 30.4,2.4 29.5,3.5 C25.4,8.8 21.3,14.2 18.5,17.8 C18.5,17.8 18.4,17.8 18.4,17.7 C23.2,9.9 26.4,4.5 27.3,3.2 C27.6,2.8 28.4,1.5 28,0.7 C27.8,0.4 27.5,0.2 27.3,0.1 C26.1,-0.2 24.3,2.1 23.5,3.3 C20.2,7.6 16.9,12.1 14.3,15.6 C14.3,15.6 14.3,15.6 14.2,15.6 C9,21.4 5.4,26.5 3,30.2 C1.2,33.1 -0.3,35.5 0.2,38.5 C0.8,42 3.5,44.2 4.1,44.6 C4.7,45.1 6.8,46.5 10.5,46.7 C15.5,47 18.2,44.8 28,39.6 C36.6,35.1 39.8,33.9 39.6,32.9 L39.6,32.9 Z" id="Shape" fill="url(#linearGradient-19)"></path>
                            <path d="M353.6,165.9 C354.6,166.2 355.3,170.4 353.8,173.7 C352.9,175.7 351.6,176.6 351.1,179.1 C350.8,180.6 351,181.9 351.2,182.8 C351.9,182.4 368.9,166.7 371.7,163.9 C371.7,163.9 374.9,160.6 376.3,161.3 C376.8,161.6 377,162 377,162 C377.3,162.6 376.9,163.4 376.4,164.2 C375.6,165.3 369.3,171.3 361.8,179.3 C361.9,179.4 362,179.5 362.2,179.6 C378.2,165.6 381.7,164.3 382.6,164.8 C383.1,165.1 383.3,165.6 383.3,165.6 C383.7,167 381.5,168.9 380.4,169.8 C374.7,174.7 368.7,179.8 365.4,182.6 C365.5,182.7 365.6,182.8 365.7,182.9 C373.9,177.4 379.8,173.4 381.9,172 C382.6,171.5 384.3,170.3 385.4,171 C385.8,171.2 385.9,171.6 386,171.8 C386.4,173.2 384,175 382.9,175.9 C377.7,180 372.2,184.2 368.6,187 L368.7,187.1 C376.5,182.3 381.8,179 383.1,178.1 C383.5,177.8 384.8,177 385.6,177.4 C385.9,177.6 386.1,177.9 386.2,178.1 C386.5,179.3 384.2,181.1 383.1,182 C378.8,185.3 374.3,188.7 370.8,191.3 C370.8,191.3 370.8,191.3 370.8,191.4 C365,196.6 360,200.2 356.3,202.7 C353.5,204.6 351,206 348,205.5 C344.2,204.9 342,201.9 341.9,201.6 C340.8,200 340.3,198.1 340.4,195.2 C340.5,190 342.3,186.5 346.8,177.6 C351.8,167.8 352.8,165.7 353.6,165.9 L353.6,165.9 Z" id="Shape" fill="url(#linearGradient-20)"></path>
                        </g>
                        <g id="body" transform="translate(0.000000, 28.000000)">
                            <path d="M393.7,174.4 C390.7,178.2 387.4,182 383.9,186 C383.7,186.2 383.6,186.4 383.4,186.6 C380.3,190.1 377,193.6 373.5,197.2 C368.3,202.5 363.1,207.4 358.1,211.8 C352.4,217.7 328.9,240.5 300.5,236.2 C291.4,234.8 284.9,231.1 277,226.4 C272.3,223.7 266.5,219.9 260.2,214.9 C259.5,214.4 258.9,213.8 258.2,213.3 C249.1,205.8 239,195.6 229.2,181.8 L229.1,181.7 C228.4,199.1 228.1,212 228,216.8 C227.9,221.7 227.8,227 227.8,227 L227.8,230.7 L227.8,242.7 C227.8,249.4 227.9,255 228.1,268.3 L228.1,271.4 C228.1,273.2 228.1,275.1 228.2,277.1 L228.2,277.1 L228.2,280 C228.2,281.4 228.2,282.9 228.3,284.5 C228.5,302.2 228.8,319.8 229.1,337.5 C204.2,340.2 173.7,341.3 139.3,337.5 C124.3,335.8 110.4,333.5 97.6,330.7 C93.5,329.8 89.6,328.9 85.7,328 C90.3,296.1 93.6,261 94.7,223.1 C94.8,218.7 94.9,214.4 95,210.2 C95,207.6 95.1,205.1 95.1,202.6 L95.1,202.6 C95.2,190.1 95,177.8 94.7,166 C94.6,166 94.4,165.9 94.3,165.9 C82.3,163.4 64,158.4 44.5,147.6 C25,136.8 10.9,129.1 3.9,113 C-3.7,95.6 1.4,79 9.1,54.4 C9.2,54 9.3,53.7 9.4,53.6 C12,45.5 15.8,36.7 21.1,27.6 C22.4,25.4 23.8,23.1 25.3,20.9 C29.8,14.1 35.3,7.1 41.8,-8.52651283e-14 C47.5,5.1 53.1,10.3 58.8,15.4 C33.5,49.1 26,82.8 37.7,95 C46.5,104.2 70.3,105.8 83.8,106.2 C91,106.4 97.7,106.2 97.7,106.2 C98.4,106.2 99.2,106.1 99.8,106.1 C103.1,105.9 106.1,105.6 109.3,105.3 C111.5,105.1 113.8,104.9 116.4,104.8 C117.9,104.7 119.4,104.6 120.9,104.6 C120.9,104.6 126.6,104.4 132.4,104.4 C151.5,104.5 167.2,104.6 180.9,105.9 C183.9,106.2 186.8,106.5 189.6,106.9 C202.1,108.7 212.9,112 223.4,117.8 C230.4,121.7 234.8,125.5 243.7,133.2 C282.9,167.2 284.3,192.7 302.9,199.8 C308.1,201.8 314.9,202.4 323.6,199.9 C325.8,199.3 328.2,198.4 330.7,197.3 C342.9,192 358.4,181.2 378.4,161.6 C382.8,165.3 387.3,169.1 391.7,172.8 C392.3,173.2 393,173.8 393.7,174.4 L393.7,174.4 Z" id="Shape" fill="#0D2A28"></path>
                            <g id="Group" opacity="0.48" transform="translate(21.000000, 19.000000)" fill="#FC860A">
                                <path d="M92.1,282.9 L97.7,277.3 L90.6,279.3 L89.2,271.3 L86.5,278.9 L80.2,274.2 L83.8,282.3 C82.5,284.7 81.1,287.2 79.8,289.6 L87.6,284.8 L94.8,291.3 C94,288.5 93.1,285.7 92.1,282.9 L92.1,282.9 Z" id="Shape"></path>
                                <path d="M130.2,223.6 L135.8,218 L128.7,220 L127.3,212 L124.6,219.6 L118.3,214.9 L121.9,223 C120.6,225.4 119.2,227.9 117.9,230.3 L125.7,225.5 L132.9,232 C132.1,229.2 131.2,226.4 130.2,223.6 L130.2,223.6 Z" id="Shape"></path>
                                <path d="M79.1,188.6 C80,191.4 81,194.2 81.9,197 L74.7,190.5 L74,191 C74,188.4 74.1,185.9 74.1,183.4 L74.1,183.4 L76.3,177.1 L77.7,185.1 L84.8,183.1 L79.1,188.6 L79.1,188.6 Z" id="Shape"></path>
                                <path d="M134.3,144.8 L139.9,139.2 L132.8,141.2 L131.4,133.2 L128.7,140.8 L122.4,136.1 L126,144.2 C124.7,146.6 123.3,149.1 122,151.5 L129.8,146.7 L137,153.2 C136.2,150.4 135.2,147.6 134.3,144.8 L134.3,144.8 Z" id="Shape"></path>
                                <path d="M186.2,182.1 L191.8,176.5 L184.7,178.5 L183.3,170.5 L180.6,178.1 L174.3,173.4 L177.9,181.5 C176.6,183.9 175.2,186.4 173.9,188.8 L181.7,184 L188.9,190.5 C188.1,187.7 187.1,184.9 186.2,182.1 L186.2,182.1 Z" id="Shape"></path>
                                <path d="M207.2,260.8 L201.3,255.5 L193.5,260.3 C194.8,257.9 196.2,255.4 197.5,253 L193.9,244.9 L200.2,249.6 L202.9,242 L204.3,250 L207.1,249.2 L207.1,252.3 L205.7,253.7 C206.2,255.1 206.7,256.6 207.1,258 L207.1,258 C207.1,258.9 207.1,259.8 207.2,260.8 L207.2,260.8 Z" id="Shape"></path>
                                <path d="M165.9,295.9 L171.5,290.3 L164.4,292.3 L163,284.3 L160.3,291.9 L154,287.2 L157.6,295.3 C156.3,297.7 154.9,300.2 153.6,302.6 L161.4,297.8 L168.6,304.3 C167.8,301.5 166.9,298.7 165.9,295.9 L165.9,295.9 Z" id="Shape"></path>
                                <path d="M223.5,135 L229.1,129.4 L222,131.4 L220.6,123.4 L218,131 L211.7,126.3 L215.3,134.4 C214,136.8 212.6,139.3 211.3,141.7 L219.1,136.9 L226.3,143.4 C225.4,140.6 224.4,137.8 223.5,135 L223.5,135 Z" id="Shape"></path>
                                <path d="M171.2,96.3 L164,89.8 L156.2,94.6 C157.5,92.2 158.9,89.7 160.2,87.3 L159.9,86.6 C162.9,86.9 165.8,87.2 168.6,87.6 L168.4,87.8 C169.3,90.7 170.2,93.5 171.2,96.3 L171.2,96.3 Z" id="Shape"></path>
                                <path d="M90.9,93.8 L83.7,87.3 L75.9,92.1 C76.9,90.3 77.8,88.6 78.8,86.8 C82.1,86.6 85.1,86.3 88.3,86 C89.1,88.7 90,91.3 90.9,93.8 L90.9,93.8 Z" id="Shape"></path>
                                <path d="M25.6,108.2 L31.2,102.6 L24.1,104.6 L22.7,96.6 L20,104.2 L13.7,99.5 L17.3,107.6 C16,110 14.6,112.5 13.3,114.9 L21.1,110.1 L28.3,116.6 C27.5,113.8 26.6,111 25.6,108.2 L25.6,108.2 Z" id="Shape"></path>
                                <path d="M3.7,5.8 C4.6,8.6 5.6,11.4 6.5,14.2 L0,8.3 C1.3,6.1 2.7,3.8 4.2,1.6 L9.4,0.2 L3.7,5.8 L3.7,5.8 Z" id="Shape"></path>
                                <path d="M247,191.9 L249.8,200.3 L242.6,193.8 L239.1,195.9 C238.4,195.4 237.8,194.8 237.1,194.3 C237.7,193.3 238.2,192.3 238.8,191.3 L235.2,183.2 L241.5,187.9 L244.2,180.3 L245.6,188.3 L252.6,186.3 L247,191.9 L247,191.9 Z" id="Shape"></path>
                                <path d="M311.1,182.1 C312,184.9 313,187.7 313.9,190.5 L306.7,184 L298.9,188.8 C300.2,186.4 301.6,183.9 302.9,181.5 L302.5,180.6 C304.7,180 307.1,179.1 309.6,178 L309.7,178.4 L316.8,176.4 L311.1,182.1 L311.1,182.1 Z" id="Shape"></path>
                                <path d="M362.9,167 C362.7,167.2 362.6,167.4 362.4,167.6 L361.8,166.2 L362.9,167 L362.9,167 Z" id="Shape"></path>
                            </g>
                            <path d="M229,337.3 C204.1,340 173.6,341.1 139.2,337.3 C124.2,335.7 110.3,333.3 97.5,330.5 C100.2,306.4 112.9,235.6 167.4,219.9 C198.3,211 216.1,212.8 228,216.8 C227.8,226.9 227.8,235.6 227.8,242.6 C227.8,251.5 227.9,258.5 228.3,284.3 C228.4,302 228.7,319.6 229,337.3 L229,337.3 Z" id="Shape" fill="url(#linearGradient-21)" opacity="0.4"></path>
                            <path d="M94.4,165.5 C94.4,165.5 94.3,165.6 94.2,165.7 C82.2,163.2 63.9,158.2 44.4,147.4 C24.9,136.7 10.8,128.9 3.8,112.8 C-3.8,95.4 1.3,78.8 9,54.2 C10.2,81.1 22.3,129.3 94.4,165.5 L94.4,165.5 Z" id="Shape" fill="url(#linearGradient-22)" opacity="0.4"></path>
                            <path d="M393.7,174.4 C387.8,181.7 381.1,189.4 373.4,197.1 C368.2,202.4 363,207.3 358,211.7 C352.3,217.6 328.8,240.4 300.4,236.1 C291.3,234.7 284.8,231 276.9,226.4 C265.1,219.5 246.5,206.3 229.1,181.8 C228.8,177.6 229,174.4 230.6,173.6 C237.5,170.2 255.4,218.7 294.7,226.4 C301.3,227.7 306.4,227.4 310.1,227.2 C347.7,225.1 377.6,191.3 391.5,172.6 C392.3,173.2 393,173.8 393.7,174.4 L393.7,174.4 Z" id="Shape" fill="url(#linearGradient-23)" opacity="0.4"></path>
                        </g>
                        <g id="head" transform="translate(133.000000, 11.000000)">
                            <path d="M56.9,75.1 C56.8,91.9 56.6,100.4 51.6,103.7 C48.6,105.7 45.4,105.7 39.2,105.7 C38.6,105.7 27.9,105.5 18,99.3 C16.4,98.3 15.7,97.7 15.2,97.2 C10.8,92.9 10.7,86.5 10.6,83.8 C9.9,58.8 4.7,56.7 9.1,46.6 C13.3,36.8 23.8,23.2 36.9,24 C45.2,24.5 50.9,30.4 51.9,31.5 C55.7,35.6 56.6,43.7 56.8,58 L56.8,61.2 C56.9,65.2 56.9,69.9 56.9,75.1 L56.9,75.1 Z" id="face" fill="url(#linearGradient-24)"></path>
                            <g id="neck" transform="translate(9.000000, 88.000000)">
                                <path d="M35.1,47.3 C34.8,47.8 31.3,53.7 24.6,55.4 C17.6,57.1 10.2,53.6 5.9,48.9 C0.4,42.8 0.6,33.6 1,15.6 C1.2,9.3 1.6,4.2 2,0.7 L35.9,10.7 L35.9,14.8 L35.9,17.6 C36,20.8 36.1,23.7 36.2,26.2 C36.9,38.3 37.9,42.5 35.1,47.3 L35.1,47.3 Z" id="Shape" fill="url(#linearGradient-25)"></path>
                                <path d="M36.3,26.2 C25.4,24.9 16.1,15 15.8,14.6 C21.2,17.7 30.4,17.8 36,17.6 C36.1,20.9 36.2,23.7 36.3,26.2 L36.3,26.2 Z" id="Shape" fill="#153E5C" opacity="0.17"></path>
                            </g>
                            <path d="M41.2,91.6 C39.9,91.6 38.3,91.4 36.6,90.6 C33.1,89 31.5,86 30.9,84.8 C30.8,84.5 30.9,84.1 31.2,84 C31.5,83.9 31.9,84 32,84.3 C32.5,85.4 33.9,88.1 37.1,89.5 C39.3,90.5 41.4,90.5 42.7,90.2 C43,90.1 43.3,90.4 43.4,90.7 C43.5,91 43.2,91.3 42.9,91.4 C42.5,91.6 41.9,91.6 41.2,91.6 L41.2,91.6 Z" id="Shape" fill="#302C34"></path>
                            <g id="eyes" transform="translate(33.000000, 63.000000)" fill="#302C34">
                                <circle id="Oval" cx="2" cy="2" r="2"></circle>
                                <circle id="Oval" cx="18" cy="2" r="2"></circle>
                            </g>
                            <path d="M44.1,63 C44.6,65.1 45.5,68.3 47.3,71.9 C49.7,76.6 52.1,78.8 51.4,80 C50.9,80.9 48.9,81.4 41.7,79.2 C42.5,73.9 43.3,68.5 44.1,63 L44.1,63 Z" id="nose" fill="#B47365"></path>
                            <g id="brows" transform="translate(24.000000, 56.000000)" fill="#302C34">
                                <polygon id="Rectangle-path" transform="translate(8.241366, 2.597073) rotate(-3.190007) translate(-8.241366, -2.597073) " points="1.04100942 0.996993931 1.04100942 4.19715263 15.4417235 4.19715263 15.4417235 0.996993931"></polygon>
                                <polygon id="Shape" points="32.9 5.1 22.5 3.5 23 0.4 32.9 2"></polygon>
                            </g>
                            <path d="M54.1,42 C55.8,40.8 61.1,37 64,30 C66.5,23.7 67.3,14.3 63.3,11.6 C63,11.4 61.7,10.5 60.5,10.9 C58.2,11.6 58.8,15.6 55.6,19.4 C54.1,21.2 51.9,22.7 51.4,22.2 C50.2,21.3 58.4,12.8 55.6,6.6 C54.8,4.7 52.8,2.8 51.4,3.1 C49.9,3.4 49.5,5.8 48.6,8.1 C47.5,10.8 45.3,14.4 40.1,18 C40.6,17.2 45.7,9.1 42.2,3.1 C41.6,2.1 41,1.1 40.1,1 C36.7,0.6 36.2,12.7 28.1,20.8 C20,28.9 12.9,25.4 6.2,32.8 C4.5,34.7 0.8,39.6 0.5,56.2 C0.2,79.1 6.7,102.5 10.2,102.1 C12.4,101.8 13.3,88.1 15.1,60.7 C15.6,53.7 15.9,47.8 16,43.5 C18.4,44.4 38.9,52.5 54.1,42 L54.1,42 Z" id="hair" fill="#302C34"></path>
                            <circle id="ear" fill="url(#linearGradient-26)" cx="11.5" cy="70.5" r="7.5"></circle>
                        </g>
                    </g>
                </g>
            </g>
        </g>
    </g>
</svg>