<?xml version="1.0" encoding="UTF-8"?>
<svg width="57px" height="82px" viewBox="0 0 57 82" version="1.1" xmlns="http://www.w3.org/2000/svg" xmlns:xlink="http://www.w3.org/1999/xlink">
    <!-- Generator: Sketch 58 (84663) - https://sketch.com -->
    <title>lamp</title>
    <desc>Created with Sketch.</desc>
    <g id="页面-1" stroke="none" stroke-width="1" fill="none" fill-rule="evenodd">
        <g id="lamp" fill-rule="nonzero">
            <g id="Light" transform="translate(27.000000, 58.000000)">
                <circle id="Hanging-Lamp-Light" fill="#F2F2F2" cx="15" cy="12" r="12"></circle>
                <path d="M30,20 C30,8.954305 23.2842713,0 15,0 C6.71572876,0 0,8.954305 0,20" id="Hanging-Lamp" fill="#DDE3E9"></path>
            </g>
            <rect id="Wire" fill="#DDE3E9" transform="translate(41.500000, 29.000000) scale(-1, 1) translate(-41.500000, -29.000000) " x="40" y="0" width="3" height="58"></rect>
            <g id="编组" transform="translate(15.000000, 26.000000) scale(-1, 1) translate(-15.000000, -26.000000) ">
                <g id="Light" transform="translate(0.000000, 28.000000)">
                    <circle id="Hanging-Lamp-Light" fill="#F2F2F2" cx="15" cy="12" r="12"></circle>
                    <path d="M30,20 C30,8.954305 23.2842712,0 15,0 C6.71572875,0 0,8.954305 0,20" id="Hanging-Lamp" fill="#DDE3E9"></path>
                </g>
                <rect id="Wire" fill="#DDE3E9" x="14" y="0" width="3" height="28"></rect>
            </g>
        </g>
    </g>
</svg>